#N canvas 1393 110 1718 1348 12;
#X obj 73 44 inlet;
#X obj 100 319 line~;
#X msg 70 264 1 \$1;
#X msg 133 288 0 \$1;
#X obj 133 263 float;
#X obj 111 216 +;
#X obj 111 239 delay;
#X obj 101 348 outlet~;
#X obj 100 187 +;
#X obj 14 179 delay;
#X msg 18 270 \$1 \$2;
#X obj 33 213 pack;
#X obj 429 288 bng 15 250 50 0 empty drumact empty 17 7 0 10 #fcfcfc #000000 #000000;
#X obj 375 343 delay;
#X obj 375 321 * 1000;
#X msg 375 364 stop;
#X floatatom 375 297 5 0 0 0 - - - 0;
#X obj 603 344 *, f 2;
#X obj 635 322 samplerate~;
#X obj 603 295 t f b;
#X obj 258 169 +;
#X obj 258 193 +;
#X obj 258 217 +;
#N canvas 1713 0 1718 1348 (subpatch) 0;
#X array \$0-adsr 1 float 3;
#A 0 0;
#X coords 0 1 1 0 200 140 1 0 0;
#X restore 729 153 graph;
#X listbox 23 382 20 0 0 0 - - - 0;
#X obj 272 268 / 1000;
#X msg 154 27 50 20 0.8 200 100 1;
#X obj 443 378 f \$0;
#X floatatom 443 402 5 0 0 0 - - - 0;
#X obj 443 355 loadbang;
#X msg 443 425 set \$1-adsr;
#X obj 598 426 pack f f;
#X msg 598 448 \; \$1-adsr resize \$2 \;;
#X obj 603 368 t b f;
#X obj 416 452 tabwrite~;
#X obj 73 68 unpack f f f f f;
#X obj 270 103 t b;
#X text 209 68 a dt da s r;
#X connect 0 0 35 0;
#X connect 1 0 7 0;
#X connect 1 0 34 0;
#X connect 2 0 1 0;
#X connect 3 0 1 0;
#X connect 4 0 3 0;
#X connect 5 0 6 0;
#X connect 6 0 4 0;
#X connect 8 0 5 0;
#X connect 9 0 11 0;
#X connect 10 0 1 0;
#X connect 10 0 24 0;
#X connect 11 0 10 0;
#X connect 12 0 34 0;
#X connect 13 0 15 0;
#X connect 14 0 13 0;
#X connect 15 0 34 0;
#X connect 16 0 14 0;
#X connect 16 0 19 0;
#X connect 17 0 33 0;
#X connect 18 0 17 1;
#X connect 19 0 17 0;
#X connect 19 1 18 0;
#X connect 20 0 21 0;
#X connect 21 0 22 0;
#X connect 22 0 25 0;
#X connect 25 0 16 0;
#X connect 26 0 35 0;
#X connect 27 0 28 0;
#X connect 28 0 30 0;
#X connect 28 0 31 0;
#X connect 29 0 27 0;
#X connect 30 0 34 0;
#X connect 31 0 32 0;
#X connect 33 0 31 0;
#X connect 33 1 31 1;
#X connect 35 0 2 0;
#X connect 35 0 8 0;
#X connect 35 0 9 0;
#X connect 35 0 20 0;
#X connect 35 1 8 1;
#X connect 35 1 11 1;
#X connect 35 1 20 1;
#X connect 35 2 11 0;
#X connect 35 3 5 1;
#X connect 35 3 21 1;
#X connect 35 4 4 1;
#X connect 35 4 22 1;
#X connect 35 4 36 0;
#X connect 36 0 12 0;
