#N canvas 3436 1393 3440 1357 12;
#X obj 28 61 inlet~;
#X obj 28 19 loadbang;
#X msg 28 40 0;
#X obj 208 43 inlet;
#X obj 382 104 s \$0-delay;
#X obj 457 104 s \$0-fb;
#X obj 383 158 r \$0-delay;
#X obj 401 205 r \$0-fb;
#X obj 413 266 delwrite~ \$0-delay 1000;
#X obj 383 183 delread~ \$0-delay;
#X obj 28 83 s~ \$0-input;
#X obj 413 244 r~ \$0-input;
#X obj 267 319 r~ \$0-input;
#X obj 383 227 *~;
#N canvas 1713 0 1718 1348 discrete 0;
#X obj 159 157 expr int($f1/$f2) * $f2;
#X obj 159 185 change;
#X msg 74 143 set \$1;
#X obj 150 100 nbx 4 18 0 99 0 0 empty empty empty 0 -8 0 12 #dfdfdf #000000 #000000 0 256;
#X obj 150 100 nbx 4 18 -1e+37 1e+37 0 0 empty empty empty 0 -8 0 12 #dfdfdf #000000 #000000 0 256;
#X obj 159 52 inlet;
#X text 155 27 value;
#X obj 159 228 outlet;
#X text 362 102 The trick here is to use two number boxes. The one in the front just acts as a display \, but we're in fact interacting to the one in the background., f 29;
#X floatatom 231 231 5 0 0 0 - - - 0;
#X obj 292 86 loadbang;
#X msg 292 110 0.01;
#X obj 149 125 * 0.01;
#X connect 0 0 1 0;
#X connect 0 0 9 0;
#X connect 1 0 2 0;
#X connect 1 0 7 0;
#X connect 2 0 4 0;
#X connect 3 0 12 0;
#X connect 5 0 3 0;
#X connect 10 0 11 0;
#X connect 11 0 0 1;
#X connect 12 0 0 0;
#X coords 0 -1 1 1 54 18 2 150 100;
#X restore 100 118 pd discrete;
#X text 153 118 Feedback;
#N canvas -1044 385 3440 1295 discrete 0;
#X obj 159 157 expr int($f1/$f2) * $f2;
#X obj 159 185 change;
#X msg 74 143 set \$1;
#X obj 150 100 nbx 4 18 0 10000 0 0 empty empty empty 0 -8 0 12 #dfdfdf #000000 #000000 0 256;
#X obj 150 100 nbx 4 18 -1e+37 1e+37 0 0 empty empty empty 0 -8 0 12 #dfdfdf #000000 #000000 0 256;
#X obj 159 52 inlet;
#X text 155 27 value;
#X obj 159 228 outlet;
#X text 362 102 The trick here is to use two number boxes. The one in the front just acts as a display \, but we're in fact interacting to the one in the background., f 29;
#X msg 246 107 1;
#X obj 240 83 loadbang;
#X connect 0 0 1 0;
#X connect 1 0 2 0;
#X connect 1 0 7 0;
#X connect 2 0 4 0;
#X connect 3 0 0 0;
#X connect 5 0 3 0;
#X connect 9 0 0 1;
#X connect 10 0 9 0;
#X coords 0 -1 1 1 54 18 2 150 100;
#X restore 100 100 pd discrete;
#X obj 128 231 t b f;
#X obj 121 277 s \$0-uicontrol;
#X obj 400 48 r \$0-uicontrol;
#X text 153 100 Delay ms;
#X obj 267 340 outlet~;
#X text 263 360 Original wave // just delay;
#N canvas -1044 385 3440 1295 discrete 0;
#X obj 159 157 expr int($f1/$f2) * $f2;
#X obj 159 185 change;
#X msg 74 143 set \$1;
#X obj 150 100 nbx 4 18 0 10000 0 0 empty empty empty 0 -8 0 12 #dfdfdf #000000 #000000 0 256;
#X obj 150 100 nbx 4 18 -1e+37 1e+37 0 0 empty empty empty 0 -8 0 12 #dfdfdf #000000 #000000 0 256;
#X obj 159 52 inlet;
#X text 155 27 value;
#X obj 159 228 outlet;
#X text 362 102 The trick here is to use two number boxes. The one in the front just acts as a display \, but we're in fact interacting to the one in the background., f 29;
#X msg 246 107 1;
#X obj 240 83 loadbang;
#X connect 0 0 1 0;
#X connect 1 0 2 0;
#X connect 1 0 7 0;
#X connect 2 0 4 0;
#X connect 3 0 0 0;
#X connect 5 0 3 0;
#X connect 9 0 0 1;
#X connect 10 0 9 0;
#X coords 0 -1 1 1 54 18 2 150 100;
#X restore 100 136 pd discrete;
#X text 153 136 LPFilter;
#X obj 395 72 unpack f f f;
#X obj 121 253 pack f f f;
#X obj 187 189 t b f;
#X obj 511 104 s \$0-lop;
#X obj 408 289 r \$0-lop;
#X obj 383 317 lop~;
#X obj 383 341 outlet~;
#X text 455 41 Delay / Feedback / LP;
#X obj 113 62 unpack f f f;
#X connect 0 0 10 0;
#X connect 1 0 2 0;
#X connect 2 0 0 0;
#X connect 3 0 33 0;
#X connect 6 0 9 0;
#X connect 7 0 13 1;
#X connect 9 0 13 0;
#X connect 11 0 8 0;
#X connect 12 0 21 0;
#X connect 13 0 8 0;
#X connect 13 0 30 0;
#X connect 14 0 17 0;
#X connect 16 0 26 0;
#X connect 17 0 26 0;
#X connect 17 1 26 1;
#X connect 19 0 25 0;
#X connect 23 0 27 0;
#X connect 25 0 4 0;
#X connect 25 1 5 0;
#X connect 25 2 28 0;
#X connect 26 0 18 0;
#X connect 27 0 26 0;
#X connect 27 1 26 2;
#X connect 29 0 30 1;
#X connect 30 0 31 0;
#X connect 33 0 16 0;
#X connect 33 1 14 0;
#X connect 33 2 23 0;
#X coords 0 -1 1 1 115 54 2 100 100;
