#N canvas 3402 77 3440 1357 12;
#X obj 33 68 inlet;
#X symbolatom 33 183 10 0 0 0 - - - 0;
#X obj 33 161 symbol;
#X obj 527 506 stereodelay~;
#X obj 73 137 s \$0-write;
#X text 79 69 read / write / settings;
#X obj 33 94 list split 1;
#X obj 73 115 list split 1;
#X obj 153 137 s \$0-settings;
#X obj 619 292 blip;
#X obj 557 215 writesf~ 2;
#X obj 1043 148 r \$0-settings;
#X obj 470 52 r \$0-write;
#X obj 470 101 symbol;
#X symbolatom 470 125 10 0 0 0 - - - 0;
#X msg 470 148 open -bytes 4 \$1;
#X obj 33 203 s \$0-read;
#X obj 307 67 r \$0-read;
#X obj 307 90 t b s;
#X msg 289 161 start;
#X msg 339 113 open \$1;
#X obj 331 192 readsf~ 2;
#X obj 763 506 stereodelay~;
#X obj 719 643 +~;
#X obj 809 646 +~;
#X obj 719 667 +~;
#X obj 809 670 +~;
#X symbolatom 895 322 14 0 0 0 - - - 0;
#X symbolatom 895 362 14 0 0 0 - - - 0;
#X obj 1023 390 symbol;
#X obj 1024 437 symbol;
#X obj 934 400 bng 19 250 50 0 empty empty empty 0 -10 0 12 #fcfcfc #000000 #000000;
#X obj 758 761 dac~;
#X obj 553 316 vsl 40 160 0 1 0 0 empty empty empty 0 -9 0 12 #fcfcfc #000000 #000000 0 1;
#X text 548 292 Volume;
#X floatatom 676 738 5 0 0 0 - - - 0;
#X obj 553 482 bng 19 250 50 0 empty empty empty 0 -10 0 12 #fcfcfc #000000 #000000;
#X text 578 482 Mute;
#X msg 455 533 0;
#X obj 384 390 loadbang;
#X msg 384 414 0.5;
#X obj 738 723 *~;
#X obj 792 720 *~;
#X msg 630 145 start;
#X obj 702 130 bng 19 250 50 0 empty empty empty 0 -10 0 12 #fcfcfc #000000 #000000;
#X msg 820 183 stop;
#X obj 1177 526 unpack f f f f f f;
#X obj 1285 552 +;
#X obj 1285 576 +;
#X obj 1285 600 +;
#X obj 1285 624 +;
#X floatatom 1285 672 5 0 0 0 - - - 0;
#X obj 470 76 t b s;
#X obj 1285 648 * 4;
#X obj 1430 376 vum;
#X obj 1528 377 vum;
#X floatatom 1490 557 5 0 0 0 - - - 0;
#X floatatom 1574 561 5 0 0 0 - - - 0;
#X obj 1509 619 == -100;
#X obj 1600 613 == -100;
#X obj 1509 643 tgl 19 0 empty empty empty 0 -10 0 12 #fcfcfc #000000 #000000 0 1;
#X obj 1598 639 tgl 19 0 empty empty empty 0 -10 0 12 #fcfcfc #000000 #000000 0 1;
#X obj 1540 680 &&;
#X obj 1540 704 tgl 19 0 empty empty empty 0 -10 0 12 #fcfcfc #000000 #000000 0 1;
#X obj 820 160 spigot;
#X obj 952 224 tgl 19 0 empty empty empty 0 -10 0 12 #fcfcfc #000000 #000000 0 1;
#X obj 882 210 bng 19 250 50 0 empty empty empty 0 -10 0 12 #fcfcfc #000000 #000000;
#X obj 898 132 &&;
#X obj 898 156 tgl 19 0 empty empty empty 0 -10 0 12 #fcfcfc #000000 #000000 0 1;
#X obj 882 233 tgl 19 0 empty empty empty 0 -10 0 12 #fcfcfc #000000 #000000 0 1;
#X obj 739 101 bng 19 250 50 0 empty empty empty 0 -10 0 12 #fcfcfc #000000 #000000;
#X obj 762 38 loadbang;
#X obj 827 55 bng 19 250 50 0 empty empty empty 0 -10 0 12 #fcfcfc #000000 #000000;
#X text 926 300 Read;
#X text 924 343 Write;
#X text 919 381 Record;
#X obj 1023 415 s \$0-readui;
#X obj 1024 461 s \$0-writeui;
#X obj 86 243 r \$0-readui;
#X obj 86 267 list fromsymbol;
#X obj 86 291 route list;
#X obj 86 315 list tosymbol;
#X obj 573 24 r \$0-writeui;
#X obj 211 306 tgl 19 0 empty empty empty 0 -10 0 12 #fcfcfc #000000 #000000 0 1;
#X msg 854 56 \; pd dsp 1;
#X obj 854 34 loadbang;
#X text 70 365 Test for empty read symbol;
#X text 1395 728 Automatically check for sound finished;
#X obj 702 152 delay 100;
#X obj 1132 202 pack f f f f f f f;
#X obj 1265 202 pack f f f f f f f;
#X obj 1012 203 pack f f f f f f;
#X obj 1043 171 unpack f f f f f f f f f f f f f f f f f f f f;
#X text 1137 149 6 Blip // 7 L Stereo Delay // 7 R Stereo Delay;
#X obj 901 445 hradio 22 1 0 4 empty empty empty 0 -10 0 12 #fcfcfc #000000 #000000 0;
#X floatatom 1025 514 5 0 0 0 - - \$0-preset 0;
#X text 918 425 Presets;
#X floatatom 1097 39 5 0 0 0 - \$0-preset - 0;
#N canvas 2465 1388 3440 1357 preset 0;
#X obj 37 37 inlet;
#X obj 116 396 outlet;
#X obj 45 68 select 0 1 2 3;
#X obj 45 105 bng 19 250 50 0 empty empty empty 0 -10 0 12 #fcfcfc #000000 #000000;
#X obj 74 103 bng 19 250 50 0 empty empty empty 0 -10 0 12 #fcfcfc #000000 #000000;
#X obj 95 103 bng 19 250 50 0 empty empty empty 0 -10 0 12 #fcfcfc #000000 #000000;
#X obj 117 103 bng 19 250 50 0 empty empty empty 0 -10 0 12 #fcfcfc #000000 #000000;
#X text 170 73 20 args;
#X text 557 85 6 Blip // 7 L Stereo Delay // 7 R Stereo Delay;
#X msg 28 212 70 30 70 73 30 10 0 70 82 50 167 70 60 0 76 84 112 85 69 84;
#X msg 84 267 422 60 50 78 60 270 -37 156 82 50 167 70 38 61 341 84 169 310 72 160, f 75;
#X msg 151 309 897 30 50 96 40 150 -100 50 79 124 50 76 124 100 174 75 58 198 58 54, f 69;
#X msg 207 352 156 1140 720 77 0 140 -50 74 94 156 66 94 156 71 290 90 78 286 90 78, f 70;
#X msg 447 139 0 0 0 0 0 0 0 0 0 0 0 0 0 0 0 0 0 0 0 0;
#X obj 132 166 del 1;
#X obj 171 166 del 1;
#X obj 210 166 del 1;
#X obj 249 166 del 1;
#X connect 0 0 2 0;
#X connect 2 0 3 0;
#X connect 2 1 4 0;
#X connect 2 2 5 0;
#X connect 2 3 6 0;
#X connect 3 0 13 0;
#X connect 3 0 14 0;
#X connect 4 0 13 0;
#X connect 4 0 15 0;
#X connect 5 0 13 0;
#X connect 5 0 16 0;
#X connect 6 0 13 0;
#X connect 6 0 17 0;
#X connect 9 0 1 0;
#X connect 10 0 1 0;
#X connect 11 0 1 0;
#X connect 12 0 1 0;
#X connect 13 0 1 0;
#X connect 14 0 9 0;
#X connect 15 0 10 0;
#X connect 16 0 11 0;
#X connect 17 0 12 0;
#X restore 1097 62 pd preset;
#X text 779 107 Stops writing when sound is finished;
#X obj 739 77 metro 200;
#X text 825 309 Test Blip;
#X text 3 4 Author: Logan Kirkendall;
#X obj 960 484 bng 19 250 50 0 empty empty empty 0 -10 0 12 #fcfcfc #000000 #000000;
#X text 949 466 Clear;
#X msg 1097 277 0 0 0 0 0 0 0 0 0 0 0 0 0 0 0 0 0 0 0 0;
#X msg 1147 334 897 30 50 96 40 150 -100 50 79 124 50 76 124 100 174 75 58 198 58 54, f 69;
#X obj 470 172 bng 19 250 50 0 empty empty empty 0 -10 0 12 #fcfcfc #000000 #000000;
#X obj 912 472 info README.pdf;
#X connect 0 0 6 0;
#X connect 1 0 16 0;
#X connect 2 0 1 0;
#X connect 3 0 25 1;
#X connect 3 1 23 0;
#X connect 3 2 24 0;
#X connect 6 0 2 0;
#X connect 6 1 7 0;
#X connect 7 0 4 0;
#X connect 7 1 8 0;
#X connect 9 0 3 0;
#X connect 9 0 22 0;
#X connect 9 1 46 0;
#X connect 11 0 92 0;
#X connect 12 0 52 0;
#X connect 13 0 14 0;
#X connect 14 0 15 0;
#X connect 15 0 10 0;
#X connect 15 0 107 0;
#X connect 17 0 18 0;
#X connect 18 0 19 0;
#X connect 18 1 20 0;
#X connect 19 0 21 0;
#X connect 19 0 10 0;
#X connect 20 0 21 0;
#X connect 21 0 3 0;
#X connect 21 1 22 0;
#X connect 22 0 26 1;
#X connect 22 1 23 1;
#X connect 22 2 24 1;
#X connect 23 0 25 0;
#X connect 24 0 26 0;
#X connect 25 0 10 0;
#X connect 25 0 41 0;
#X connect 25 0 54 0;
#X connect 26 0 10 1;
#X connect 26 0 42 0;
#X connect 26 0 55 0;
#X connect 27 0 29 1;
#X connect 28 0 30 1;
#X connect 29 0 76 0;
#X connect 30 0 77 0;
#X connect 31 0 29 0;
#X connect 31 0 30 0;
#X connect 33 0 35 0;
#X connect 35 0 41 1;
#X connect 35 0 42 1;
#X connect 36 0 38 0;
#X connect 38 0 33 0;
#X connect 39 0 40 0;
#X connect 40 0 33 0;
#X connect 41 0 32 0;
#X connect 42 0 32 1;
#X connect 43 0 10 0;
#X connect 44 0 88 0;
#X connect 45 0 10 0;
#X connect 46 0 50 1;
#X connect 46 1 49 1;
#X connect 46 2 48 1;
#X connect 46 4 47 0;
#X connect 46 5 47 1;
#X connect 47 0 48 0;
#X connect 48 0 49 0;
#X connect 49 0 50 0;
#X connect 50 0 53 0;
#X connect 51 0 88 1;
#X connect 52 0 44 0;
#X connect 52 1 13 0;
#X connect 53 0 51 0;
#X connect 54 1 56 0;
#X connect 55 1 57 0;
#X connect 56 0 58 0;
#X connect 57 0 59 0;
#X connect 58 0 60 0;
#X connect 59 0 61 0;
#X connect 60 0 62 0;
#X connect 61 0 62 1;
#X connect 62 0 63 0;
#X connect 63 0 65 0;
#X connect 64 0 45 0;
#X connect 64 0 66 0;
#X connect 65 0 67 0;
#X connect 66 0 69 0;
#X connect 67 0 68 0;
#X connect 68 0 64 1;
#X connect 69 0 67 1;
#X connect 70 0 64 0;
#X connect 71 0 100 0;
#X connect 72 0 100 0;
#X connect 78 0 79 0;
#X connect 79 0 80 0;
#X connect 80 0 81 0;
#X connect 80 1 9 0;
#X connect 81 0 1 0;
#X connect 82 0 52 0;
#X connect 85 0 84 0;
#X connect 88 0 69 0;
#X connect 89 0 3 1;
#X connect 90 0 22 1;
#X connect 91 0 9 1;
#X connect 92 0 91 0;
#X connect 92 1 91 1;
#X connect 92 2 91 2;
#X connect 92 3 91 3;
#X connect 92 4 91 4;
#X connect 92 5 91 5;
#X connect 92 6 89 0;
#X connect 92 7 89 1;
#X connect 92 8 89 2;
#X connect 92 9 89 3;
#X connect 92 10 89 4;
#X connect 92 11 89 5;
#X connect 92 12 89 6;
#X connect 92 13 90 0;
#X connect 92 14 90 1;
#X connect 92 15 90 2;
#X connect 92 16 90 3;
#X connect 92 17 90 4;
#X connect 92 18 90 5;
#X connect 92 19 90 6;
#X connect 94 0 95 0;
#X connect 97 0 98 0;
#X connect 98 0 92 0;
#X connect 100 0 70 0;
#X connect 103 0 105 0;
#X connect 105 0 92 0;
#X connect 107 0 43 0;
#X coords 0 -1 1 1 469 305 2 527 292;
