#N canvas 3011 313 3440 1357 12;
#X obj 117 63 inlet~;
#X obj 111 453 outlet~;
#X obj 164 453 outlet~;
#X text 146 475 L/R;
#X obj 100 137 delay~;
#X obj 218 137 delay~;
#X text 138 119 Left;
#X text 252 119 Right;
#X obj 235 11 inlet;
#X text 201 100 Pan;
#N canvas 1713 0 1718 1348 discrete 0;
#X obj 159 157 expr int($f1/$f2) * $f2;
#X obj 159 185 change;
#X msg 74 143 set \$1;
#X obj 150 100 nbx 4 18 -100 100 0 0 empty empty empty 0 -8 0 12 #dfdfdf #000000 #000000 0 256;
#X obj 150 100 nbx 4 18 -1e+37 1e+37 0 0 empty empty empty 0 -8 0 12 #dfdfdf #000000 #000000 0 256;
#X obj 159 52 inlet;
#X text 155 27 value;
#X obj 159 228 outlet;
#X text 362 102 The trick here is to use two number boxes. The one in the front just acts as a display \, but we're in fact interacting to the one in the background., f 29;
#X floatatom 231 231 5 0 0 0 - - - 0;
#X obj 292 86 loadbang;
#X msg 292 110 0.01;
#X connect 0 0 1 0;
#X connect 0 0 9 0;
#X connect 1 0 2 0;
#X connect 1 0 7 0;
#X connect 2 0 4 0;
#X connect 3 0 0 0;
#X connect 5 0 3 0;
#X connect 10 0 11 0;
#X connect 11 0 0 1;
#X coords 0 -1 1 1 54 18 2 150 100;
#X restore 187 118 pd discrete;
#X floatatom 300 365 5 0 0 0 - - - 0;
#X floatatom 260 365 5 0 0 0 - - - 0;
#X obj 320 276 scale -100 100 0 1;
#X obj 260 341 -;
#X msg 225 310 1, f 1;
#X obj 225 289 loadbang;
#X obj 246 310 t b f;
#X obj 111 412 *~;
#X obj 172 414 *~;
#X obj 54 453 outlet~;
#X text 48 475 original;
#X obj 3 76 s~ \$0-input;
#X obj 54 381 r~ \$0-input;
#X obj 424 236 dac~;
#X msg 412 78 0;
#X obj 411 51 loadbang;
#X obj 229 66 pack f f f;
#X obj 304 66 pack f f f;
#X obj 412 102 bng 19 250 50 0 empty empty empty 0 -10 0 12 #fcfcfc #000000 #000000;
#X msg 412 126 1;
#X obj 412 150 bng 19 250 50 0 empty empty empty 0 -10 0 12 #fcfcfc #000000 #000000;
#X msg 412 174 0;
#X obj 227 38 unpack f f f f f f f;
#X text 287 11 Pan // Left D/F/LP // Right D/F/LP;
#X connect 0 0 5 0;
#X connect 0 0 22 0;
#X connect 0 0 4 0;
#X connect 4 1 18 0;
#X connect 5 1 19 0;
#X connect 8 0 33 0;
#X connect 10 0 13 0;
#X connect 11 0 17 0;
#X connect 11 0 19 1;
#X connect 12 0 18 1;
#X connect 13 0 11 0;
#X connect 14 0 12 0;
#X connect 15 0 14 0;
#X connect 16 0 15 0;
#X connect 17 0 14 0;
#X connect 17 1 14 1;
#X connect 18 0 1 0;
#X connect 19 0 2 0;
#X connect 23 0 20 0;
#X connect 25 0 10 0;
#X connect 25 0 29 0;
#X connect 26 0 25 0;
#X connect 27 0 4 1;
#X connect 28 0 5 1;
#X connect 29 0 30 0;
#X connect 30 0 10 0;
#X connect 30 0 31 0;
#X connect 31 0 32 0;
#X connect 32 0 10 0;
#X connect 33 0 10 0;
#X connect 33 1 27 0;
#X connect 33 2 27 1;
#X connect 33 3 27 2;
#X connect 33 4 28 0;
#X connect 33 5 28 1;
#X connect 33 6 28 2;
#X coords 0 -1 1 1 233 91 2 100 100;
