#N canvas 286 286 3440 1357 12;
#X obj 706 179 unpack f f f f f;
#X obj 815 199 t b f;
#X obj 731 459 line~;
#X msg 780 347 0 15;
#X obj 740 330 delay;
#X obj 737 364 f;
#X msg 737 388 1 \$1;
#X obj 712 493 *~;
#X floatatom 652 176 5 0 0 0 - - - 0;
#X obj 652 205 osc~;
#X obj 727 252 adsr;
#X obj 711 222 pack f f f f f;
#X obj 665 321 *~;
#X obj 712 587 outlet~;
#X obj 712 529 lop~ 100;
#X obj 108 136 adsrui;
#X floatatom 162 104 5 0 0 0 - - - 0;
#X obj 115 51 inlet;
#X obj 915 521 outlet;
#X obj 371 31 inlet;
#X obj 425 108 pack f f f f f;
#X obj 372 55 unpack f f f f f f;
#X connect 0 0 4 1;
#X connect 0 0 5 1;
#X connect 0 0 11 0;
#X connect 0 1 11 1;
#X connect 0 2 11 2;
#X connect 0 3 11 3;
#X connect 0 4 1 0;
#X connect 0 4 11 4;
#X connect 1 0 3 0;
#X connect 1 0 4 0;
#X connect 2 0 7 1;
#X connect 3 0 2 0;
#X connect 4 0 5 0;
#X connect 5 0 6 0;
#X connect 6 0 2 0;
#X connect 7 0 14 0;
#X connect 8 0 9 0;
#X connect 9 0 12 0;
#X connect 10 0 12 1;
#X connect 11 0 10 0;
#X connect 12 0 7 0;
#X connect 14 0 13 0;
#X connect 15 1 0 0;
#X connect 15 1 18 0;
#X connect 16 0 8 0;
#X connect 17 0 15 0;
#X connect 19 0 21 0;
#X connect 20 0 15 1;
#X connect 21 0 16 0;
#X connect 21 1 20 0;
#X connect 21 2 20 1;
#X connect 21 3 20 2;
#X connect 21 4 20 3;
#X connect 21 5 20 4;
#X coords 0 -1 1 1 275 211 1 100 100;
