#N canvas 1563 583 3440 1357 12;
#X obj 39 33 inlet;
#X obj 39 62 t b f;
#X obj 39 160 outlet;
#X text 80 31 Handler for harmonic clone;
#X obj 39 84 f \$1;
#X obj 39 138 pack f f f;
#X obj 106 85 inlet;
#X obj 329 68 f \$1;
#X floatatom 329 92 5 0 0 0 - - - 0;
#X obj 329 115 + 1;
#X msg 287 106 2;
#X obj 311 139 pow;
#X floatatom 311 160 5 0 0 0 - - - 0;
#X obj 287 27 lb, f 4;
#X obj 134 119 *;
#X obj 272 66 delay 1;
#X connect 0 0 1 0;
#X connect 1 0 4 0;
#X connect 1 1 5 1;
#X connect 4 0 5 0;
#X connect 5 0 2 0;
#X connect 6 0 14 0;
#X connect 7 0 8 0;
#X connect 8 0 9 0;
#X connect 9 0 11 1;
#X connect 10 0 11 0;
#X connect 11 0 12 0;
#X connect 12 0 14 1;
#X connect 13 0 7 0;
#X connect 13 0 15 0;
#X connect 14 0 5 2;
#X connect 15 0 10 0;
