#N canvas 26 26 3440 1357 12;
#X obj 78 83 random 81;
#X obj 78 107 + 50;
#X floatatom 78 131 5 0 0 0 - - - 0;
#X obj 78 61 metro 200;
#X obj 78 176 metro;
#X obj 78 154 t b f;
#X obj 78 200 bng 19 250 50 0 empty empty empty 0 -10 0 12 #fcfcfc #000000 #000000;
#X obj 78 40 lb;
#X obj 156 61 f \$1;
#X obj 156 40 lb;
#X obj 78 224 outlet;
#X obj 268 90 inlet;
#X floatatom 391 148 5 0 0 0 - - - 0;
#X obj 268 138 bng 19 250 50 0 empty empty empty 0 -10 0 12 #fcfcfc #000000 #000000;
#X obj 268 114 route stop bang;
#X obj 319 142 bng 19 250 50 0 empty empty empty 0 -10 0 12 #fcfcfc #000000 #000000;
#X msg 266 162 stop;
#X text 252 34 Creates a random metro up to the bpm \$1 (exclusive) Inlet: Minimum bpm. Default: 50;
#X connect 0 0 1 0;
#X connect 1 0 2 0;
#X connect 2 0 5 0;
#X connect 3 0 0 0;
#X connect 4 0 6 0;
#X connect 5 0 4 0;
#X connect 5 1 4 1;
#X connect 6 0 10 0;
#X connect 7 0 3 0;
#X connect 8 0 0 1;
#X connect 9 0 8 0;
#X connect 11 0 14 0;
#X connect 12 0 1 1;
#X connect 13 0 16 0;
#X connect 14 0 13 0;
#X connect 14 1 15 0;
#X connect 14 2 12 0;
#X connect 15 0 3 0;
#X connect 15 0 4 0;
#X connect 16 0 3 0;
#X connect 16 0 4 0;
