#N canvas -856 566 3440 1357 12;
#X obj 7 14 inlet;
#X floatatom 80 479 5 0 0 0 - - \$0-max 0;
#X floatatom 81 64 5 0 0 0 - - \$0-in 0;
#X obj 196 85 outlet;
#X obj 80 383 f;
#X floatatom 196 62 5 0 0 0 - \$0-max - 0;
#X floatatom 137 221 5 0 0 0 - \$0-max - 0;
#X floatatom 83 9 5 0 0 0 - - - 0;
#X msg 124 8 reset;
#X obj 7 64 bng 19 250 50 0 \$0-reset empty empty 0 -10 0 12 #fcfcfc #000000 #000000;
#X obj 80 293 spigot;
#X text 191 11 INLET:;
#X text 241 11 1) Number to be compared 2) "reset" message;
#X obj 90 324 bng 19 250 50 0 empty \$0-reset empty 0 -10 0 12 #fcfcfc #000000 #000000;
#X floatatom 119 200 5 0 0 0 - \$0-in - 0;
#X text 179 197 Input;
#X floatatom 13 114 5 0 0 0 - \$0-in - 0;
#X obj 13 137 t b f;
#X obj 13 162 delay 5;
#X obj 13 186 pack f f;
#X obj 13 210 unpack f f;
#X text 83 140 Won't work without a little delay \, to compensate for comparison;
#X obj 307 299 lb;
#X obj 379 293 bng 19 250 50 0 empty empty empty 0 -10 0 12 #fcfcfc #000000 #000000;
#X obj 80 431 line~;
#X obj 80 455 snapshot~;
#X obj 197 449 bng 19 250 50 0 empty empty empty 0 -10 0 12 #fcfcfc #000000 #000000;
#X floatatom 13 234 5 0 0 0 - - - 0;
#X floatatom 23 265 5 0 0 0 - - - 0;
#X obj 119 267 tgl 19 0 empty empty empty 0 -10 0 12 #fcfcfc #000000 #000000 0 1;
#X obj 307 322 metro 100;
#X obj 7 41 route reset;
#X msg 80 407 \$1 200;
#X obj 119 243 <;
#X obj 113 324 lb;
#X text 179 221 Current Min;
#X text 111 383 current min;
#X floatatom 147 331 5 0 0 0 - \$0-in - 0;
#X obj 147 354 f;
#X obj 90 346 delay 1;
#X connect 0 0 31 0;
#X connect 4 0 32 0;
#X connect 5 0 3 0;
#X connect 6 0 33 1;
#X connect 7 0 31 0;
#X connect 8 0 31 0;
#X connect 10 0 4 0;
#X connect 13 0 39 0;
#X connect 14 0 33 0;
#X connect 16 0 17 0;
#X connect 17 0 18 0;
#X connect 17 1 19 1;
#X connect 18 0 19 0;
#X connect 19 0 20 0;
#X connect 20 0 27 0;
#X connect 20 1 10 0;
#X connect 20 1 28 0;
#X connect 22 0 30 0;
#X connect 23 0 30 0;
#X connect 24 0 25 0;
#X connect 25 0 1 0;
#X connect 26 0 25 0;
#X connect 29 0 10 1;
#X connect 30 0 26 0;
#X connect 31 0 9 0;
#X connect 31 1 2 0;
#X connect 32 0 24 0;
#X connect 33 0 29 0;
#X connect 34 0 39 0;
#X connect 37 0 38 1;
#X connect 38 0 4 0;
#X connect 39 0 38 0;
