#N canvas 96 96 1920 976 12;
#X msg 14 112 2;
#X text 63 37 midi A = 69 -> 440hz;
#X obj 15 40 -~ 69;
#X obj 15 64 /~ 12;
#X obj 14 92 loadbang;
#X obj 14 156 pow~;
#X obj 14 179 *~ 440;
#X obj 14 203 outlet~;
#X obj 15 16 inlet~;
#X obj 14 132 sig~;
#X connect 0 0 9 0;
#X connect 2 0 3 0;
#X connect 3 0 5 1;
#X connect 4 0 0 0;
#X connect 5 0 6 0;
#X connect 6 0 7 0;
#X connect 8 0 2 0;
#X connect 9 0 5 0;
