#N canvas 97 23 1130 755 10;
#X obj 129 272 line~;
#X msg 129 231 0;
#X obj 129 330 exp~;
#X obj 106 7 inlet;
#X obj 106 35 route bang float, f 18;
#X obj 129 356 outlet~;
#X obj 32 104 float \$1;
#X obj 32 126 select 0;
#X obj 129 305 /~;
#X text 56 148 default;
#X msg 285 108 0.001;
#X obj 287 131 log;
#X obj 158 61 t b f b;
#X obj 106 61 t b b b;
#X obj 169 230 pack;
#X obj 215 200 * 1000;
#X obj 169 203 * -1;
#X obj 169 176 float;
#X msg 32 147 1;
#X text 302 46 given t60 \, find the tau;
#X text 300 64 tau = -t60/log(0.001);
#X floatatom 183 115 5 0 0 0 - - -;
#X text 215 113 t60;
#X obj 272 175 /;
#X obj 254 140 * -1;
#X floatatom 272 202 5 0 0 0 - - -;
#X text 302 201 tau;
#X text 163 268 -t;
#X connect 0 0 8 0;
#X connect 1 0 0 0;
#X connect 2 0 5 0;
#X connect 3 0 4 0;
#X connect 4 0 13 0;
#X connect 4 1 12 0;
#X connect 6 0 7 0;
#X connect 7 0 18 0;
#X connect 7 1 21 0;
#X connect 8 0 2 0;
#X connect 10 0 11 0;
#X connect 11 0 23 1;
#X connect 12 0 17 0;
#X connect 12 1 21 0;
#X connect 12 2 10 0;
#X connect 12 2 1 0;
#X connect 13 0 17 0;
#X connect 13 1 6 0;
#X connect 13 2 10 0;
#X connect 13 2 1 0;
#X connect 14 0 0 0;
#X connect 15 0 14 1;
#X connect 16 0 14 0;
#X connect 17 0 16 0;
#X connect 18 0 21 0;
#X connect 21 0 24 0;
#X connect 21 0 17 1;
#X connect 21 0 15 0;
#X connect 23 0 25 0;
#X connect 24 0 23 0;
#X connect 25 0 8 1;
