#N canvas 124 285 621 687 10;
#X obj 191 30 inlet;
#X text 228 31 fc \, fm \, Imax \, dur;
#X obj 190 64 unpack f f f f;
#X obj 217 119 osc~;
#X obj 217 169 *~;
#X obj 175 202 +~;
#X obj 175 235 osc~;
#X text 202 235 carrier;
#X text 249 121 modulator;
#X text 411 117 d = I*fm;
#X obj 388 121 *;
#X obj 327 122 myexpt60;
#X obj 327 143 *~;
#X obj 115 234 myexpt60;
#X obj 160 273 *~;
#X obj 162 304 outlet~;
#X connect 0 0 2 0;
#X connect 2 0 5 1;
#X connect 2 1 3 0;
#X connect 2 1 10 0;
#X connect 2 2 10 1;
#X connect 2 3 11 0;
#X connect 2 3 13 0;
#X connect 3 0 4 0;
#X connect 4 0 5 0;
#X connect 5 0 6 0;
#X connect 6 0 14 1;
#X connect 10 0 12 1;
#X connect 11 0 12 0;
#X connect 12 0 4 1;
#X connect 13 0 14 0;
#X connect 14 0 15 0;
