#N canvas 183 23 1051 755 10;
#X obj 191 30 inlet;
#X text 228 31 fc \, fm \, Imax \, dur;
#X obj 190 64 unpack f f f f;
#X obj 227 181 osc~;
#X obj 230 228 *~;
#X obj 208 262 +~;
#X obj 215 300 osc~;
#X text 242 300 carrier;
#X text 256 179 modulator;
#X text 404 175 d = I*fm;
#X obj 381 179 *;
#X obj 325 201 *~;
#X obj 218 340 *~;
#X obj 218 354 outlet~;
#X obj 271 88 * 1000;
#X text 315 88 ms;
#X obj 125 180 myasr2;
#X obj 325 180 myasr2;
#X msg 272 142 100 \$1 100;
#X obj 273 116 - 200;
#X obj 125 131 - 300;
#X msg 124 155 150 \$1 150;
#X connect 0 0 2 0;
#X connect 2 0 5 1;
#X connect 2 1 3 0;
#X connect 2 1 10 0;
#X connect 2 2 10 1;
#X connect 2 3 14 0;
#X connect 3 0 4 0;
#X connect 4 0 5 0;
#X connect 5 0 6 0;
#X connect 6 0 12 1;
#X connect 10 0 11 1;
#X connect 11 0 4 1;
#X connect 12 0 13 0;
#X connect 14 0 19 0;
#X connect 14 0 20 0;
#X connect 16 0 12 0;
#X connect 17 0 11 0;
#X connect 18 0 17 0;
#X connect 19 0 18 0;
#X connect 20 0 21 0;
#X connect 21 0 16 0;
