#N canvas 1713 0 1718 1348 12;
#X obj 48 128 inlet~;
#X obj 83 234 bng 19 250 50 0 empty empty empty 0 -10 0 12 #fcfcfc #000000 #000000;
#X obj 83 211 lb;
#X obj 66 347 maxtotal;
#X obj 48 422 /~;
#X obj 48 469 *~;
#X obj 169 401 f \$1;
#X obj 169 423 == 0;
#X obj 169 379 lb;
#X obj 169 445 tgl 19 0 empty empty empty 0 -10 0 12 #fcfcfc #000000 #000000 0 1;
#X obj 130 466 spigot;
#X msg 130 425 1;
#X floatatom 130 446 5 0 0 0 - - - 0;
#X msg 48 99 0;
#X obj 48 48 lb;
#X text 116 131 Ensures the audio level stays under \$1;
#X floatatom 66 371 5 0 0 0 - - - 0;
#X obj 83 282 snap;
#X obj 292 171 inlet;
#X msg 292 195 reset;
#X text 339 170 reset max;
#X obj 83 256 metrorand 80;
#X msg 166 204 20;
#X obj 129 347 mintotal;
#X floatatom 129 371 5 0 0 0 - - - 0;
#X obj 48 446 -~ 0;
#X obj 109 395 /;
#X obj 459 370 bng 19 250 50 0 empty empty empty 0 -10 0 12 #fcfcfc #000000 #000000;
#X obj 459 347 lb;
#X obj 459 418 snap;
#X obj 459 392 metrorand 80;
#X msg 542 340 20;
#X obj 459 465 maxtotal;
#X floatatom 459 489 5 0 0 0 - - - 0;
#X obj 459 512 t b f;
#X msg 459 536 1;
#X obj 459 560 /;
#X floatatom 459 584 5 0 0 0 - - - 0;
#X obj 459 607 *~;
#X obj 459 654 outlet~;
#X obj 613 452 > 1;
#X obj 613 476 tgl 19 0 empty empty empty 0 -10 0 12 #fcfcfc #000000 #000000 0 1;
#X obj 586 519 spigot;
#X msg 568 492 reset;
#X msg 357 367 reset;
#X obj 292 268 bng 19 250 50 0 empty empty empty 0 -10 0 12 #fcfcfc #000000 #000000;
#X obj 292 219 bng 19 250 50 0 empty empty empty 0 -10 0 12 #fcfcfc #000000 #000000;
#X obj 459 631 hip~ 1;
#X floatatom 90 424 5 0 0 0 - - - 0;
#X obj 292 244 delay 50;
#X connect 0 0 17 0;
#X connect 0 0 4 0;
#X connect 1 0 21 0;
#X connect 2 0 1 0;
#X connect 2 0 22 0;
#X connect 3 0 4 1;
#X connect 3 0 16 0;
#X connect 4 0 25 0;
#X connect 5 0 47 0;
#X connect 6 0 7 0;
#X connect 6 0 5 1;
#X connect 7 0 9 0;
#X connect 8 0 6 0;
#X connect 8 0 11 0;
#X connect 9 0 10 1;
#X connect 10 0 5 1;
#X connect 11 0 12 0;
#X connect 12 0 10 0;
#X connect 13 0 0 0;
#X connect 14 0 13 0;
#X connect 16 0 26 1;
#X connect 17 0 3 0;
#X connect 17 0 23 0;
#X connect 18 0 19 0;
#X connect 19 0 46 0;
#X connect 21 0 17 1;
#X connect 22 0 21 0;
#X connect 23 0 24 0;
#X connect 24 0 26 0;
#X connect 25 0 5 0;
#X connect 26 0 25 1;
#X connect 26 0 48 0;
#X connect 27 0 30 0;
#X connect 28 0 27 0;
#X connect 28 0 31 0;
#X connect 29 0 32 0;
#X connect 30 0 29 1;
#X connect 30 0 43 0;
#X connect 31 0 30 0;
#X connect 32 0 33 0;
#X connect 33 0 34 0;
#X connect 33 0 40 0;
#X connect 34 0 35 0;
#X connect 34 1 36 1;
#X connect 35 0 36 0;
#X connect 36 0 37 0;
#X connect 37 0 38 1;
#X connect 38 0 47 0;
#X connect 40 0 41 0;
#X connect 41 0 42 1;
#X connect 42 0 32 0;
#X connect 43 0 42 0;
#X connect 44 0 32 0;
#X connect 44 0 3 0;
#X connect 44 0 23 0;
#X connect 45 0 44 0;
#X connect 46 0 49 0;
#X connect 47 0 39 0;
#X connect 49 0 45 0;
