#N canvas 952 0 958 966 12;
#X obj 24 17 inlet;
#X floatatom 75 168 5 0 0 0 - - - 0;
#X text 118 169 bpm;
#X obj 24 143 t b f;
#X msg 24 167 60000;
#X obj 24 191 /;
#X floatatom 24 215 5 0 0 0 - - - 0;
#X text 69 215 ms;
#X obj 24 238 t b f;
#X obj 24 262 metro;
#X obj 24 286 outlet;
#X obj 128 16 inlet;
#X obj 24 115 float \$1;
#X obj 128 40 t b f;
#X msg 241 165 stop;
#X obj 27 70 bng 15 250 50 0 empty empty empty 17 7 0 10 #fcfcfc #000000
#000000;
#X obj 51 71 bng 15 250 50 0 empty empty empty 17 7 0 10 #fcfcfc #000000
#000000;
#X obj 24 41 route stop;
#X connect 0 0 17 0;
#X connect 1 0 5 1;
#X connect 3 0 4 0;
#X connect 3 1 1 0;
#X connect 4 0 5 0;
#X connect 5 0 6 0;
#X connect 6 0 8 0;
#X connect 8 0 9 0;
#X connect 8 1 9 1;
#X connect 9 0 10 0;
#X connect 11 0 13 0;
#X connect 12 0 3 0;
#X connect 13 0 12 0;
#X connect 13 1 12 1;
#X connect 14 0 9 0;
#X connect 15 0 14 0;
#X connect 16 0 12 0;
#X connect 17 0 15 0;
#X connect 17 1 16 0;
