#N canvas 405 5 1344 966 12;
#X obj 40 16 inlet;
#N canvas 0 50 450 250 (subpatch) 0;
#X array \$0-buffer 26501 float 2;
#X coords 0 1 26501 -1 200 140 1 0 0;
#X restore 698 83 graph;
#X obj 40 181 soundfiler;
#X floatatom 40 205 7 0 0 0 - - - 0;
#X floatatom 107 205 5 0 0 0 - - - 0;
#X obj 103 236 /;
#X text 134 235 sample dur;
#X obj 96 16 inlet;
#X text 151 16 dur;
#X floatatom 177 93 5 0 0 0 - - \$0-speed 0;
#X obj 568 325 tabread4~ \$0-buffer;
#X obj 103 260 * 1000;
#X text 155 259 in ms;
#X floatatom 40 228 7 0 0 0 - - \$0-nsamples 0;
#X obj 96 69 unpack f f f;
#X floatatom 137 93 5 0 0 0 - - \$0-env_shape 0;
#X obj 475 163 bng 15 250 50 0 empty empty empty 17 7 0 10 #fcfcfc
#000000 #000000;
#X obj 475 530 outlet~;
#X obj 96 93 bng 15 250 50 0 \$0-act empty empty 17 7 0 10 #fcfcfc
#000000 #000000;
#X obj 457 139 bng 15 250 50 0 empty \$0-act empty 17 7 0 10 #fcfcfc
#000000 #000000;
#X obj 475 183 t b b;
#X obj 475 207 f;
#X msg 475 231 1 \, 0 \$1;
#X obj 475 255 line~;
#X obj 475 296 pow~;
#X floatatom 517 255 5 0 0 0 - \$0-env_shape - 0;
#X obj 220 27 loadbang;
#X msg 220 51 0.2;
#X msg 256 51 1;
#X obj 517 278 sig~ 1;
#X obj 475 335 *~;
#X floatatom 154 292 5 0 0 0 - \$0-speed - 0;
#X obj 154 315 t b b f;
#X obj 154 339 / 1;
#X obj 154 363 s \$0-speed_inv;
#X obj 586 182 r \$0-speed_inv;
#X obj 568 220 f;
#X msg 568 244 0 \, 1 \$1;
#X obj 568 268 line~;
#X obj 568 292 *~;
#X obj 41 295 s \$0-sample_ms;
#X obj 617 267 r \$0-sample_ms;
#X listbox 15 61 10 0 0 0 - - - 0;
#X msg 40 157 read -resize \$1 \$2-buffer;
#X obj 19 128 pack s f;
#X obj 60 106 f \$0;
#X obj 15 84 t s b;
#X text 301 52 Dur | Speed;
#X obj 40 40 symbol;
#X connect 0 0 48 0;
#X connect 2 0 3 0;
#X connect 2 1 4 0;
#X connect 3 0 5 0;
#X connect 3 0 13 0;
#X connect 4 0 5 1;
#X connect 5 0 11 0;
#X connect 7 0 14 0;
#X connect 10 0 30 1;
#X connect 11 0 33 0;
#X connect 11 0 40 0;
#X connect 14 0 18 0;
#X connect 14 1 15 0;
#X connect 14 2 9 0;
#X connect 16 0 20 0;
#X connect 19 0 16 0;
#X connect 20 0 21 0;
#X connect 20 1 36 0;
#X connect 21 0 22 0;
#X connect 22 0 23 0;
#X connect 23 0 24 0;
#X connect 24 0 30 0;
#X connect 25 0 29 0;
#X connect 26 0 27 0;
#X connect 26 0 28 0;
#X connect 27 0 15 0;
#X connect 28 0 9 0;
#X connect 29 0 24 1;
#X connect 30 0 17 0;
#X connect 31 0 32 0;
#X connect 32 0 33 0;
#X connect 32 2 33 1;
#X connect 33 0 34 0;
#X connect 35 0 36 1;
#X connect 35 0 21 1;
#X connect 36 0 37 0;
#X connect 37 0 38 0;
#X connect 38 0 39 0;
#X connect 39 0 10 0;
#X connect 41 0 39 1;
#X connect 42 0 46 0;
#X connect 43 0 2 0;
#X connect 44 0 43 0;
#X connect 45 0 44 1;
#X connect 46 0 44 0;
#X connect 46 1 45 0;
#X connect 48 0 42 0;
#X coords 0 483 1 482 75 170 0;
