#N canvas 160 160 1920 976 12;
#X obj 501 500 kicksampler 100;
#X obj 620 500 tgl 95 0 empty empty empty 17 7 0 10 #c6feff #03008e
#2f004d 0 1;
#X obj 715 500 tgl 95 0 empty empty empty 17 7 0 10 #c6feff #03008e
#2f004d 0 1;
#X obj 810 500 tgl 95 0 empty empty empty 17 7 0 10 #c6feff #03008e
#2f004d 0 1;
#X obj 905 500 tgl 95 0 empty empty empty 17 7 0 10 #c6feff #03008e
#2f004d 0 1;
#X obj 1000 500 tgl 95 0 empty empty empty 17 7 0 10 #c6feff #03008e
#2f004d 0 1;
#X obj 1095 500 tgl 95 0 empty empty empty 17 7 0 10 #c6feff #03008e
#2f004d 0 1;
#X obj 1190 500 tgl 95 0 empty empty empty 17 7 0 10 #c6feff #03008e
#2f004d 0 1;
#X obj 1285 500 tgl 95 0 empty empty empty 17 7 0 10 #c6feff #03008e
#2f004d 0 1;
#X obj 250 146 inlet;
#X obj 620 594 tgl 95 0 empty empty empty 17 7 0 10 #c6feff #03008e
#2f004d 0 1;
#X obj 715 594 tgl 95 0 empty empty empty 17 7 0 10 #c6feff #03008e
#2f004d 0 1;
#X obj 810 594 tgl 95 0 empty empty empty 17 7 0 10 #c6feff #03008e
#2f004d 0 1;
#X obj 905 594 tgl 95 0 empty empty empty 17 7 0 10 #c6feff #03008e
#2f004d 0 1;
#X obj 1000 594 tgl 95 0 empty empty empty 17 7 0 10 #c6feff #03008e
#2f004d 0 1;
#X obj 1095 594 tgl 95 0 empty empty empty 17 7 0 10 #c6feff #03008e
#2f004d 0 1;
#X obj 1190 594 tgl 95 0 empty empty empty 17 7 0 10 #c6feff #03008e
#2f004d 0 1;
#X obj 1285 594 tgl 95 0 empty empty empty 17 7 0 10 #c6feff #03008e
#2f004d 0 1;
#X floatatom 516 242 5 0 0 0 - - - 0;
#X floatatom 556 242 5 0 0 0 - - - 0;
#X floatatom 596 243 5 0 0 0 - - - 0;
#X floatatom 635 243 5 0 0 0 - - - 0;
#X floatatom 675 243 5 0 0 0 - - - 0;
#X floatatom 715 243 5 0 0 0 - - - 0;
#X floatatom 754 243 5 0 0 0 - - - 0;
#X floatatom 795 243 5 0 0 0 - - - 0;
#X floatatom 203 240 5 0 0 0 - - - 0;
#X floatatom 242 240 5 0 0 0 - - - 0;
#X floatatom 282 240 5 0 0 0 - - - 0;
#X floatatom 321 241 5 0 0 0 - - - 0;
#X floatatom 359 241 5 0 0 0 - - - 0;
#X floatatom 398 241 5 0 0 0 - - - 0;
#X floatatom 438 241 5 0 0 0 - - - 0;
#X floatatom 477 241 5 0 0 0 - - - 0;
#X obj 1148 301 inlet;
#X obj 1148 325 unpack f f f f f f f f f f f f f f f f;
#X obj 250 170 sel 1 2 3 4 5 6 7 8 9 10 11 12 13 14 15 16;
#X obj 203 270 f;
#X obj 203 294 sel 1;
#X obj 242 270 f;
#X obj 242 294 sel 1;
#X obj 281 270 f;
#X obj 281 294 sel 1;
#X obj 320 270 f;
#X obj 320 294 sel 1;
#X obj 359 270 f;
#X obj 359 294 sel 1;
#X obj 398 270 f;
#X obj 398 294 sel 1;
#X obj 437 270 f;
#X obj 437 294 sel 1;
#X obj 476 270 f;
#X obj 476 294 sel 1;
#X obj 515 270 f;
#X obj 515 294 sel 1;
#X obj 554 270 f;
#X obj 554 294 sel 1;
#X obj 593 270 f;
#X obj 593 294 sel 1;
#X obj 632 270 f;
#X obj 632 294 sel 1;
#X obj 671 270 f;
#X obj 671 294 sel 1;
#X obj 710 270 f;
#X obj 710 294 sel 1;
#X obj 749 270 f;
#X obj 749 294 sel 1;
#X obj 788 270 f;
#X obj 788 294 sel 1;
#X msg 471 83 16;
#X msg 516 80 17;
#X connect 1 0 26 0;
#X connect 2 0 27 0;
#X connect 3 0 28 0;
#X connect 4 0 29 0;
#X connect 5 0 30 0;
#X connect 6 0 31 0;
#X connect 7 0 32 0;
#X connect 8 0 33 0;
#X connect 9 0 36 0;
#X connect 10 0 18 0;
#X connect 11 0 19 0;
#X connect 12 0 20 0;
#X connect 13 0 21 0;
#X connect 14 0 22 0;
#X connect 15 0 23 0;
#X connect 16 0 24 0;
#X connect 17 0 25 0;
#X connect 18 0 53 1;
#X connect 19 0 55 1;
#X connect 20 0 57 1;
#X connect 21 0 59 1;
#X connect 22 0 61 1;
#X connect 23 0 63 1;
#X connect 24 0 65 1;
#X connect 25 0 67 1;
#X connect 26 0 37 1;
#X connect 27 0 39 1;
#X connect 28 0 41 1;
#X connect 29 0 43 1;
#X connect 30 0 45 1;
#X connect 31 0 47 1;
#X connect 32 0 49 1;
#X connect 33 0 51 1;
#X connect 34 0 35 0;
#X connect 35 0 1 0;
#X connect 35 1 2 0;
#X connect 35 2 3 0;
#X connect 35 3 4 0;
#X connect 35 4 5 0;
#X connect 35 5 6 0;
#X connect 35 6 7 0;
#X connect 35 7 8 0;
#X connect 35 8 10 0;
#X connect 35 9 11 0;
#X connect 35 10 12 0;
#X connect 35 11 13 0;
#X connect 35 12 14 0;
#X connect 35 13 15 0;
#X connect 35 14 16 0;
#X connect 35 15 17 0;
#X connect 36 0 37 0;
#X connect 36 1 39 0;
#X connect 36 2 41 0;
#X connect 36 3 43 0;
#X connect 36 4 45 0;
#X connect 36 5 47 0;
#X connect 36 6 49 0;
#X connect 36 7 51 0;
#X connect 36 8 53 0;
#X connect 36 9 55 0;
#X connect 36 10 57 0;
#X connect 36 11 59 0;
#X connect 36 12 61 0;
#X connect 36 13 63 0;
#X connect 36 14 65 0;
#X connect 36 15 67 0;
#X connect 37 0 38 0;
#X connect 38 0 0 0;
#X connect 39 0 40 0;
#X connect 40 0 0 0;
#X connect 41 0 42 0;
#X connect 42 0 0 0;
#X connect 43 0 44 0;
#X connect 44 0 0 0;
#X connect 45 0 46 0;
#X connect 46 0 0 0;
#X connect 47 0 48 0;
#X connect 48 0 0 0;
#X connect 49 0 50 0;
#X connect 50 0 0 0;
#X connect 51 0 52 0;
#X connect 52 0 0 0;
#X connect 53 0 54 0;
#X connect 54 0 0 0;
#X connect 55 0 56 0;
#X connect 56 0 0 0;
#X connect 57 0 58 0;
#X connect 58 0 0 0;
#X connect 59 0 60 0;
#X connect 60 0 0 0;
#X connect 61 0 62 0;
#X connect 62 0 0 0;
#X connect 63 0 64 0;
#X connect 64 0 0 0;
#X connect 65 0 66 0;
#X connect 66 0 0 0;
#X connect 67 0 68 0;
#X connect 68 0 0 0;
#X connect 69 0 36 0;
#X connect 70 0 36 0;
#X coords 0 -1 1 1 880 190 1 500 500;
