#N canvas -8 0 1920 976 12;
#X obj 134 100 bng 100 50 10 0 \$0-sampleact empty Kick 21 50 0 25
#03008e #c6feff #ffffff;
#X obj 115 100 vradio 20 1 0 5 \$0-sampleselect empty empty 0 -8 0
10 #131255 #c6feff #000000 0;
#X floatatom 8 371 5 0 0 0 - \$0-sampleselect - 0;
#X obj 8 392 select 0 1 2 3 4;
#X msg 8 422 0, f 1;
#X msg 30 422 1, f 1;
#X msg 51 421 2, f 1;
#X msg 73 421 3, f 1;
#X msg 95 421 4, f 1;
#X floatatom 51 455 2 0 0 0 - - \$0-samplecur 0;
#X floatatom 477 27 2 0 0 0 - \$0-samplecur - 0;
#X obj 459 52 f 0;
#X obj 459 25 bng 15 250 50 0 empty \$0-sampleact empty 17 7 0 10 #fcfcfc
#000000 #000000;
#X floatatom 459 76 5 0 0 0 - - - 0;
#X msg 350 242 Kick-1.wav;
#X obj 350 220 loadbang;
#X obj 431 220 loadbang;
#X obj 511 220 loadbang;
#X obj 592 220 loadbang;
#X obj 673 220 loadbang;
#X obj 459 99 select 0 1 2 3 4;
#X obj 119 200 hsl 113 15 0 127 0 0 empty \$0-durinit DURATION 32 8
0 10 #03008e #c6feff #ffffff 0 1;
#X obj 119 215 hsl 113 15 12.7 127 1 0 empty \$0-pitchinit PITCH 40
8 0 10 #03008e #c6feff #ffffff 0 1;
#X obj 11 307 scale 0 127 0.1 3;
#X floatatom 11 331 5 0 0 0 - - \$0-inputdur 0;
#X floatatom 157 364 5 0 0 0 - - \$0-inputspeed 0;
#X floatatom 350 175 5 0 0 0 - \$0-inputdur - 0;
#X floatatom 390 175 5 0 0 0 - \$0-inputspeed - 0;
#X obj 350 198 pack f f f;
#X floatatom 431 175 5 0 0 0 - \$0-inputdur - 0;
#X floatatom 471 175 5 0 0 0 - \$0-inputspeed - 0;
#X obj 431 198 pack f f f;
#X floatatom 673 175 5 0 0 0 - \$0-inputdur - 0;
#X floatatom 713 175 5 0 0 0 - \$0-inputspeed - 0;
#X obj 673 198 pack f f f;
#X floatatom 511 175 5 0 0 0 - \$0-inputdur - 0;
#X floatatom 551 175 5 0 0 0 - \$0-inputspeed - 0;
#X obj 511 198 pack f f f;
#X floatatom 592 175 5 0 0 0 - \$0-inputdur - 0;
#X floatatom 632 175 5 0 0 0 - \$0-inputspeed - 0;
#X obj 592 198 pack f f f;
#X obj 119 230 hsl 113 15 0 1 0 0 \$0-inputpan \$0-paninit PAN 45 8
0 10 #03008e #c6feff #ffffff 0 1;
#X obj 217 35 loadbang;
#X obj 157 340 scale 0 127 0.5 5.5;
#X floatatom 217 76 5 0 0 0 - - \$0-pitchinit 0;
#X floatatom 258 76 5 0 0 0 - - \$0-durinit 0;
#X floatatom 298 76 5 0 0 0 - - \$0-paninit 0;
#X msg 258 56 63.5;
#X msg 298 56 0.5;
#X msg 431 242 Kick-2.wav;
#X msg 511 242 Kick-3.wav;
#X msg 592 242 Kick-4.wav;
#X msg 673 242 Kick-5.wav;
#X obj 592 565 +~;
#X floatatom 626 651 5 0 0 0 - \$0-inputpan - 0;
#X obj 591 702 dac~;
#X text 631 630 R;
#X obj 582 679 *~;
#X obj 608 679 *~;
#X floatatom 509 610 5 0 0 0 - \$0-inputpan - 0;
#X obj 509 633 - 1;
#X floatatom 509 657 5 0 0 0 - - - 0;
#X obj 509 680 * -1;
#X floatatom 509 704 5 0 0 0 - - - 0;
#X text 510 590 L;
#X obj 350 352 vum;
#X obj 431 352 vum;
#X obj 511 352 vum;
#X obj 592 352 vum;
#X obj 673 352 vum;
#X obj 357 673 myasr2;
#X obj 119 245 hsl 113 15 0 127 0 0 \$0-inputattack \$0-attackinit
ATTACK 37 8 0 10 #03008e #c6feff #ffffff 0 1;
#X obj 119 260 hsl 113 15 0 127 0 0 \$0-inputsus \$0-susinit SUSTAIN
34 8 0 10 #03008e #c6feff #ffffff 0 1;
#X obj 119 275 hsl 113 15 0 127 0 0 \$0-inputrelease \$0-releaseinit
RELEASE 34 8 0 10 #03008e #c6feff #ffffff 0 1;
#X obj 247 104 loadbang;
#X floatatom 247 145 5 0 0 0 - - \$0-attackinit 0;
#X floatatom 288 145 5 0 0 0 - - \$0-susinit 0;
#X floatatom 328 145 5 0 0 0 - - \$0-releaseinit 0;
#X msg 288 125 63.5;
#X msg 247 125 63.5;
#X msg 328 125 63.5;
#X floatatom 164 534 5 0 0 0 - \$0-inputattack - 0;
#X floatatom 203 534 5 0 0 0 - \$0-inputsus - 0;
#X floatatom 241 534 5 0 0 0 - \$0-inputrelease - 0;
#X floatatom 369 762 5 0 0 0 - \$0-inputdur - 0;
#X obj 87 570 scale 0 127 0 1;
#X obj 198 570 scale 0 127 0 1;
#X obj 309 570 scale 0 127 0 1;
#X floatatom 87 594 5 0 0 0 - - - 0;
#X floatatom 198 594 5 0 0 0 - - - 0;
#X floatatom 309 594 5 0 0 0 - - - 0;
#X text 198 514 A S R;
#X obj 87 617 t b f;
#X obj 198 617 t b f;
#X obj 309 617 t b f;
#X obj 148 646 +;
#X floatatom 148 670 5 0 0 0 - - - 0;
#X obj 216 674 +;
#X floatatom 216 698 5 0 0 0 - - - 0;
#X obj 169 748 /;
#X obj 281 748 /;
#X obj 216 721 t b f;
#X obj 221 749 /;
#X floatatom 281 772 5 0 0 0 - - - 0;
#X floatatom 221 773 5 0 0 0 - - - 0;
#X floatatom 169 772 5 0 0 0 - - - 0;
#X text 343 744 Normalized values;
#X obj 350 265 buffer;
#X obj 431 265 buffer;
#X obj 511 265 buffer;
#X obj 592 265 buffer;
#X obj 673 265 buffer;
#X obj 34 28 key;
#X obj 34 52 sel 100;
#X obj 100 6 loadbang;
#X obj 100 30 f \$1;
#X floatatom 163 73 5 0 0 0 - - - 0;
#X msg 168 38 100;
#X floatatom 805 301 5 0 0 0 - - - 0;
#X msg 699 330 0 10 \$1;
#X floatatom 806 252 5 0 0 0 - - - 0;
#X msg 618 330 0 20 \$1;
#X obj 806 228 scale 0.1 3 5 20;
#X floatatom 807 206 5 0 0 0 - - - 0;
#X msg 537 330 0 35 \$1;
#X obj 807 182 scale 0.1 3 5 35;
#X floatatom 807 159 5 0 0 0 - - - 0;
#X msg 543 300 20;
#X msg 457 330 0 10 \$1;
#X msg 376 330 0 10 \$1;
#X obj 807 135 scale 0.1 3 1.6 6;
#X msg 483 306 3.8;
#X msg 643 305 12.5;
#X floatatom 809 112 5 0 0 0 - - - 0;
#X msg 402 306 3;
#X obj 809 88 scale 0.1 3 2 5;
#X obj 805 277 scale 0.1 3 1.3 5.5;
#X msg 726 307 3.5;
#X obj 592 589 *~;
#X obj 204 930 pack f f f;
#X obj 204 954 s \$0-sampasr;
#X obj 654 529 r \$0-sampasr;
#X obj 97 913 bng 15 250 50 0 empty \$0-sampleact empty 17 7 0 10 #fcfcfc
#000000 #000000;
#X obj 174 902 f;
#X obj 227 903 f;
#X obj 273 901 f;
#X obj 654 553 myasr2;
#X obj 169 795 *;
#X obj 221 796 *;
#X obj 281 795 *;
#X obj 369 785 t b f;
#X floatatom 169 819 5 0 0 0 - - - 0;
#X floatatom 221 820 5 0 0 0 - - - 0;
#X floatatom 281 819 5 0 0 0 - - - 0;
#X obj 370 831 * 1000;
#X obj 169 842 * 1000;
#X obj 221 843 * 1000;
#X obj 281 842 * 1000;
#X floatatom 169 866 5 0 0 0 - - - 0;
#X floatatom 221 867 5 0 0 0 - - - 0;
#X floatatom 281 866 5 0 0 0 - - - 0;
#X obj 801 747 delay;
#X floatatom 619 729 5 0 0 0 - \$0-inputdur - 0;
#X obj 733 677 line~;
#X obj 619 775 - 15;
#X obj 799 680 delay 5;
#X msg 799 704 1 5;
#X msg 815 771 0 5;
#X obj 592 613 *~;
#X obj 801 621 bng 15 250 50 0 empty \$0-sampleact empty 17 7 0 10
#fcfcfc #000000 #000000;
#X obj 690 745 vum;
#X obj 869 643 bng 15 250 50 0 empty empty empty 17 7 0 10 #fcfcfc
#000000 #000000;
#X obj 848 724 bng 15 250 50 0 empty empty empty 17 7 0 10 #fcfcfc
#000000 #000000;
#X obj 878 798 bng 15 250 50 0 empty empty empty 17 7 0 10 #fcfcfc
#000000 #000000;
#X obj 100 54 sel 0;
#X obj 619 751 * 300;
#X msg 799 656 0 10;
#X floatatom 249 233 5 0 0 0 - - - 0;
#X msg 217 56 40.16;
#X obj 23 179 inlet;
#X floatatom 491 834 5 0 0 0 - - \$0-volinit 0;
#X obj 491 791 loadbang;
#X floatatom 532 815 5 0 0 0 - \$0-inputvol - 0;
#X obj 592 637 *~;
#X obj 100 102 vsl 15 185 0 1 0 0 \$0-inputvol \$0-volinit V 4 10 0
10 #03008e #c6feff #c6feff 0 1;
#X msg 491 813 0.5;
#X connect 2 0 3 0;
#X connect 3 0 4 0;
#X connect 3 1 5 0;
#X connect 3 2 6 0;
#X connect 3 3 7 0;
#X connect 3 4 8 0;
#X connect 4 0 9 0;
#X connect 5 0 9 0;
#X connect 6 0 9 0;
#X connect 7 0 9 0;
#X connect 8 0 9 0;
#X connect 10 0 11 1;
#X connect 11 0 13 0;
#X connect 12 0 11 0;
#X connect 13 0 20 0;
#X connect 14 0 107 0;
#X connect 15 0 14 0;
#X connect 15 0 134 0;
#X connect 16 0 49 0;
#X connect 16 0 131 0;
#X connect 17 0 50 0;
#X connect 17 0 127 0;
#X connect 18 0 51 0;
#X connect 18 0 132 0;
#X connect 19 0 52 0;
#X connect 19 0 137 0;
#X connect 20 0 28 0;
#X connect 20 1 31 0;
#X connect 20 2 37 0;
#X connect 20 3 40 0;
#X connect 20 4 34 0;
#X connect 21 0 23 0;
#X connect 22 0 43 0;
#X connect 22 0 177 0;
#X connect 23 0 24 0;
#X connect 26 0 28 1;
#X connect 27 0 28 2;
#X connect 28 0 107 1;
#X connect 29 0 31 1;
#X connect 30 0 31 2;
#X connect 31 0 108 1;
#X connect 32 0 34 1;
#X connect 32 0 125 0;
#X connect 32 0 130 0;
#X connect 32 0 135 0;
#X connect 32 0 136 0;
#X connect 33 0 34 2;
#X connect 34 0 111 1;
#X connect 35 0 37 1;
#X connect 36 0 37 2;
#X connect 37 0 109 1;
#X connect 38 0 40 1;
#X connect 38 0 122 0;
#X connect 39 0 40 2;
#X connect 40 0 110 1;
#X connect 42 0 178 0;
#X connect 42 0 47 0;
#X connect 42 0 48 0;
#X connect 43 0 25 0;
#X connect 47 0 45 0;
#X connect 48 0 46 0;
#X connect 49 0 108 0;
#X connect 50 0 109 0;
#X connect 51 0 110 0;
#X connect 52 0 111 0;
#X connect 53 0 138 0;
#X connect 54 0 58 1;
#X connect 57 0 55 0;
#X connect 58 0 55 1;
#X connect 59 0 60 0;
#X connect 60 0 61 0;
#X connect 61 0 62 0;
#X connect 62 0 63 0;
#X connect 63 0 57 1;
#X connect 65 0 53 0;
#X connect 66 0 53 0;
#X connect 67 0 53 0;
#X connect 68 0 53 0;
#X connect 69 0 53 0;
#X connect 74 0 79 0;
#X connect 74 0 78 0;
#X connect 74 0 80 0;
#X connect 78 0 76 0;
#X connect 79 0 75 0;
#X connect 80 0 77 0;
#X connect 81 0 85 0;
#X connect 82 0 86 0;
#X connect 83 0 87 0;
#X connect 84 0 150 0;
#X connect 85 0 88 0;
#X connect 86 0 89 0;
#X connect 87 0 90 0;
#X connect 88 0 92 0;
#X connect 89 0 93 0;
#X connect 90 0 94 0;
#X connect 92 1 95 0;
#X connect 92 1 99 0;
#X connect 93 0 95 0;
#X connect 93 1 95 1;
#X connect 93 1 102 0;
#X connect 94 0 97 0;
#X connect 94 1 97 1;
#X connect 94 1 100 0;
#X connect 95 0 96 0;
#X connect 96 0 97 0;
#X connect 97 0 98 0;
#X connect 98 0 101 0;
#X connect 99 0 105 0;
#X connect 100 0 103 0;
#X connect 101 0 99 0;
#X connect 101 0 102 0;
#X connect 101 0 100 0;
#X connect 101 1 102 1;
#X connect 101 1 100 1;
#X connect 101 1 99 1;
#X connect 102 0 104 0;
#X connect 103 0 149 0;
#X connect 104 0 148 0;
#X connect 105 0 147 0;
#X connect 107 0 65 0;
#X connect 108 0 66 0;
#X connect 109 0 67 0;
#X connect 110 0 68 0;
#X connect 111 0 69 0;
#X connect 112 0 113 0;
#X connect 113 0 0 0;
#X connect 113 1 116 0;
#X connect 114 0 115 0;
#X connect 115 0 174 0;
#X connect 117 0 113 1;
#X connect 118 0 119 0;
#X connect 119 0 69 1;
#X connect 120 0 121 0;
#X connect 121 0 68 1;
#X connect 122 0 120 0;
#X connect 123 0 124 0;
#X connect 124 0 67 1;
#X connect 125 0 123 0;
#X connect 126 0 128 0;
#X connect 127 0 124 0;
#X connect 128 0 66 1;
#X connect 129 0 65 1;
#X connect 130 0 126 0;
#X connect 131 0 128 0;
#X connect 132 0 121 0;
#X connect 133 0 129 0;
#X connect 134 0 129 0;
#X connect 135 0 133 0;
#X connect 136 0 118 0;
#X connect 137 0 119 0;
#X connect 138 0 168 0;
#X connect 138 0 170 0;
#X connect 139 0 140 0;
#X connect 141 0 146 0;
#X connect 142 0 143 0;
#X connect 142 0 144 0;
#X connect 142 0 145 0;
#X connect 143 0 139 0;
#X connect 144 0 139 1;
#X connect 145 0 139 2;
#X connect 146 0 138 1;
#X connect 147 0 151 0;
#X connect 148 0 152 0;
#X connect 149 0 153 0;
#X connect 150 0 147 0;
#X connect 150 0 148 0;
#X connect 150 0 149 0;
#X connect 150 1 149 1;
#X connect 150 1 148 1;
#X connect 150 1 147 1;
#X connect 151 0 155 0;
#X connect 152 0 156 0;
#X connect 153 0 157 0;
#X connect 155 0 158 0;
#X connect 156 0 159 0;
#X connect 157 0 160 0;
#X connect 158 0 143 1;
#X connect 159 0 144 0;
#X connect 160 0 145 0;
#X connect 161 0 167 0;
#X connect 162 0 175 0;
#X connect 163 0 168 1;
#X connect 164 0 161 1;
#X connect 165 0 166 0;
#X connect 166 0 163 0;
#X connect 166 0 172 0;
#X connect 167 0 163 0;
#X connect 167 0 173 0;
#X connect 168 0 183 0;
#X connect 169 0 176 0;
#X connect 171 0 165 0;
#X connect 172 0 161 0;
#X connect 174 0 117 0;
#X connect 174 1 113 1;
#X connect 175 0 164 0;
#X connect 176 0 163 0;
#X connect 176 0 171 0;
#X connect 178 0 44 0;
#X connect 179 0 0 0;
#X connect 181 0 185 0;
#X connect 182 0 183 1;
#X connect 183 0 57 0;
#X connect 183 0 58 0;
#X connect 185 0 180 0;
#X coords 0 -1 1 1 135 190 1 100 100;
