#N canvas 183 23 1051 755 10;
#X obj 89 78 unpack f f f;
#X obj 89 12 inlet;
#X text 79 91 a;
#X text 116 92 s;
#X text 165 93 r;
#X obj 119 221 line~;
#X msg 89 166 1 \$1;
#X msg 152 190 0 \$1;
#X obj 152 165 float;
#X obj 131 116 +;
#X obj 131 139 delay;
#X obj 120 250 outlet~;
#X connect 0 0 6 0;
#X connect 0 0 9 0;
#X connect 0 1 9 1;
#X connect 0 2 8 1;
#X connect 1 0 0 0;
#X connect 5 0 11 0;
#X connect 6 0 5 0;
#X connect 7 0 5 0;
#X connect 8 0 7 0;
#X connect 9 0 10 0;
#X connect 10 0 8 0;
