#N canvas 952 0 958 966 12;
#X obj 33 68 inlet;
#X obj 90 12 loadbang;
#X floatatom 172 69 5 0 0 0 - - - 0;
#X floatatom 90 67 5 0 0 0 - - - 0;
#X floatatom 131 68 5 0 0 0 - - - 0;
#X floatatom 213 68 5 0 0 0 - - - 0;
#X text 28 45 slider;
#X text 255 41 inmin / inmax / outmin / outmax;
#X obj 33 104 -;
#X obj 100 105 -;
#X floatatom 100 129 5 0 0 0 - - - 0;
#X floatatom 33 128 5 0 0 0 - - - 0;
#X obj 33 151 /;
#X floatatom 33 175 5 0 0 0 - - - 0;
#X text 72 149 normal;
#X obj 206 107 -;
#X text 237 106 oRange;
#X text 138 105 iRange;
#X obj 33 198 *;
#X obj 33 222 +;
#X floatatom 33 246 5 0 0 0 - - - 0;
#X obj 33 269 outlet;
#X obj 214 193 print;
#X msg 215 165 \$1 \$2 \$3 \$4;
#X obj 90 43 f \$1;
#X obj 131 44 f \$2;
#X obj 172 44 f \$3;
#X obj 213 45 f \$4;
#X connect 0 0 8 0;
#X connect 1 0 24 0;
#X connect 1 0 25 0;
#X connect 1 0 26 0;
#X connect 1 0 27 0;
#X connect 2 0 15 1;
#X connect 2 0 19 1;
#X connect 3 0 8 1;
#X connect 3 0 9 1;
#X connect 4 0 9 0;
#X connect 5 0 15 0;
#X connect 8 0 11 0;
#X connect 9 0 10 0;
#X connect 10 0 12 1;
#X connect 11 0 12 0;
#X connect 12 0 13 0;
#X connect 13 0 18 0;
#X connect 15 0 18 1;
#X connect 18 0 19 0;
#X connect 19 0 20 0;
#X connect 20 0 21 0;
#X connect 23 0 22 0;
#X connect 24 0 3 0;
#X connect 25 0 4 0;
#X connect 26 0 2 0;
#X connect 27 0 5 0;
