#N canvas 160 160 1920 976 12;
#X obj 620 500 tgl 95 0 empty empty empty 17 7 0 10 #c6feff #03008e
#2f004d 0 1;
#X obj 715 500 tgl 95 0 empty empty empty 17 7 0 10 #c6feff #03008e
#2f004d 0 1;
#X obj 810 500 tgl 95 0 empty empty empty 17 7 0 10 #c6feff #03008e
#2f004d 0 1;
#X obj 905 500 tgl 95 0 empty empty empty 17 7 0 10 #fff69c #03008e
#2f004d 0 1;
#X obj 1000 500 tgl 95 0 empty empty empty 17 7 0 10 #c6feff #03008e
#2f004d 0 1;
#X obj 1095 500 tgl 95 0 empty empty empty 17 7 0 10 #c6feff #03008e
#2f004d 0 1;
#X obj 1190 500 tgl 95 0 empty empty empty 17 7 0 10 #c6feff #03008e
#2f004d 0 1;
#X obj 1285 500 tgl 95 0 empty empty empty 17 7 0 10 #c6feff #03008e
#2f004d 0 1;
#X obj 248 108 inlet;
#X obj 620 594 tgl 95 0 empty empty empty 17 7 0 10 #c6feff #03008e
#2f004d 0 1;
#X obj 715 594 tgl 95 0 empty empty empty 17 7 0 10 #c6feff #03008e
#2f004d 0 1;
#X obj 810 594 tgl 95 0 empty empty empty 17 7 0 10 #c6feff #03008e
#2f004d 0 1;
#X obj 905 594 tgl 95 0 empty empty empty 17 7 0 10 #c6feff #03008e
#2f004d 0 1;
#X obj 1000 594 tgl 95 0 empty empty empty 17 7 0 10 #c6feff #03008e
#2f004d 0 1;
#X obj 1095 594 tgl 95 0 empty empty empty 17 7 0 10 #c6feff #03008e
#2f004d 0 1;
#X obj 1190 594 tgl 95 0 empty empty empty 17 7 0 10 #c6feff #03008e
#2f004d 0 1;
#X obj 1285 594 tgl 95 0 empty empty empty 17 7 0 10 #c6feff #03008e
#2f004d 0 1;
#X floatatom 516 242 5 0 0 0 - - - 0;
#X floatatom 556 242 5 0 0 0 - - - 0;
#X floatatom 596 243 5 0 0 0 - - - 0;
#X floatatom 635 243 5 0 0 0 - - - 0;
#X floatatom 675 243 5 0 0 0 - - - 0;
#X floatatom 715 243 5 0 0 0 - - - 0;
#X floatatom 754 243 5 0 0 0 - - - 0;
#X floatatom 795 243 5 0 0 0 - - - 0;
#X floatatom 203 240 5 0 0 0 - - - 0;
#X floatatom 242 240 5 0 0 0 - - - 0;
#X floatatom 282 240 5 0 0 0 - - - 0;
#X floatatom 321 241 5 0 0 0 - - - 0;
#X floatatom 359 241 5 0 0 0 - - - 0;
#X floatatom 398 241 5 0 0 0 - - - 0;
#X floatatom 438 241 5 0 0 0 - - - 0;
#X floatatom 477 241 5 0 0 0 - - - 0;
#X obj 1148 301 inlet;
#X obj 1148 325 unpack f f f f f f f f f f f f f f f f;
#X obj 250 170 sel 1 2 3 4 5 6 7 8 9 10 11 12 13 14 15 16;
#X obj 203 270 f;
#X obj 203 294 sel 1;
#X obj 242 270 f;
#X obj 242 294 sel 1;
#X obj 281 270 f;
#X obj 281 294 sel 1;
#X obj 320 270 f;
#X obj 320 294 sel 1;
#X obj 359 270 f;
#X obj 359 294 sel 1;
#X obj 398 270 f;
#X obj 398 294 sel 1;
#X obj 437 270 f;
#X obj 437 294 sel 1;
#X obj 476 270 f;
#X obj 476 294 sel 1;
#X obj 515 270 f;
#X obj 515 294 sel 1;
#X obj 554 270 f;
#X obj 554 294 sel 1;
#X obj 593 270 f;
#X obj 593 294 sel 1;
#X obj 632 270 f;
#X obj 632 294 sel 1;
#X obj 671 270 f;
#X obj 671 294 sel 1;
#X obj 710 270 f;
#X obj 710 294 sel 1;
#X obj 749 270 f;
#X obj 749 294 sel 1;
#X obj 788 270 f;
#X obj 788 294 sel 1;
#X obj 501 500 kicksampler;
#X msg 920 140 color #C6FEFF #03008E #2F004D;
#X msg 20 753 color #FFF69C #03008E #2F004D, f 9;
#X msg 98 753 color #FFF69C #03008E #2F004D, f 9;
#X msg 175 753 color #FFF69C #03008E #2F004D, f 9;
#X msg 253 753 color #FFF69C #03008E #2F004D, f 9;
#X msg 330 753 color #FFF69C #03008E #2F004D, f 9;
#X msg 408 753 color #FFF69C #03008E #2F004D, f 9;
#X msg 485 753 color #FFF69C #03008E #2F004D, f 9;
#X msg 563 753 color #FFF69C #03008E #2F004D, f 9;
#X msg 20 820 color #FFF69C #03008E #2F004D, f 9;
#X msg 98 820 color #FFF69C #03008E #2F004D, f 9;
#X msg 175 820 color #FFF69C #03008E #2F004D, f 9;
#X msg 253 820 color #FFF69C #03008E #2F004D, f 9;
#X msg 330 820 color #FFF69C #03008E #2F004D, f 9;
#X msg 408 820 color #FFF69C #03008E #2F004D, f 9;
#X msg 485 820 color #FFF69C #03008E #2F004D, f 9;
#X msg 563 820 color #FFF69C #03008E #2F004D, f 9;
#X obj 780 147 bng 15 250 50 0 empty empty empty 17 7 0 10 #fcfcfc
#000000 #000000;
#X obj 248 132 t f b;
#X floatatom 336 115 5 1 16 0 - - - 0;
#X obj 343 76 metroread;
#X obj 491 65 bpm;
#X msg 536 44 100;
#X msg 446 26 stop;
#X obj 449 56 bng 15 250 50 0 empty empty empty 17 7 0 10 #fcfcfc #000000
#000000;
#X obj 497 90 bng 15 250 50 0 empty empty empty 17 7 0 10 #fcfcfc #000000
#000000;
#X obj 497 110 f 0;
#X obj 497 134 + 1;
#X floatatom 400 100 5 0 0 0 - - - 0;
#X obj 532 125 mod 16;
#X obj 400 123 + 1;
#X floatatom 400 147 5 0 0 0 - - - 0;
#X connect 0 0 25 0;
#X connect 1 0 26 0;
#X connect 2 0 27 0;
#X connect 3 0 28 0;
#X connect 4 0 29 0;
#X connect 5 0 30 0;
#X connect 6 0 31 0;
#X connect 7 0 32 0;
#X connect 8 0 87 0;
#X connect 9 0 17 0;
#X connect 10 0 18 0;
#X connect 11 0 19 0;
#X connect 12 0 20 0;
#X connect 13 0 21 0;
#X connect 14 0 22 0;
#X connect 15 0 23 0;
#X connect 16 0 24 0;
#X connect 17 0 52 1;
#X connect 18 0 54 1;
#X connect 19 0 56 1;
#X connect 20 0 58 1;
#X connect 21 0 60 1;
#X connect 22 0 62 1;
#X connect 23 0 64 1;
#X connect 24 0 66 1;
#X connect 25 0 36 1;
#X connect 26 0 38 1;
#X connect 27 0 40 1;
#X connect 28 0 42 1;
#X connect 29 0 44 1;
#X connect 30 0 46 1;
#X connect 31 0 48 1;
#X connect 32 0 50 1;
#X connect 33 0 34 0;
#X connect 34 0 0 0;
#X connect 34 1 1 0;
#X connect 34 2 2 0;
#X connect 34 3 3 0;
#X connect 34 4 4 0;
#X connect 34 5 5 0;
#X connect 34 6 6 0;
#X connect 34 7 7 0;
#X connect 34 8 9 0;
#X connect 34 9 10 0;
#X connect 34 10 11 0;
#X connect 34 11 12 0;
#X connect 34 12 13 0;
#X connect 34 13 14 0;
#X connect 34 14 15 0;
#X connect 34 15 16 0;
#X connect 35 0 36 0;
#X connect 35 0 70 0;
#X connect 35 1 38 0;
#X connect 35 1 71 0;
#X connect 35 2 40 0;
#X connect 35 2 72 0;
#X connect 35 3 42 0;
#X connect 35 3 73 0;
#X connect 35 4 44 0;
#X connect 35 4 74 0;
#X connect 35 5 46 0;
#X connect 35 5 75 0;
#X connect 35 6 48 0;
#X connect 35 6 76 0;
#X connect 35 7 50 0;
#X connect 35 7 77 0;
#X connect 35 8 52 0;
#X connect 35 8 78 0;
#X connect 35 9 54 0;
#X connect 35 9 79 0;
#X connect 35 10 56 0;
#X connect 35 10 80 0;
#X connect 35 11 58 0;
#X connect 35 11 81 0;
#X connect 35 12 60 0;
#X connect 35 12 82 0;
#X connect 35 13 62 0;
#X connect 35 13 83 0;
#X connect 35 14 64 0;
#X connect 35 14 84 0;
#X connect 35 15 66 0;
#X connect 35 15 85 0;
#X connect 35 16 86 0;
#X connect 36 0 37 0;
#X connect 37 0 68 0;
#X connect 38 0 39 0;
#X connect 39 0 68 0;
#X connect 40 0 41 0;
#X connect 41 0 68 0;
#X connect 42 0 43 0;
#X connect 43 0 68 0;
#X connect 44 0 45 0;
#X connect 45 0 68 0;
#X connect 46 0 47 0;
#X connect 47 0 68 0;
#X connect 48 0 49 0;
#X connect 49 0 68 0;
#X connect 50 0 51 0;
#X connect 51 0 68 0;
#X connect 52 0 53 0;
#X connect 53 0 68 0;
#X connect 54 0 55 0;
#X connect 55 0 68 0;
#X connect 56 0 57 0;
#X connect 57 0 68 0;
#X connect 58 0 59 0;
#X connect 59 0 68 0;
#X connect 60 0 61 0;
#X connect 61 0 68 0;
#X connect 62 0 63 0;
#X connect 63 0 68 0;
#X connect 64 0 65 0;
#X connect 65 0 68 0;
#X connect 66 0 67 0;
#X connect 67 0 68 0;
#X connect 69 0 0 0;
#X connect 69 0 1 0;
#X connect 69 0 2 0;
#X connect 69 0 3 0;
#X connect 69 0 4 0;
#X connect 69 0 5 0;
#X connect 69 0 6 0;
#X connect 69 0 7 0;
#X connect 69 0 9 0;
#X connect 69 0 10 0;
#X connect 69 0 11 0;
#X connect 69 0 12 0;
#X connect 69 0 13 0;
#X connect 69 0 14 0;
#X connect 69 0 15 0;
#X connect 69 0 16 0;
#X connect 70 0 0 0;
#X connect 71 0 1 0;
#X connect 72 0 2 0;
#X connect 73 0 3 0;
#X connect 74 0 4 0;
#X connect 75 0 5 0;
#X connect 76 0 6 0;
#X connect 77 0 7 0;
#X connect 78 0 9 0;
#X connect 79 0 10 0;
#X connect 80 0 11 0;
#X connect 81 0 12 0;
#X connect 82 0 13 0;
#X connect 83 0 14 0;
#X connect 84 0 15 0;
#X connect 85 0 16 0;
#X connect 86 0 69 0;
#X connect 87 0 35 0;
#X connect 87 1 86 0;
#X connect 88 0 87 0;
#X connect 90 0 94 0;
#X connect 91 0 90 1;
#X connect 92 0 90 0;
#X connect 93 0 90 0;
#X connect 94 0 95 0;
#X connect 95 0 96 0;
#X connect 96 0 98 0;
#X connect 97 0 95 1;
#X connect 97 0 99 0;
#X connect 98 0 97 0;
#X connect 99 0 100 0;
#X connect 100 0 87 0;
#X coords 0 -1 1 1 880 190 1 500 500;
