#N canvas 109 103 1920 976 12;
#X obj 104 104 tgl 50 0 empty empty Play 60 25 0 40 #faff00 #000000
#2f004d 0 1;
#X obj 496 104 bng 50 250 50 0 empty empty Sequence\\\ 1 60 25 0 40
#faff00 #000000 #000000;
#X obj 803 104 bng 50 250 50 0 empty empty Sequence\\\ 2 60 25 0 40
#faff00 #000000 #000000;
#X obj 1113 104 bng 50 250 50 0 empty empty Sequence\\\ 3 60 25 0 40
#faff00 #000000 #000000;
#X obj 100 158 kickseqobjd;
#X obj 994 157 kickseqobje;
#X obj 100 347 snareseqobjf;
#X obj 994 346 snareseqobjr;
#X obj 100 536 hhseqobjg;
#X obj 994 535 hhseqobjt;
#X text 1701 107 Key controls: d e - Kick;
#X text 1799 121 f r - Snare;
#X text 1799 134 g t - HH;
#X obj 433 -77 sel 1;
#X obj 425 -46 bng 15 250 50 0 empty empty empty 17 7 0 10 #fcfcfc
#000000 #000000;
#X msg 461 -52 stop;
#X obj 423 -27 bpm;
#X obj 275 104 nbx 3 50 1 500 0 0 empty empty BPM 140 25 0 40 #faff00
#000000 #000000 0 256;
#X obj 422 -1 bng 15 250 50 0 empty empty empty 17 7 0 10 #fcfcfc #000000
#000000;
#X obj 422 19 f;
#X obj 422 42 mod 16;
#X floatatom 512 28 5 0 0 0 - - - 0;
#X floatatom 512 75 5 0 0 0 - - - 0;
#X msg 479 -21 0;
#X obj 422 66 + 1;
#X msg 605 -11 1 0 1 1 0 0 1 0 1 0 0 1 0 0 1 0;
#X msg 605 9 0 1 0 0 0 1 0 0 0 1 0 0 1 0 0 1;
#X msg 853 -10 1 0 0 0 0 0 0 0 0 1 0 1 0 1 0 0;
#X msg 853 12 0 0 1 0 0 0 1 0 0 0 1 0 0 1 0 0;
#X msg 853 33 0 0 0 1 1 0 0 0 0 0 0 0 1 0 0 0;
#X obj 1425 104 bng 50 250 50 0 empty empty Clear 60 25 0 40 #faff00
#000000 #000000;
#X msg 1335 -27 0 0 0 0 0 0 0 0 0 0 0 0 0 0 0 0;
#X msg 664 790 1 0 0 0 0 1 0 0 1 0 0 0 0 1 0 0;
#X msg 661 813 0 0 0 1 0 0 0 1 0 0 0 1 0 0 0 1;
#X msg 660 839 0 0 0 0 0 1 0 0 0 0 0 0 0 1 0 0;
#X msg 913 794 0 0 1 1 0 0 0 0 0 0 1 1 0 0 0 0;
#X msg 913 817 0 1 0 0 1 0 0 1 0 1 0 0 1 0 0 1;
#X msg 914 837 0 1 0 0 0 0 0 0 0 1 0 0 1 0 0 0;
#X obj 856 746 bng 15 250 50 0 empty empty empty 17 7 0 10 #fcfcfc
#000000 #000000;
#X msg 1186 801 0 0 0 0 1 1 0 0 0 0 0 0 0 1 0 1;
#X msg 1186 822 1 1 1 1 0 0 0 0 0 0 0 0 0 0 0 0;
#X msg 1186 843 0 0 0 0 1 0 0 0 0 0 0 0 1 0 0 1;
#X msg 1415 801 0 0 0 0 0 0 0 0 0 0 1 0 0 0 1 0;
#X msg 1415 823 0 0 0 0 0 0 1 0 0 0 0 1 0 0 1 0;
#X msg 1415 843 1 0 0 1 0 0 0 0 1 0 0 0 0 0 1 0;
#X obj 1251 762 bng 15 250 50 0 empty empty empty 17 7 0 10 #fcfcfc
#000000 #000000;
#X obj 337 46 * 2;
#X text 294 76 8th -> Qtr;
#X obj 185 10 loadbang;
#X msg 185 34 250;
#X msg 128 48 0;
#X msg 605 29 0 1 0 0 1 0 1 0 0 1 0 0 1 0 0 1;
#X connect 0 0 13 0;
#X connect 1 0 25 0;
#X connect 1 0 26 0;
#X connect 1 0 51 0;
#X connect 1 0 27 0;
#X connect 1 0 28 0;
#X connect 1 0 29 0;
#X connect 2 0 38 0;
#X connect 3 0 45 0;
#X connect 13 0 14 0;
#X connect 13 1 15 0;
#X connect 14 0 16 0;
#X connect 15 0 16 0;
#X connect 15 0 23 0;
#X connect 16 0 18 0;
#X connect 17 0 46 0;
#X connect 18 0 19 0;
#X connect 19 0 20 0;
#X connect 20 0 24 0;
#X connect 21 0 19 1;
#X connect 21 0 22 0;
#X connect 22 0 4 0;
#X connect 22 0 6 0;
#X connect 22 0 8 0;
#X connect 22 0 5 0;
#X connect 22 0 7 0;
#X connect 22 0 9 0;
#X connect 23 0 19 1;
#X connect 23 0 22 0;
#X connect 24 0 21 0;
#X connect 25 0 4 1;
#X connect 26 0 6 1;
#X connect 27 0 5 1;
#X connect 28 0 7 1;
#X connect 29 0 9 1;
#X connect 30 0 31 0;
#X connect 31 0 5 1;
#X connect 31 0 7 1;
#X connect 31 0 9 1;
#X connect 31 0 4 1;
#X connect 31 0 6 1;
#X connect 31 0 8 1;
#X connect 32 0 4 1;
#X connect 33 0 6 1;
#X connect 34 0 8 1;
#X connect 35 0 5 1;
#X connect 36 0 7 1;
#X connect 37 0 9 1;
#X connect 38 0 32 0;
#X connect 38 0 33 0;
#X connect 38 0 34 0;
#X connect 38 0 35 0;
#X connect 38 0 36 0;
#X connect 38 0 37 0;
#X connect 39 0 4 1;
#X connect 40 0 6 1;
#X connect 41 0 8 1;
#X connect 42 0 5 1;
#X connect 43 0 7 1;
#X connect 44 0 9 1;
#X connect 45 0 39 0;
#X connect 45 0 40 0;
#X connect 45 0 41 0;
#X connect 45 0 42 0;
#X connect 45 0 43 0;
#X connect 45 0 44 0;
#X connect 46 0 16 1;
#X connect 48 0 49 0;
#X connect 48 0 50 0;
#X connect 49 0 17 0;
#X connect 50 0 0 0;
#X connect 51 0 8 1;
#X coords 0 -1 1 1 1790 626 2 100 100;
