#N canvas 1713 0 1718 1348 12;
#X obj 196 28 inlet;
#X obj 53 393 outlet;
#X obj 196 52 t b l;
#X obj 195 98 list;
#X obj 642 138 t b l;
#X obj 641 184 list;
#X obj 496 394 list;
#X obj 521 367 spigot;
#X obj 515 210 tgl 19 0 empty empty empty 0 -10 0 12 #fcfcfc #000000 #000000 0 1;
#X obj 515 159 bng 19 250 50 0 empty empty empty 0 -10 0 12 #fcfcfc #000000 #000000;
#X listbox 496 418 20 0 0 0 - - - 0;
#X obj 750 357 bng 19 250 50 0 empty empty empty 0 -10 0 12 #fcfcfc #000000 #000000;
#X listbox 641 208 20 0 0 0 - - - 0;
#X obj 536 182 delay 1;
#X connect 0 0 2 0;
#X connect 2 0 3 0;
#X connect 2 1 3 1;
#X connect 3 0 1 0;
#X connect 4 0 5 0;
#X connect 4 0 9 0;
#X connect 4 1 5 1;
#X connect 5 0 12 0;
#X connect 5 0 7 0;
#X connect 6 0 10 0;
#X connect 7 0 6 0;
#X connect 7 0 11 0;
#X connect 8 0 7 1;
#X connect 9 0 8 0;
#X connect 9 0 13 0;
#X connect 13 0 8 0;
