#N canvas 1713 0 1718 1348 12;
#X obj 21 19 inlet;
#X obj 46 185 outlet~;
#X obj 46 135 *~;
#X obj 46 159 normalizer~ 1;
#X text 62 19 Magnitude / Freq;
#X obj 21 43 unpack f f;
#X obj 67 100 phasor~;
#X connect 0 0 5 0;
#X connect 2 0 3 0;
#X connect 3 0 1 0;
#X connect 5 0 2 1;
#X connect 5 1 6 0;
#X connect 6 0 2 0;
