#N canvas 1180 150 1718 1348 12;
#X obj 115 57 bendin;
#X floatatom 115 81 5 0 0 0 - - - 0;
#X floatatom 115 130 5 0 0 0 - - - 0;
#X obj 115 106 scale 0 16384 -1 1;
#X obj 396 54 notein 1;
#X floatatom 396 78 5 0 0 0 - - - 0;
#X floatatom 449 78 5 0 0 0 - - - 0;
#X obj 449 101 scale 0 100 0 1;
#X floatatom 449 125 5 0 0 0 - - - 0;
#X obj 396 150 pack f f;
#X floatatom 603 226 5 0 0 0 - - - 0;
#X obj 396 221 pack f f f;
#X listbox 396 245 20 0 0 0 - - - 0;
#X msg 646 183 reset;
#X obj 396 197 - 1;
#X obj 396 295 vum;
#X obj 396 450 dac~;
#X obj 396 271 clone synth 8 -s1;
#X obj 396 173 poly 8 1;
#X connect 0 0 1 0;
#X connect 1 0 3 0;
#X connect 3 0 2 0;
#X connect 4 0 5 0;
#X connect 4 1 6 0;
#X connect 5 0 9 0;
#X connect 6 0 7 0;
#X connect 7 0 8 0;
#X connect 8 0 9 1;
#X connect 9 0 18 0;
#X connect 11 0 12 0;
#X connect 12 0 17 0;
#X connect 14 0 11 0;
#X connect 15 0 16 0;
#X connect 15 0 16 1;
#X connect 17 0 15 0;
#X connect 18 0 14 0;
#X connect 18 1 11 1;
#X connect 18 2 11 2;
