#N canvas 342 216 3440 1379 12;
#X obj 453 22 bendin;
#X floatatom 453 46 5 0 0 0 - - - 0;
#X floatatom 454 103 5 0 0 0 - - bendin 0;
#X obj 747 56 notein 1;
#X floatatom 747 80 5 0 0 0 - - - 0;
#X floatatom 800 80 5 0 0 0 - - - 0;
#X obj 800 103 scale 0 100 0 1;
#X floatatom 800 127 5 0 0 0 - - - 0;
#X obj 747 152 pack f f;
#X obj 747 223 pack f f f;
#X listbox 747 247 20 0 0 0 - - - 0;
#X obj 747 199 - 1;
#X obj 752 379 vum;
#X obj 747 571 dac~;
#X obj 752 355 clone synth 8 -s1;
#X msg 413 63 1;
#X obj 413 41 lb;
#X obj 454 71 scale 0 16384 0 2;
#X obj 53 27 inlet;
#X obj 53 51 unpack f f f f f f f;
#X obj 89 85 pack f f f f f f;
#X obj 52 183 select 0 1 2 3 4 5 6 7;
#X obj 89 108 s \$0-param;
#X obj 39 262 r \$0-param, f 8;
#X text 200 50 voice wavef oct a d s r;
#X msg 247 105 0 0 2 10 4 10 10;
#N canvas 52 52 3440 1357 voicedata 0;
#X obj 17 17 inlet;
#X obj 196 28 inlet;
#X obj 53 393 outlet;
#X obj 196 52 t b l;
#X obj 196 98 list;
#X obj 196 76 delay 1;
#X obj 50 308 list;
#X obj 75 286 spigot;
#X obj 69 124 tgl 19 0 empty empty empty 0 -10 0 12 #fcfcfc #000000 #000000 0 1;
#X obj 69 73 bng 19 250 50 0 empty empty empty 0 -10 0 12 #fcfcfc #000000 #000000;
#X obj 39 283 bng 19 250 50 0 empty empty empty 0 -10 0 12 #fcfcfc #000000 #000000;
#X listbox 50 332 20 0 0 0 - - - 0;
#X obj 90 96 delay 2;
#X connect 0 0 9 0;
#X connect 1 0 3 0;
#X connect 3 0 5 0;
#X connect 3 1 4 1;
#X connect 4 0 7 0;
#X connect 5 0 4 0;
#X connect 6 0 11 0;
#X connect 7 0 6 0;
#X connect 8 0 7 1;
#X connect 9 0 8 0;
#X connect 9 0 12 0;
#X connect 10 0 6 0;
#X connect 11 0 2 0;
#X connect 12 0 8 0;
#X restore 12 298 pd voicedata;
#X obj 146 262 r \$0-param, f 8;
#N canvas -430 162 3440 1357 voicedata 0;
#X obj 17 17 inlet;
#X obj 196 28 inlet;
#X obj 53 393 outlet;
#X obj 196 52 t b l;
#X obj 196 98 list;
#X obj 196 76 delay 1;
#X obj 50 308 list;
#X obj 75 286 spigot;
#X obj 69 124 tgl 19 0 empty empty empty 0 -10 0 12 #fcfcfc #000000 #000000 0 1;
#X obj 69 73 bng 19 250 50 0 empty empty empty 0 -10 0 12 #fcfcfc #000000 #000000;
#X obj 39 283 bng 19 250 50 0 empty empty empty 0 -10 0 12 #fcfcfc #000000 #000000;
#X listbox 50 332 20 0 0 0 - - - 0;
#X obj 90 96 delay 2;
#X connect 0 0 9 0;
#X connect 1 0 3 0;
#X connect 3 0 5 0;
#X connect 3 1 4 1;
#X connect 4 0 7 0;
#X connect 5 0 4 0;
#X connect 6 0 11 0;
#X connect 7 0 6 0;
#X connect 8 0 7 1;
#X connect 9 0 8 0;
#X connect 9 0 12 0;
#X connect 10 0 6 0;
#X connect 11 0 2 0;
#X connect 12 0 8 0;
#X restore 119 298 pd voicedata;
#X obj 254 261 r \$0-param, f 8;
#N canvas -455 78 3440 1357 voicedata 0;
#X obj 17 17 inlet;
#X obj 196 28 inlet;
#X obj 53 393 outlet;
#X obj 196 52 t b l;
#X obj 196 98 list;
#X obj 196 76 delay 1;
#X obj 50 308 list;
#X obj 75 286 spigot;
#X obj 69 124 tgl 19 0 empty empty empty 0 -10 0 12 #fcfcfc #000000 #000000 0 1;
#X obj 69 73 bng 19 250 50 0 empty empty empty 0 -10 0 12 #fcfcfc #000000 #000000;
#X obj 39 283 bng 19 250 50 0 empty empty empty 0 -10 0 12 #fcfcfc #000000 #000000;
#X listbox 50 332 20 0 0 0 - - - 0;
#X obj 90 96 delay 2;
#X connect 0 0 9 0;
#X connect 1 0 3 0;
#X connect 3 0 5 0;
#X connect 3 1 4 1;
#X connect 4 0 7 0;
#X connect 5 0 4 0;
#X connect 6 0 11 0;
#X connect 7 0 6 0;
#X connect 8 0 7 1;
#X connect 9 0 8 0;
#X connect 9 0 12 0;
#X connect 10 0 6 0;
#X connect 11 0 2 0;
#X connect 12 0 8 0;
#X restore 227 297 pd voicedata;
#X obj 361 261 r \$0-param, f 8;
#N canvas 52 52 3440 1357 voicedata 0;
#X obj 17 17 inlet;
#X obj 196 28 inlet;
#X obj 53 393 outlet;
#X obj 196 52 t b l;
#X obj 196 98 list;
#X obj 196 76 delay 1;
#X obj 50 308 list;
#X obj 75 286 spigot;
#X obj 69 124 tgl 19 0 empty empty empty 0 -10 0 12 #fcfcfc #000000 #000000 0 1;
#X obj 69 73 bng 19 250 50 0 empty empty empty 0 -10 0 12 #fcfcfc #000000 #000000;
#X obj 39 283 bng 19 250 50 0 empty empty empty 0 -10 0 12 #fcfcfc #000000 #000000;
#X listbox 50 332 20 0 0 0 - - - 0;
#X obj 90 96 delay 2;
#X connect 0 0 9 0;
#X connect 1 0 3 0;
#X connect 3 0 5 0;
#X connect 3 1 4 1;
#X connect 4 0 7 0;
#X connect 5 0 4 0;
#X connect 6 0 11 0;
#X connect 7 0 6 0;
#X connect 8 0 7 1;
#X connect 9 0 8 0;
#X connect 9 0 12 0;
#X connect 10 0 6 0;
#X connect 11 0 2 0;
#X connect 12 0 8 0;
#X restore 334 297 pd voicedata;
#X obj 40 346 r \$0-param, f 8;
#N canvas 52 52 3440 1357 voicedata 0;
#X obj 17 17 inlet;
#X obj 196 28 inlet;
#X obj 53 393 outlet;
#X obj 196 52 t b l;
#X obj 196 98 list;
#X obj 196 76 delay 1;
#X obj 50 308 list;
#X obj 75 286 spigot;
#X obj 69 124 tgl 19 0 empty empty empty 0 -10 0 12 #fcfcfc #000000 #000000 0 1;
#X obj 69 73 bng 19 250 50 0 empty empty empty 0 -10 0 12 #fcfcfc #000000 #000000;
#X obj 39 283 bng 19 250 50 0 empty empty empty 0 -10 0 12 #fcfcfc #000000 #000000;
#X listbox 50 332 20 0 0 0 - - - 0;
#X obj 90 96 delay 2;
#X connect 0 0 9 0;
#X connect 1 0 3 0;
#X connect 3 0 5 0;
#X connect 3 1 4 1;
#X connect 4 0 7 0;
#X connect 5 0 4 0;
#X connect 6 0 11 0;
#X connect 7 0 6 0;
#X connect 8 0 7 1;
#X connect 9 0 8 0;
#X connect 9 0 12 0;
#X connect 10 0 6 0;
#X connect 11 0 2 0;
#X connect 12 0 8 0;
#X restore 13 382 pd voicedata;
#X obj 147 346 r \$0-param, f 8;
#N canvas 52 52 3440 1357 voicedata 0;
#X obj 17 17 inlet;
#X obj 196 28 inlet;
#X obj 53 393 outlet;
#X obj 196 52 t b l;
#X obj 196 98 list;
#X obj 196 76 delay 1;
#X obj 50 308 list;
#X obj 75 286 spigot;
#X obj 69 124 tgl 19 0 empty empty empty 0 -10 0 12 #fcfcfc #000000 #000000 0 1;
#X obj 69 73 bng 19 250 50 0 empty empty empty 0 -10 0 12 #fcfcfc #000000 #000000;
#X obj 39 283 bng 19 250 50 0 empty empty empty 0 -10 0 12 #fcfcfc #000000 #000000;
#X listbox 50 332 20 0 0 0 - - - 0;
#X obj 90 96 delay 2;
#X connect 0 0 9 0;
#X connect 1 0 3 0;
#X connect 3 0 5 0;
#X connect 3 1 4 1;
#X connect 4 0 7 0;
#X connect 5 0 4 0;
#X connect 6 0 11 0;
#X connect 7 0 6 0;
#X connect 8 0 7 1;
#X connect 9 0 8 0;
#X connect 9 0 12 0;
#X connect 10 0 6 0;
#X connect 11 0 2 0;
#X connect 12 0 8 0;
#X restore 120 382 pd voicedata;
#X obj 255 345 r \$0-param, f 8;
#N canvas 52 52 3440 1357 voicedata 0;
#X obj 17 17 inlet;
#X obj 196 28 inlet;
#X obj 53 393 outlet;
#X obj 196 52 t b l;
#X obj 196 98 list;
#X obj 196 76 delay 1;
#X obj 50 308 list;
#X obj 75 286 spigot;
#X obj 69 124 tgl 19 0 empty empty empty 0 -10 0 12 #fcfcfc #000000 #000000 0 1;
#X obj 69 73 bng 19 250 50 0 empty empty empty 0 -10 0 12 #fcfcfc #000000 #000000;
#X obj 39 283 bng 19 250 50 0 empty empty empty 0 -10 0 12 #fcfcfc #000000 #000000;
#X listbox 50 332 20 0 0 0 - - - 0;
#X obj 90 96 delay 2;
#X connect 0 0 9 0;
#X connect 1 0 3 0;
#X connect 3 0 5 0;
#X connect 3 1 4 1;
#X connect 4 0 7 0;
#X connect 5 0 4 0;
#X connect 6 0 11 0;
#X connect 7 0 6 0;
#X connect 8 0 7 1;
#X connect 9 0 8 0;
#X connect 9 0 12 0;
#X connect 10 0 6 0;
#X connect 11 0 2 0;
#X connect 12 0 8 0;
#X restore 228 381 pd voicedata;
#X obj 362 345 r \$0-param, f 8;
#N canvas 52 52 3440 1357 voicedata 0;
#X obj 17 17 inlet;
#X obj 196 28 inlet;
#X obj 53 393 outlet;
#X obj 196 52 t b l;
#X obj 196 98 list;
#X obj 196 76 delay 1;
#X obj 50 308 list;
#X obj 75 286 spigot;
#X obj 69 124 tgl 19 0 empty empty empty 0 -10 0 12 #fcfcfc #000000 #000000 0 1;
#X obj 69 73 bng 19 250 50 0 empty empty empty 0 -10 0 12 #fcfcfc #000000 #000000;
#X obj 39 283 bng 19 250 50 0 empty empty empty 0 -10 0 12 #fcfcfc #000000 #000000;
#X listbox 50 332 20 0 0 0 - - - 0;
#X obj 90 96 delay 2;
#X connect 0 0 9 0;
#X connect 1 0 3 0;
#X connect 3 0 5 0;
#X connect 3 1 4 1;
#X connect 4 0 7 0;
#X connect 5 0 4 0;
#X connect 6 0 11 0;
#X connect 7 0 6 0;
#X connect 8 0 7 1;
#X connect 9 0 8 0;
#X connect 9 0 12 0;
#X connect 10 0 6 0;
#X connect 11 0 2 0;
#X connect 12 0 8 0;
#X restore 335 381 pd voicedata;
#X msg 224 144 6 0 0 10 10 10 10;
#X obj 747 304 list append;
#X obj 1120 45 select 0 1 2 3 4 5 6 7;
#X obj 12 322 s voice0;
#X obj 119 322 s voice1;
#X obj 227 321 s voice2;
#X obj 334 319 s voice3;
#X obj 13 406 s voice4;
#X obj 120 406 s voice5;
#X obj 228 405 s voice6;
#X obj 335 405 s voice7;
#X obj 1021 110 r voice0;
#X obj 1021 138 list;
#X obj 1082 138 list;
#X obj 1143 138 list;
#X obj 1204 138 list;
#X obj 1265 138 list;
#X obj 1326 138 list;
#X obj 1387 138 list;
#X obj 1448 138 list;
#X obj 1082 110 r voice1;
#X obj 1143 110 r voice2;
#X obj 1204 110 r voice3;
#X obj 1265 110 r voice4;
#X obj 1326 110 r voice5;
#X obj 1387 110 r voice6;
#X obj 1448 110 r voice7;
#X listbox 962 214 50 0 0 0 - - - 0;
#X listbox 747 328 41 0 0 0 - - - 0;
#X obj 926 153 t b f;
#X obj 747 175 poly 8 0;
#X obj 536 25 lb;
#X msg 536 49 1;
#X msg 1047 327 0 0 0 63.5 63.5 63.5 63.5;
#X obj 981 108 bng 19 250 50 0 empty empty empty 0 -10 0 12 #fcfcfc #000000 #000000;
#X obj 1031 282 loadbang;
#X obj 688 399 outlet~;
#X obj 747 272 clone delaylist 8;
#X obj 927 177 bng 19 250 50 0 empty empty empty 0 -10 0 12 #fcfcfc #000000 #000000;
#X floatatom 960 180 5 0 0 0 - - - 0;
#X connect 0 0 1 0;
#X connect 1 0 17 0;
#X connect 3 0 4 0;
#X connect 3 1 5 0;
#X connect 4 0 8 0;
#X connect 5 0 6 0;
#X connect 6 0 7 0;
#X connect 7 0 8 1;
#X connect 8 0 71 0;
#X connect 9 0 10 0;
#X connect 10 0 78 0;
#X connect 11 0 9 0;
#X connect 11 0 70 0;
#X connect 12 0 13 0;
#X connect 12 0 13 1;
#X connect 14 0 12 0;
#X connect 14 0 77 0;
#X connect 15 0 2 0;
#X connect 16 0 15 0;
#X connect 17 0 2 0;
#X connect 18 0 19 0;
#X connect 19 0 21 0;
#X connect 19 1 20 1;
#X connect 19 2 20 0;
#X connect 19 3 20 2;
#X connect 19 4 20 3;
#X connect 19 5 20 4;
#X connect 19 6 20 5;
#X connect 20 0 22 0;
#X connect 21 0 26 0;
#X connect 21 1 28 0;
#X connect 21 2 30 0;
#X connect 21 3 32 0;
#X connect 21 4 34 0;
#X connect 21 5 36 0;
#X connect 21 6 38 0;
#X connect 21 7 40 0;
#X connect 23 0 26 1;
#X connect 25 0 19 0;
#X connect 26 0 44 0;
#X connect 27 0 28 1;
#X connect 28 0 45 0;
#X connect 29 0 30 1;
#X connect 30 0 46 0;
#X connect 31 0 32 1;
#X connect 32 0 47 0;
#X connect 33 0 34 1;
#X connect 34 0 48 0;
#X connect 35 0 36 1;
#X connect 36 0 49 0;
#X connect 37 0 38 1;
#X connect 38 0 50 0;
#X connect 39 0 40 1;
#X connect 40 0 51 0;
#X connect 41 0 19 0;
#X connect 42 0 69 0;
#X connect 43 0 53 0;
#X connect 43 1 54 0;
#X connect 43 2 55 0;
#X connect 43 3 56 0;
#X connect 43 4 57 0;
#X connect 43 5 58 0;
#X connect 43 6 59 0;
#X connect 43 7 60 0;
#X connect 52 0 53 1;
#X connect 53 0 68 0;
#X connect 54 0 68 0;
#X connect 55 0 68 0;
#X connect 56 0 68 0;
#X connect 57 0 68 0;
#X connect 58 0 68 0;
#X connect 59 0 68 0;
#X connect 60 0 68 0;
#X connect 61 0 54 1;
#X connect 62 0 55 1;
#X connect 63 0 56 1;
#X connect 64 0 57 1;
#X connect 65 0 58 1;
#X connect 66 0 59 1;
#X connect 67 0 60 1;
#X connect 68 0 42 1;
#X connect 69 0 14 0;
#X connect 70 0 79 0;
#X connect 70 1 43 0;
#X connect 70 1 80 0;
#X connect 71 0 11 0;
#X connect 71 1 9 1;
#X connect 71 2 9 2;
#X connect 72 0 73 0;
#X connect 73 0 2 0;
#X connect 74 0 53 1;
#X connect 74 0 54 1;
#X connect 74 0 55 1;
#X connect 74 0 56 1;
#X connect 74 0 57 1;
#X connect 74 0 58 1;
#X connect 74 0 60 1;
#X connect 74 0 59 1;
#X connect 75 0 54 0;
#X connect 76 0 74 0;
#X connect 78 0 42 0;
