#N canvas 1713 0 1718 1348 12;
#X obj 47 339 outlet~;
#X obj 47 101 inlet~;
#X obj 82 200 bng 19 250 50 0 empty empty empty 0 -10 0 12 #fcfcfc #000000 #000000;
#X obj 82 152 bng 19 250 50 0 empty empty empty 0 -10 0 12 #fcfcfc #000000 #000000;
#X obj 82 176 metro 100;
#X obj 82 223 snapshot~;
#X obj 82 129 lb;
#X obj 82 245 maxtotal;
#X obj 47 290 /~;
#X obj 47 314 *~;
#X obj 179 262 f \$1;
#X obj 179 284 == 0;
#X obj 179 240 lb;
#X obj 179 306 tgl 19 0 empty empty empty 0 -10 0 12 #fcfcfc #000000 #000000 0 1;
#X obj 140 327 spigot;
#X msg 140 286 1;
#X floatatom 140 307 5 0 0 0 - - - 0;
#X msg 47 72 0;
#X obj 48 48 lb;
#X text 115 105 Ensures the audio level stays under \$1;
#X connect 1 0 5 0;
#X connect 1 0 8 0;
#X connect 2 0 5 0;
#X connect 3 0 4 0;
#X connect 4 0 2 0;
#X connect 5 0 7 0;
#X connect 6 0 3 0;
#X connect 7 0 8 1;
#X connect 8 0 9 0;
#X connect 9 0 0 0;
#X connect 10 0 11 0;
#X connect 10 0 9 1;
#X connect 11 0 13 0;
#X connect 12 0 10 0;
#X connect 12 0 15 0;
#X connect 13 0 14 1;
#X connect 14 0 9 1;
#X connect 15 0 16 0;
#X connect 16 0 14 0;
#X connect 17 0 1 0;
#X connect 18 0 17 0;
