#N canvas 1713 0 1718 1348 12;
#X obj 122 196 unpack f f f f f f f f f f f f f f;
#X floatatom 43 211 4 0 0 0 - - \$0-freq 0;
#X obj 105 15 inlet;
#X obj 110 504 outlet~;
#X obj 69 266 hp 1;
#X obj 36 266 hp 0;
#X obj 102 266 hp 2;
#X obj 135 266 hp 3;
#X obj 168 266 hp 4;
#X obj 201 266 hp 5;
#X obj 234 266 hp 6;
#X obj 267 266 hp 7;
#X obj 300 266 hp 8;
#X obj 333 266 hp 9;
#X obj 366 266 hp 10;
#X obj 406 266 hp 11;
#X obj 446 266 hp 12;
#X obj 173 401 clone harmonic 13;
#X obj 110 436 +~;
#X obj 110 483 normalizer~ 1;
#X floatatom 110 379 5 0 0 0 - \$0-freq - 0;
#X floatatom 61 241 2 0 0 0 - \$0-freq - 0;
#X floatatom 94 241 2 0 0 0 - \$0-freq - 0;
#X floatatom 127 241 2 0 0 0 - \$0-freq - 0;
#X floatatom 160 241 2 0 0 0 - \$0-freq - 0;
#X floatatom 193 241 2 0 0 0 - \$0-freq - 0;
#X floatatom 226 241 2 0 0 0 - \$0-freq - 0;
#X floatatom 259 241 2 0 0 0 - \$0-freq - 0;
#X floatatom 292 241 2 0 0 0 - \$0-freq - 0;
#X floatatom 325 241 2 0 0 0 - \$0-freq - 0;
#X floatatom 358 241 2 0 0 0 - \$0-freq - 0;
#X floatatom 398 241 2 0 0 0 - \$0-freq - 0;
#X floatatom 438 241 2 0 0 0 - \$0-freq - 0;
#X floatatom 478 241 2 0 0 0 - \$0-freq - 0;
#X obj 105 39 t b l;
#X obj 471 111 tgl 19 0 empty empty empty 0 -10 0 12 #fcfcfc #000000 #000000 0 1;
#X obj 257 76 bng 19 250 50 0 empty empty empty 0 -10 0 12 #fcfcfc #000000 #000000;
#X obj 432 135 spigot;
#X listbox 257 124 20 0 0 0 - - - 0;
#X listbox 432 163 20 0 0 0 - - - 0;
#X obj 44 161 f;
#X msg 110 160 \$1 0 0 0 0 0 0 0 0 0 0 0 0 0;
#X obj 257 103 delay 1;
#X obj 471 90 delay 2;
#X text 498 124 input sanitizer;
#X text 155 19 list of freq and 13 amplitudes of overtones;
#X obj 110 402 phasor~;
#X connect 0 0 1 0;
#X connect 0 0 40 1;
#X connect 0 1 5 0;
#X connect 0 2 4 0;
#X connect 0 3 6 0;
#X connect 0 4 7 0;
#X connect 0 5 8 0;
#X connect 0 6 9 0;
#X connect 0 7 10 0;
#X connect 0 8 11 0;
#X connect 0 9 12 0;
#X connect 0 10 13 0;
#X connect 0 11 14 0;
#X connect 0 12 15 0;
#X connect 0 13 16 0;
#X connect 2 0 34 0;
#X connect 4 0 17 0;
#X connect 5 0 17 0;
#X connect 6 0 17 0;
#X connect 7 0 17 0;
#X connect 8 0 17 0;
#X connect 9 0 17 0;
#X connect 10 0 17 0;
#X connect 11 0 17 0;
#X connect 12 0 17 0;
#X connect 13 0 17 0;
#X connect 14 0 17 0;
#X connect 15 0 17 0;
#X connect 16 0 17 0;
#X connect 17 0 18 0;
#X connect 18 0 19 0;
#X connect 19 0 3 0;
#X connect 20 0 46 0;
#X connect 21 0 5 1;
#X connect 22 0 4 1;
#X connect 23 0 6 1;
#X connect 24 0 7 1;
#X connect 25 0 8 1;
#X connect 26 0 9 1;
#X connect 27 0 10 1;
#X connect 28 0 11 1;
#X connect 29 0 12 1;
#X connect 30 0 13 1;
#X connect 31 0 14 1;
#X connect 32 0 15 1;
#X connect 33 0 16 1;
#X connect 34 0 36 0;
#X connect 34 0 40 0;
#X connect 34 1 38 0;
#X connect 35 0 37 1;
#X connect 36 0 35 0;
#X connect 36 0 42 0;
#X connect 36 0 43 0;
#X connect 37 0 39 0;
#X connect 38 0 37 0;
#X connect 39 0 0 0;
#X connect 40 0 41 0;
#X connect 41 0 39 0;
#X connect 42 0 38 0;
#X connect 43 0 35 0;
#X connect 46 0 18 0;
