#N canvas 1145 500 3440 1357 12;
#X obj 216 232 snapshot~;
#X obj 108 121 bng 19 250 50 0 empty empty empty 0 -10 0 12 #fcfcfc #000000 #000000;
#X floatatom 101 141 5 0 0 0 - - - 0;
#X obj 162 68 inlet;
#X obj 37 37 inlet~;
#X obj 101 168 outlet;
#X connect 0 0 2 0;
#X connect 1 0 0 0;
#X connect 2 0 5 0;
#X connect 3 0 1 0;
#X connect 4 0 0 0;
#X coords 0 -1 1 1 38 40 2 100 120;
