#N canvas -7 0 2081 1348 12;
#X obj 13 10 inlet;
#X obj 277 496 outlet~;
#X obj 13 34 unpack f f;
#X floatatom 80 57 2 0 0 0 - - \$0-state 0;
#X floatatom 13 57 3 0 0 0 - - - 0;
#X obj 295 446 line~;
#X obj 277 469 *~;
#X obj 368 30 inlet;
#X text 415 30 params;
#X text 60 9 midi;
#X obj 368 54 unpack f f f f f f;
#X text 505 54 8v v a d s r;
#X obj 417 106 adsr;
#X obj 417 81 pack f f f f;
#X floatatom 392 76 2 0 0 0 - - \$0-voice 0;
#X floatatom 368 76 2 0 0 0 - - \$0-8v 0;
#X floatatom 31 78 2 0 0 0 - \$0-8v - 0;
#X text 48 78 8v;
#X floatatom 407 292 2 0 0 0 - \$0-voice - 0;
#X text 425 291 voice;
#X obj 295 423 pack f f;
#X obj 548 94 s \$0-release;
#X obj 348 400 r \$0-release;
#X obj 31 101 * 12;
#X text 92 31 note on/off;
#X obj 13 124 +;
#X obj 13 148 mtof;
#X floatatom 13 172 5 0 0 0 - - \$0-freq 0;
#X floatatom 295 401 2 0 0 0 - \$0-state - 0;
#X text 278 205 2 table lookup oscillators;
#X obj 417 137 s~ \$0-adsr;
#X obj 277 376 r~ \$0-adsr;
#X obj 192 356 tabread4~;
#X obj 108 331 tabplay~ \$0-buffer;
#X obj 104 292 bng 19 250 50 0 empty empty empty 0 -10 0 12 #fcfcfc #000000 #000000;
#X obj 108 355 vum;
#X obj 108 510 dac~;
#N canvas -485 658 3440 1256 arrayetc 0;
#X obj 285 88 tabsend~;
#X obj 24 122 tabsend~ \$0-buffer;
#X obj 78 78 inlet~;
#X obj 336 175 array define \$0-buffer 8192;
#X obj 289 47 block~ 8192;
#X connect 2 0 1 0;
#X restore 258 259 pd arrayetc;
#X obj 407 312 voicehandler;
#X floatatom 486 290 3 0 0 0 - \$0-freq - 0;
#X obj 629 291 sinesum;
#X obj 584 377 vum;
#X obj 776 371 line~;
#X msg 776 343 0 \, 1 100;
#X obj 629 316 *~;
#X msg 569 240 0;
#X obj 586 541 dac~;
#X msg 600 153 1 1 0.5 0.33333 0.25 0.2 0.166667 0.142857 0.125 0.11111 0.1 0.0909091 0.0833333 0.076923;
#X obj 703 243 bng 19 250 50 0 empty empty empty 0 -10 0 12 #fcfcfc #000000 #000000;
#X msg 731 299 0 10 0.5;
#X msg 789 225 40;
#X msg 698 210 40 1 1 1;
#X connect 0 0 2 0;
#X connect 2 0 4 0;
#X connect 2 1 3 0;
#X connect 4 0 25 0;
#X connect 5 0 6 1;
#X connect 6 0 1 0;
#X connect 7 0 10 0;
#X connect 10 0 15 0;
#X connect 10 1 14 0;
#X connect 10 2 13 0;
#X connect 10 3 13 1;
#X connect 10 4 13 2;
#X connect 10 5 13 3;
#X connect 10 5 21 0;
#X connect 12 0 30 0;
#X connect 13 0 12 0;
#X connect 16 0 23 0;
#X connect 18 0 38 0;
#X connect 20 0 5 0;
#X connect 22 0 20 1;
#X connect 23 0 25 1;
#X connect 25 0 26 0;
#X connect 26 0 27 0;
#X connect 28 0 20 0;
#X connect 31 0 6 0;
#X connect 33 0 35 0;
#X connect 34 0 33 0;
#X connect 35 0 36 0;
#X connect 40 0 44 0;
#X connect 41 0 46 0;
#X connect 41 0 46 1;
#X connect 42 0 44 1;
#X connect 43 0 42 0;
#X connect 44 0 37 0;
#X connect 44 0 41 0;
#X connect 45 0 40 0;
#X connect 47 0 40 0;
#X connect 47 0 48 0;
#X connect 48 0 49 0;
#X connect 48 0 43 0;
#X connect 49 0 41 1;
#X connect 50 0 40 0;
#X connect 50 0 48 0;
#X connect 51 0 48 0;
#X connect 51 0 40 0;
