#N canvas 332 275 3440 1357 12;
#X obj 21 12 inlet;
#X obj 258 396 outlet~;
#X floatatom 46 61 2 0 0 0 - - \$0-state 0;
#X floatatom 21 60 3 0 0 0 - - - 0;
#X text 68 11 midi;
#X obj 430 135 unpack f f f f f f;
#X obj 477 234 adsr;
#X floatatom 452 186 2 0 0 0 - - \$0-voice 0;
#X floatatom 428 186 2 0 0 0 - - \$0-8v 0;
#X floatatom 39 81 2 0 0 0 - \$0-8v - 0;
#X text 56 81 8v;
#X floatatom 258 167 2 0 0 0 - \$0-voice - 0;
#X text 276 166 voice;
#X obj 39 104 * 12;
#X text 182 34 note on/off;
#X obj 21 127 +;
#X obj 21 152 mtof;
#X floatatom 21 200 5 0 0 0 - - \$0-freq 0;
#X obj 477 265 s~ \$0-adsr;
#X obj 290 263 r~ \$0-adsr;
#X obj 135 287 vum;
#X obj 135 457 dac~;
#X obj 258 235 voicehandler;
#X floatatom 321 164 6 0 0 0 - \$0-freq - 0;
#X text 266 34 8v voice a d s r;
#X text 366 163 Freq;
#X obj 258 210 pack f f;
#X obj 21 176 *;
#X obj 76 152 t b f;
#X obj 21 37 unpack f f f f f f f f;
#X floatatom 81 107 2 0 0 0 - bendin - 0;
#X text 159 120 Bendin;
#X obj 83 78 pack f f f f f f;
#X floatatom 225 68 5 0 0 0 - - \$0-release 0;
#X obj 258 312 *~;
#X obj 321 187 t b f;
#X obj 478 190 pack f f f f f;
#X msg 514 166 0.7;
#X obj 125 114 lb;
#X floatatom 81 130 5 0 0 0 - - - 0;
#X msg 142 152 1;
#X obj 677 350 tester~;
#X obj 182 142 loadbang;
#X floatatom 380 316 2 0 0 0 - \$0-state - 0;
#X obj 323 311 line~;
#X msg 380 356 \$1 100;
#X obj 290 287 *~;
#X obj 422 82 spigot;
#X obj 464 24 tgl 19 0 empty \$0-state empty 0 -10 0 12 #fcfcfc #000000 #000000 0 1;
#X obj 518 65 &&;
#N canvas 208 208 3440 1357 dlist 1;
#X obj 642 138 t b l;
#X obj 641 184 list;
#X obj 496 394 list;
#X obj 521 367 spigot;
#X obj 515 210 tgl 19 0 empty empty empty 0 -10 0 12 #fcfcfc #000000 #000000 0 1;
#X obj 515 159 bng 19 250 50 0 empty empty empty 0 -10 0 12 #fcfcfc #000000 #000000;
#X listbox 496 418 20 0 0 0 - - - 0;
#X obj 750 357 bng 19 250 50 0 empty empty empty 0 -10 0 12 #fcfcfc #000000 #000000;
#X listbox 641 222 20 0 0 0 - - - 0;
#X obj 631 105 inlet;
#X obj 496 441 outlet;
#X obj 536 182 delay 2;
#X obj 641 161 delay;
#X connect 0 0 5 0;
#X connect 0 0 12 0;
#X connect 0 1 1 1;
#X connect 1 0 8 0;
#X connect 1 0 3 0;
#X connect 2 0 6 0;
#X connect 3 0 2 0;
#X connect 3 0 7 0;
#X connect 4 0 3 1;
#X connect 5 0 4 0;
#X connect 5 0 11 0;
#X connect 6 0 10 0;
#X connect 9 0 0 0;
#X connect 11 0 4 0;
#X connect 12 0 1 0;
#X restore 319 75 pd dlist;
#X floatatom 675 107 5 0 0 0 - - - 0;
#X msg 675 130;
#X obj 487 106 bng 19 250 50 0 empty empty empty 0 -10 0 12 #fcfcfc #000000 #000000;
#X connect 0 0 29 0;
#X connect 3 0 15 0;
#X connect 5 0 8 0;
#X connect 5 0 37 0;
#X connect 5 1 7 0;
#X connect 5 2 36 0;
#X connect 5 3 36 1;
#X connect 5 4 36 3;
#X connect 5 5 36 4;
#X connect 6 0 18 0;
#X connect 9 0 13 0;
#X connect 11 0 26 0;
#X connect 13 0 15 1;
#X connect 15 0 16 0;
#X connect 16 0 27 0;
#X connect 19 0 46 0;
#X connect 20 0 21 0;
#X connect 20 0 21 1;
#X connect 22 0 34 0;
#X connect 23 0 35 0;
#X connect 26 0 22 0;
#X connect 27 0 17 0;
#X connect 28 0 27 0;
#X connect 28 1 27 1;
#X connect 29 0 3 0;
#X connect 29 1 2 0;
#X connect 29 2 32 0;
#X connect 29 3 32 1;
#X connect 29 4 32 2;
#X connect 29 5 32 3;
#X connect 29 6 32 4;
#X connect 29 7 32 5;
#X connect 29 7 33 0;
#X connect 30 0 39 0;
#X connect 32 0 50 0;
#X connect 34 0 20 0;
#X connect 34 0 1 0;
#X connect 35 0 26 0;
#X connect 35 1 26 1;
#X connect 36 0 6 0;
#X connect 37 0 36 2;
#X connect 38 0 40 0;
#X connect 39 0 28 0;
#X connect 40 0 39 0;
#X connect 42 0 40 0;
#X connect 43 0 45 0;
#X connect 44 0 46 1;
#X connect 45 0 44 0;
#X connect 46 0 34 1;
#X connect 47 0 5 0;
#X connect 47 0 53 0;
#X connect 48 0 47 1;
#X connect 50 0 47 0;
#X connect 51 0 52 0;
#X coords 0 0 0.125 0.125 0 0 0;
