#N canvas 286 178 3440 1357 12;
#X obj 100 100 voice;
#X obj 270 100 voice;
#X obj 440 100 voice;
#X obj 610 100 voice;
#X obj 780 100 voice;
#X obj 950 100 voice;
#X obj 1120 100 voice;
#X obj 1290 100 voice;
#X msg 280 61 1;
#X msg 443 69 2;
#X msg 613 76 3;
#X msg 782 75 4;
#X msg 949 74 5;
#X msg 1291 71 7;
#X msg 1120 68 6;
#X obj 815 806 midi;
#X msg 114 43 0;
#X msg 183 27 \; pd dsp 1;
#X obj 439 11 loadbang;
#X obj 25 100 vum;
#X obj 32 31 dac~;
#X floatatom 35 268 5 0 0 2 All\ Durs - alldur 0;
#X msg 322 23 0 1 0.25;
#X obj 628 291 spectrogram~;
#X obj 786 890 tgl 19 0 empty empty empty 0 -10 0 12 #fcfcfc #000000 #000000 0 1;
#X msg 785 863 1;
#X obj 784 839 loadbang;
#X connect 0 0 15 0;
#X connect 1 0 15 0;
#X connect 2 0 15 0;
#X connect 3 0 15 0;
#X connect 4 0 15 0;
#X connect 5 0 15 0;
#X connect 6 0 15 0;
#X connect 7 0 15 0;
#X connect 8 0 1 0;
#X connect 9 0 2 0;
#X connect 10 0 3 0;
#X connect 11 0 4 0;
#X connect 12 0 5 0;
#X connect 13 0 7 0;
#X connect 14 0 6 0;
#X connect 15 0 19 0;
#X connect 15 0 23 0;
#X connect 16 0 0 0;
#X connect 18 0 8 0;
#X connect 18 0 16 0;
#X connect 18 0 17 0;
#X connect 18 0 9 0;
#X connect 18 0 10 0;
#X connect 18 0 11 0;
#X connect 18 0 12 0;
#X connect 18 0 14 0;
#X connect 18 0 13 0;
#X connect 18 0 22 0;
#X connect 19 0 20 0;
#X connect 19 0 20 1;
#X connect 22 0 19 1;
#X connect 24 0 23 2;
#X connect 25 0 24 0;
#X connect 26 0 25 0;
#X coords 0 -1 1 1 1433 391 2 25 100;
