#N canvas 528 6 3440 1357 12;
#X obj 100 121 hradio 21 1 0 8 empty empty Voice 64 -10 0 12 #fcfcfc #000000 #000000 0;
#X obj 103 215 hsl 163 19 0 127 0 0 empty empty Attack 60 10 0 12 #fcfcfc #000000 #000000 0 1;
#X obj 103 234 hsl 163 19 0 127 0 0 empty empty Decay 60 10 0 12 #fcfcfc #000000 #000000 0 1;
#X obj 103 253 hsl 163 19 0 127 0 0 empty empty Sustain 60 10 0 12 #fcfcfc #000000 #000000 0 1;
#X obj 103 272 hsl 163 19 0 127 0 0 empty empty Release 60 10 0 12 #fcfcfc #000000 #000000 0 1;
#X obj 104 48 inlet;
#X obj 100 147 hradio 21 1 0 4 empty empty Waveform 98 10 0 12 #fcfcfc #000000 #000000 0;
#X obj 103 196 hsl 163 19 -2 2 0 0 empty empty Octave 60 10 0 12 #fcfcfc #000000 #000000 0 1;
#X obj 604 391 wrap;
#X floatatom 604 415 5 0 0 0 - - - 0;
#X obj 586 456 -;
#X floatatom 586 480 5 0 0 0 - - - 0;
#X obj 789 608 pack f f f f f f f;
#X obj 789 632 outlet;
#X msg 367 97 0.5;
#X obj 367 121 scale 0 1 0 127;
#X floatatom 367 145 5 0 0 0 - - - 0;
#X msg 323 98 0;
#X obj 379 23 loadbang;
#X listbox 795 664 44 0 0 0 - - - 0;
#X obj 697 535 t b f;
#X obj 736 535 t b f;
#X obj 775 535 t b f;
#X obj 814 535 t b f;
#X obj 853 535 t b f;
#X obj 892 535 t b f;
#X obj 931 535 t b f;
#X obj 823 568 bng 19 250 50 0 empty empty empty 0 -10 0 12 #fcfcfc #000000 #000000;
#X floatatom 101 170 6 0 1e+06 1 Length(MS) - \$0-vdur 16;
#X floatatom 335 218 5 0 0 0 - - - 0;
#X floatatom 374 218 5 0 0 0 - - - 0;
#X floatatom 413 217 5 0 0 0 - - - 0;
#X floatatom 453 217 5 0 0 0 - - - 0;
#X floatatom 773 110 5 0 0 0 - - - 0;
#X floatatom 811 110 5 0 0 0 - - - 0;
#X floatatom 849 111 5 0 0 0 - - - 0;
#X obj 641 157 scale 0 127 0 1;
#X obj 752 157 scale 0 127 0 1;
#X obj 863 157 scale 0 127 0 1;
#X floatatom 641 181 5 0 0 0 - - - 0;
#X floatatom 752 181 5 0 0 0 - - - 0;
#X floatatom 863 181 5 0 0 0 - - - 0;
#X obj 641 204 t b f;
#X obj 752 204 t b f;
#X obj 863 204 t b f;
#X obj 702 233 +;
#X floatatom 702 257 5 0 0 0 - - - 0;
#X obj 770 289 +;
#X floatatom 770 345 5 0 0 0 - - - 0;
#X obj 722 421 /;
#X obj 834 421 /;
#X obj 770 368 t b f;
#X obj 774 422 /;
#X floatatom 834 445 5 0 0 0 - - - 0;
#X floatatom 774 446 5 0 0 0 - - - 0;
#X floatatom 722 445 5 0 0 0 - - - 0;
#X obj 722 468 *;
#X obj 774 469 *;
#X obj 834 468 *;
#X obj 979 382 t b f;
#X floatatom 722 492 5 0 0 0 - - - 0;
#X floatatom 774 493 5 0 0 0 - - - 0;
#X floatatom 834 492 5 0 0 0 - - - 0;
#X text 756 76 A D S R;
#X floatatom 887 111 5 0 0 0 - - - 0;
#X obj 973 157 scale 0 127 0 1;
#X floatatom 973 181 5 0 0 0 - - - 0;
#X obj 973 204 t b f;
#X obj 770 313 +;
#X floatatom 963 332 5 0 0 0 - \$0-vdur - 0;
#X obj 890 421 /;
#X floatatom 890 445 5 0 0 0 - - - 0;
#X obj 890 468 *;
#X floatatom 890 492 5 0 0 0 - - - 0;
#X msg 279 52 500;
#X floatatom 35 130 5 0 0 0 - alldur - 0;
#X connect 0 0 20 0;
#X connect 1 0 29 0;
#X connect 2 0 30 0;
#X connect 3 0 31 0;
#X connect 4 0 32 0;
#X connect 5 0 0 0;
#X connect 6 0 21 0;
#X connect 7 0 8 0;
#X connect 7 0 10 0;
#X connect 8 0 9 0;
#X connect 9 0 10 1;
#X connect 10 0 11 0;
#X connect 11 0 22 0;
#X connect 12 0 13 0;
#X connect 12 0 19 0;
#X connect 14 0 15 0;
#X connect 15 0 16 0;
#X connect 16 0 1 0;
#X connect 16 0 2 0;
#X connect 16 0 3 0;
#X connect 16 0 4 0;
#X connect 17 0 7 0;
#X connect 18 0 14 0;
#X connect 18 0 17 0;
#X connect 18 0 74 0;
#X connect 20 0 27 0;
#X connect 20 1 12 0;
#X connect 21 0 27 0;
#X connect 21 1 12 1;
#X connect 22 0 27 0;
#X connect 22 1 12 2;
#X connect 23 0 27 0;
#X connect 23 1 12 3;
#X connect 24 0 27 0;
#X connect 24 1 12 4;
#X connect 25 0 27 0;
#X connect 25 1 12 5;
#X connect 26 0 27 0;
#X connect 26 1 12 6;
#X connect 27 0 12 0;
#X connect 29 0 33 0;
#X connect 30 0 34 0;
#X connect 31 0 35 0;
#X connect 32 0 64 0;
#X connect 33 0 36 0;
#X connect 34 0 37 0;
#X connect 35 0 38 0;
#X connect 36 0 39 0;
#X connect 37 0 40 0;
#X connect 38 0 41 0;
#X connect 39 0 42 0;
#X connect 40 0 43 0;
#X connect 41 0 44 0;
#X connect 42 1 45 0;
#X connect 42 1 49 0;
#X connect 43 0 45 0;
#X connect 43 1 45 1;
#X connect 43 1 52 0;
#X connect 44 0 47 0;
#X connect 44 1 47 1;
#X connect 44 1 50 0;
#X connect 45 0 46 0;
#X connect 46 0 47 0;
#X connect 47 0 68 0;
#X connect 48 0 51 0;
#X connect 49 0 55 0;
#X connect 50 0 53 0;
#X connect 51 0 49 0;
#X connect 51 0 52 0;
#X connect 51 0 50 0;
#X connect 51 0 70 0;
#X connect 51 1 52 1;
#X connect 51 1 50 1;
#X connect 51 1 49 1;
#X connect 51 1 70 1;
#X connect 52 0 54 0;
#X connect 53 0 58 0;
#X connect 54 0 57 0;
#X connect 55 0 56 0;
#X connect 56 0 60 0;
#X connect 57 0 61 0;
#X connect 58 0 62 0;
#X connect 59 0 56 0;
#X connect 59 0 57 0;
#X connect 59 0 58 0;
#X connect 59 0 72 0;
#X connect 59 1 58 1;
#X connect 59 1 57 1;
#X connect 59 1 56 1;
#X connect 59 1 72 1;
#X connect 60 0 23 0;
#X connect 61 0 24 0;
#X connect 62 0 25 0;
#X connect 64 0 65 0;
#X connect 65 0 66 0;
#X connect 66 0 67 0;
#X connect 67 0 68 0;
#X connect 67 1 68 1;
#X connect 67 1 70 0;
#X connect 68 0 48 0;
#X connect 69 0 59 0;
#X connect 70 0 71 0;
#X connect 71 0 72 0;
#X connect 72 0 73 0;
#X connect 73 0 26 0;
#X connect 74 0 28 0;
#X connect 75 0 28 0;
#X coords 0 -1 1 1 168 191 2 100 100;
