#N canvas 182 182 3440 1357 12;
#X obj 347 48 inlet;
#X text 350 23 Sustain over;
#X obj 71 30 inlet;
#X obj 21 385 line~;
#X obj 21 408 outlet~;
#X obj 71 54 unpack f f f f f;
#X text 207 54 a dt da (s) r;
#X obj 80 155 delay;
#X obj 21 198 pack f f;
#X msg 21 176 1;
#X msg 21 220 \$1 \$2;
#X obj 107 213 pack f f;
#X msg 107 237 \$1 \$2;
#X obj 80 134 t b f;
#X obj 107 190 f;
#X obj 126 309 pack f f;
#X msg 126 288 0;
#X obj 347 72 bng 19 250 50 0 \$0-over empty empty 0 -10 0 12 #fcfcfc #000000 #000000;
#X obj 126 267 bng 19 250 50 0 empty \$0-over empty 0 -10 0 12 #fcfcfc #000000 #000000;
#X msg 126 333 \$1 \$2;
#X obj 21 155 t b f b;
#X obj 60 277 tgl 19 0 empty empty empty 0 -10 0 12 #fcfcfc #000000 #000000 0 1;
#X msg 60 256 1;
#X obj 21 362 spigot;
#X obj 86 284 bng 19 250 50 0 empty \$0-over empty 0 -10 0 12 #fcfcfc #000000 #000000;
#X msg 86 305 0;
#X msg 152 13 1000 200 0.8 200 1000;
#X connect 0 0 17 0;
#X connect 2 0 5 0;
#X connect 3 0 4 0;
#X connect 5 0 13 0;
#X connect 5 0 20 0;
#X connect 5 1 11 1;
#X connect 5 2 14 1;
#X connect 5 4 15 1;
#X connect 7 0 14 0;
#X connect 8 0 10 0;
#X connect 9 0 8 0;
#X connect 10 0 23 0;
#X connect 11 0 12 0;
#X connect 12 0 23 0;
#X connect 13 0 7 0;
#X connect 13 1 7 1;
#X connect 14 0 11 0;
#X connect 15 0 19 0;
#X connect 16 0 15 0;
#X connect 18 0 16 0;
#X connect 19 0 3 0;
#X connect 20 0 9 0;
#X connect 20 1 8 1;
#X connect 20 2 22 0;
#X connect 21 0 23 1;
#X connect 22 0 21 0;
#X connect 23 0 3 0;
#X connect 24 0 25 0;
#X connect 25 0 21 0;
#X connect 26 0 5 0;
