#N canvas 3436 1393 3440 1357 12;
#X obj 28 61 inlet~;
#X obj 28 19 loadbang;
#X msg 28 40 0;
#X obj 251 24 inlet;
#X obj 238 102 s \$0-delay;
#X obj 313 102 s \$0-fb;
#X obj 239 156 r \$0-delay;
#X obj 257 203 r \$0-fb;
#X obj 269 264 delwrite~ \$0-delay 1000;
#X obj 239 181 delread~ \$0-delay;
#X obj 28 83 s~ \$0-input;
#X obj 269 242 r~ \$0-input;
#X obj 121 344 r~ \$0-input;
#X obj 239 225 *~;
#X obj 121 365 outlet~;
#X text 117 385 Original wave // just delay;
#X obj 251 70 unpack f f f;
#X obj 239 362 outlet~;
#X obj 367 102 s \$0-wet;
#X text 351 71 Delay / Feedback / Wet;
#X obj 239 338 *~;
#X obj 257 315 r \$0-wet;
#X connect 0 0 10 0;
#X connect 1 0 2 0;
#X connect 2 0 0 0;
#X connect 3 0 16 0;
#X connect 6 0 9 0;
#X connect 7 0 13 1;
#X connect 9 0 13 0;
#X connect 11 0 8 0;
#X connect 12 0 14 0;
#X connect 13 0 8 0;
#X connect 13 0 20 0;
#X connect 16 0 4 0;
#X connect 16 1 5 0;
#X connect 16 2 18 0;
#X connect 20 0 17 0;
#X connect 21 0 20 1;
#X coords 0 1357 1 1356 115 54 0;
