#N canvas 882 1385 3440 1357 12;
#X obj 103 103 hradio 44 1 0 3 \$0-instrum \$0-akjsnf empty 0 -10 0 12 #c6feff #0400ff #000000 0;
#X text 109 148 Bass Guitar Vocal;
#X text 116 167 Register (Midi);
#X text 121 186 Low;
#X text 181 186 High;
#X text 103 248 Duration(ms);
#X floatatom 194 245 4 0 0 0 - \$0-garbageda \$0-vdur 16;
#X obj 107 275 hsl 125 26 0 1 0 0 \$0-attack empty Attack 40 14 0 12 #c6feff #0400ff #000000 0 1;
#X obj 107 301 hsl 125 26 0 1 0 0 \$0-decayt empty Decay(ms) 33 14 0 12 #c6feff #0400ff #000000 0 1;
#X obj 107 327 hsl 125 26 0 1 0 0 \$0-decaya empty Decay(%) 35 14 0 12 #c6feff #0400ff #000000 0 1;
#X obj 107 353 hsl 125 26 0 1 0 0 \$0-sustainui empty Sustain 37 14 0 12 #c6feff #0400ff #000000 0 1;
#X obj 107 379 hsl 125 26 0 1 0 0 \$0-release empty Release 37 14 0 12 #c6feff #0400ff #000000 0 1;
#X obj 104 411 vsl 44 251 0 1 0 0 empty empty Volume 1 125 0 12 #c6feff #0400ff #000000 0 1;
#N canvas 3297 184 3440 1357 mute 0;
#X obj 100 100 tgl 40 0 \$0-sendmute \$0-garbagerec Mute 6 20 0 12 #c6feff #0400ff #000000 0 1;
#X obj 89 166 tgl 19 0 empty \$0-sendmute empty 0 -10 0 12 #fcfcfc #000000 #000000 0 1;
#X obj 89 190 outlet;
#X connect 1 0 2 0;
#X coords 0 -1 1 1 40 40 2 100 100;
#X restore 104 669 pd mute;
#X obj 13 667 loadbang;
#X floatatom 9 574 5 0 0 0 - - - 0;
#X obj 9 597 *;
#X floatatom 9 621 5 0 0 0 - - \$0-volume 0;
#X msg 52 570 1;
#X obj 51 594 -;
#X obj 51 541 t b f;
#X floatatom 51 618 5 0 0 0 - - - 0;
#X msg 253 467 vis 1 \;;
#X obj 161 409 bng 60 250 50 0 empty empty empty 0 -10 0 12 #fcfcfc #000000 #000000;
#X obj 151 408 cnv 2 83 62 empty empty Filters 17 31 0 12 #000000 #c6feff 0;
#X obj 161 474 bng 60 250 50 0 empty empty empty 0 -10 0 12 #fcfcfc #000000 #000000;
#X obj 151 473 cnv 2 83 62 empty empty Harmony 17 31 0 12 #000000 #c6feff 0;
#X obj 161 539 bng 60 250 50 0 empty empty empty 0 -10 0 12 #fcfcfc #000000 #000000;
#X obj 151 538 cnv 2 83 62 empty empty Delay 23 31 0 12 #000000 #c6feff 0;
#X obj 161 604 bng 60 250 50 0 empty empty empty 0 -10 0 12 #fcfcfc #000000 #000000;
#X obj 151 603 cnv 2 83 62 empty empty Modulator 11 31 0 12 #000000 #c6feff 0;
#N canvas -193 227 3440 1357 mute 0;
#X obj 100 100 tgl 40 0 \$0-sendsustain \$0-garbagerec Sustain 3 20 0 8 #c6feff #0400ff #000000 0 1;
#X obj 89 166 tgl 19 0 empty \$0-sendsustain empty 0 -10 0 12 #fcfcfc #000000 #000000 0 1;
#X obj 89 190 outlet;
#X connect 1 0 2 0;
#X coords 0 -1 1 1 40 40 2 100 100;
#X restore 194 669 pd mute;
#N canvas -774 164 3440 1357 mute 0;
#X obj 100 100 tgl 40 0 \$0-senddetune \$0-garbagerec Detune 2 20 0 10 #c6feff #0400ff #000000 0 1;
#X obj 89 166 tgl 19 0 empty \$0-senddetune empty 0 -10 0 12 #fcfcfc #000000 #000000 0 1;
#X obj 89 190 outlet;
#X connect 1 0 2 0;
#X coords 0 -1 1 1 40 40 2 100 100;
#X restore 149 669 pd mute;
#X obj 266 768 tgl 19 0 \$0-detune empty empty 0 -10 0 12 #fcfcfc #000000 #000000 0 1;
#X obj 265 734 tgl 19 0 \$0-sustain empty empty 0 -10 0 12 #fcfcfc #000000 #000000 0 1;
#X msg 254 533 vis 1 \;;
#X msg 254 598 vis 1 \;;
#X msg 254 663 vis 1 \;;
#N canvas 1930 573 3440 1357 \$0-filters 1;
#X text 4 5 Filters;
#N canvas 2534 312 3440 1357 filter 0;
#X obj 120 100 hradio 23 1 0 3 empty empty empty 0 -10 0 12 #ff80ff #000000 #000000 0;
#X floatatom 115 146 5 0 0 0 - - - 0;
#X floatatom 160 146 5 0 0 0 - - - 0;
#X text 102 163 Low HZ;
#X text 151 164 High HZ;
#X obj 177 277 outlet;
#X obj 144 246 pack f f f;
#X obj 157 202 t b f;
#X obj 218 206 t b f;
#X text 110 123 LowP LH HiP;
#X obj 371 222 lop~;
#X msg 293 58 2;
#X msg 271 102 20000;
#X obj 244 30 loadbang;
#X connect 0 0 6 0;
#X connect 1 0 7 0;
#X connect 2 0 8 0;
#X connect 6 0 5 0;
#X connect 7 0 6 0;
#X connect 7 1 6 1;
#X connect 8 0 6 0;
#X connect 8 1 6 2;
#X connect 11 0 0 0;
#X connect 12 0 2 0;
#X connect 13 0 11 0;
#X connect 13 0 12 0;
#X coords 0 -1 1 1 110 85 2 100 100;
#X restore 12 30 pd filter;
#X obj 42 115 outlet;
#X connect 1 0 2 0;
#X coords 0 0 0.5 0.5 0 0 0;
#X restore 310 294 pd \$0-filters;
#X obj 253 488 s pd-\$0-filters;
#N canvas 1283 39 365 267 \$0-harmony 0;
#N canvas -92 353 3440 1192 filter 0;
#X obj 153 384 outlet;
#X obj 202 269 t b f;
#X obj 263 273 t b f;
#X floatatom 107 124 5 -127 127 0 - - - 0;
#X floatatom 157 124 5 -127 127 0 - - - 0;
#X floatatom 206 124 5 -127 127 0 - - - 0;
#X text 103 102 Intervals(semitones);
#X obj 117 164 tgl 19 0 empty empty empty 0 -10 0 12 #fcfcfc #000000 #000000 0 1;
#X obj 166 164 tgl 19 0 empty empty empty 0 -10 0 12 #fcfcfc #000000 #000000 0 1;
#X obj 215 164 tgl 19 0 empty empty empty 0 -10 0 12 #fcfcfc #000000 #000000 0 1;
#X obj 306 274 t b f;
#X obj 367 278 t b f;
#X obj 418 277 t b f;
#X obj 120 353 pack f f f f f f;
#X msg 210 54 12;
#X msg 155 53 7;
#X msg 105 54 4;
#X obj 149 19 loadbang;
#X text 107 143 0.5x;
#X text 155 142 0.33x;
#X text 203 142 0.25x;
#X connect 1 0 13 0;
#X connect 1 1 13 1;
#X connect 2 0 13 0;
#X connect 2 1 13 2;
#X connect 3 0 13 0;
#X connect 4 0 1 0;
#X connect 5 0 2 0;
#X connect 7 0 10 0;
#X connect 8 0 11 0;
#X connect 9 0 12 0;
#X connect 10 0 13 0;
#X connect 10 1 13 3;
#X connect 11 0 13 0;
#X connect 11 1 13 4;
#X connect 12 0 13 0;
#X connect 12 1 13 5;
#X connect 13 0 0 0;
#X connect 14 0 5 0;
#X connect 15 0 4 0;
#X connect 16 0 3 0;
#X connect 17 0 16 0;
#X connect 17 0 15 0;
#X connect 17 0 14 0;
#X coords 0 -1 1 1 150 85 2 100 100;
#X restore 7 25 pd filter;
#X obj 56 110 outlet;
#X text 5 2 Harmony;
#X connect 0 0 1 0;
#X restore 310 341 pd \$0-harmony;
#X obj 254 554 s pd-\$0-harmony;
#X obj 254 619 s pd-\$0-delay;
#X obj 254 686 s pd-\$0-modulator;
#N canvas 2837 623 291 310 \$0-delay 0;
#N canvas 1225 488 376 439 filter 0;
#X obj 153 384 outlet;
#X obj 202 269 t b f;
#X obj 263 273 t b f;
#X obj 120 353 pack f f f;
#X text 110 119 Time;
#X obj 103 141 hsl 103 19 0 1 0 0 empty empty empty -2 -10 0 12 #fcfcfc #000000 #000000 0 1;
#X text 120 162 Dry / Wet;
#N canvas 1713 0 1718 1348 discrete 0;
#X obj 159 157 expr int($f1/$f2) * $f2;
#X obj 159 185 change;
#X msg 74 143 set \$1;
#X obj 150 100 nbx 4 18 0 99 0 0 empty empty empty 0 -8 0 12 #dfdfdf #000000 #000000 0 256;
#X obj 150 100 nbx 4 18 -1e+37 1e+37 0 0 empty empty empty 0 -8 0 12 #dfdfdf #000000 #000000 0 256;
#X obj 159 52 inlet;
#X text 155 27 value;
#X obj 159 228 outlet;
#X text 362 102 The trick here is to use two number boxes. The one in the front just acts as a display \, but we're in fact interacting to the one in the background., f 29;
#X floatatom 231 231 5 0 0 0 - - - 0;
#X obj 292 86 loadbang;
#X msg 292 110 0.01;
#X obj 149 125 * 0.01;
#X connect 0 0 1 0;
#X connect 0 0 9 0;
#X connect 1 0 2 0;
#X connect 1 0 7 0;
#X connect 2 0 4 0;
#X connect 3 0 12 0;
#X connect 5 0 3 0;
#X connect 10 0 11 0;
#X connect 11 0 0 1;
#X connect 12 0 0 0;
#X coords 0 -1 1 1 54 18 2 150 100;
#X restore 154 100 pd discrete;
#N canvas -1044 385 3440 1295 discrete 0;
#X obj 159 157 expr int($f1/$f2) * $f2;
#X obj 159 185 change;
#X msg 74 143 set \$1;
#X obj 150 100 nbx 4 18 0 10000 0 0 empty empty empty 0 -8 0 12 #dfdfdf #000000 #000000 0 256;
#X obj 150 100 nbx 4 18 -1e+37 1e+37 0 0 empty empty empty 0 -8 0 12 #dfdfdf #000000 #000000 0 256;
#X obj 159 52 inlet;
#X text 155 27 value;
#X obj 159 228 outlet;
#X text 362 102 The trick here is to use two number boxes. The one in the front just acts as a display \, but we're in fact interacting to the one in the background., f 29;
#X msg 246 107 1;
#X obj 240 83 loadbang;
#X connect 0 0 1 0;
#X connect 1 0 2 0;
#X connect 1 0 7 0;
#X connect 2 0 4 0;
#X connect 3 0 0 0;
#X connect 5 0 3 0;
#X connect 9 0 0 1;
#X connect 10 0 9 0;
#X coords 0 -1 1 1 54 18 2 150 100;
#X restore 100 100 pd discrete;
#X text 160 119 Feedb;
#X connect 1 0 3 0;
#X connect 1 1 3 1;
#X connect 2 0 3 0;
#X connect 2 1 3 2;
#X connect 3 0 0 0;
#X connect 5 0 2 0;
#X connect 7 0 1 0;
#X connect 8 0 3 0;
#X coords 0 -1 1 1 108 85 2 100 100;
#X restore 7 25 pd filter;
#X obj 38 110 outlet;
#X text 5 2 Delay;
#X connect 0 0 1 0;
#X restore 310 387 pd \$0-delay;
#N canvas 549 191 3440 1357 \$0-modulator 0;
#X text 5 6 AM Modulator;
#N canvas 1461 476 3440 1357 filter 0;
#X obj 148 297 outlet;
#X obj 165 236 t b f;
#N canvas 1713 0 1718 1348 discrete 0;
#X obj 159 157 expr int($f1/$f2) * $f2;
#X obj 159 185 change;
#X msg 74 143 set \$1;
#X obj 150 100 nbx 4 18 0 100 0 0 empty empty empty 0 -8 0 12 #dfdfdf #000000 #000000 0 256;
#X obj 150 100 nbx 4 18 -1e+37 1e+37 0 0 empty empty empty 0 -8 0 12 #dfdfdf #000000 #000000 0 256;
#X obj 159 52 inlet;
#X text 155 27 value;
#X obj 159 228 outlet;
#X text 362 102 The trick here is to use two number boxes. The one in the front just acts as a display \, but we're in fact interacting to the one in the background., f 29;
#X floatatom 231 231 5 0 0 0 - - - 0;
#X obj 298 53 inlet;
#X obj 149 125 * 0.1;
#X obj 276 92 loadbang;
#X msg 301 115 0.1;
#X connect 0 0 1 0;
#X connect 0 0 9 0;
#X connect 1 0 2 0;
#X connect 1 0 7 0;
#X connect 2 0 4 0;
#X connect 3 0 11 0;
#X connect 5 0 3 0;
#X connect 10 0 0 1;
#X connect 11 0 0 0;
#X connect 12 0 13 0;
#X connect 13 0 0 1;
#X coords 0 -1 1 1 54 18 2 150 100;
#X restore 154 100 pd discrete;
#N canvas -1044 385 3440 1295 discrete 0;
#X obj 159 157 expr int($f1/$f2) * $f2;
#X obj 159 185 change;
#X msg 74 143 set \$1;
#X obj 150 100 nbx 4 18 0 10000 0 0 empty empty empty 0 -8 0 12 #dfdfdf #000000 #000000 0 256;
#X obj 150 100 nbx 4 18 -1e+37 1e+37 0 0 empty empty empty 0 -8 0 12 #dfdfdf #000000 #000000 0 256;
#X obj 159 52 inlet;
#X text 155 27 value;
#X obj 159 228 outlet;
#X text 362 102 The trick here is to use two number boxes. The one in the front just acts as a display \, but we're in fact interacting to the one in the background., f 29;
#X msg 246 107 1;
#X obj 240 83 loadbang;
#X connect 0 0 1 0;
#X connect 1 0 2 0;
#X connect 1 0 7 0;
#X connect 2 0 4 0;
#X connect 3 0 0 0;
#X connect 5 0 3 0;
#X connect 9 0 0 1;
#X connect 10 0 9 0;
#X coords 0 -1 1 1 54 18 2 150 100;
#X restore 100 100 pd discrete;
#X obj 175 13 loadbang;
#X text 110 119 Freq;
#X text 166 120 Amp;
#X obj 115 266 pack f f;
#X msg 180 69 10;
#X msg 149 69 0;
#X msg 70 67 1;
#X msg 104 67 11;
#X obj 104 20 t b b;
#X obj 228 47 delay 100;
#X connect 1 0 7 0;
#X connect 1 1 7 1;
#X connect 2 0 1 0;
#X connect 3 0 7 0;
#X connect 4 0 12 0;
#X connect 7 0 0 0;
#X connect 8 0 2 0;
#X connect 9 0 3 0;
#X connect 10 0 3 0;
#X connect 11 0 2 0;
#X connect 12 0 10 0;
#X connect 12 0 11 0;
#X connect 12 0 13 0;
#X connect 12 1 8 0;
#X connect 12 1 9 0;
#X connect 13 0 9 0;
#X connect 13 0 8 0;
#X coords 0 -1 1 1 108 40 2 100 100;
#X restore 6 29 pd filter;
#X obj 37 69 outlet;
#X connect 1 0 2 0;
#X restore 310 433 pd \$0-modulator;
#X obj 842 59 tgl 19 0 empty \$0-detune empty 0 -10 0 12 #fcfcfc #000000 #000000 0 1;
#X text 9 6 Logan Kirkendall;
#X obj 104 216 nbx 3 20 0 127 0 0 \$0-lowr empty empty 0 -10 0 20 #fcfcfc #000000 #000000 0 256;
#X obj 169 216 nbx 3 20 0 127 0 0 \$0-highr empty empty 0 -10 0 20 #fcfcfc #000000 #000000 0 256;
#X obj 336 86 inlet;
#X obj 336 110 unpack f f;
#N canvas 1104 72 3440 1401 adsr_scaler 0;
#X obj 240 633 outlet;
#X floatatom 151 83 5 0 0 0 - \$0-attack - 0;
#X floatatom 262 83 5 0 0 0 - \$0-decayt - 0;
#X floatatom 373 83 5 0 0 0 - \$0-sustainui - 0;
#X obj 151 106 t b f;
#X obj 262 106 t b f;
#X obj 373 106 t b f;
#X obj 212 135 +;
#X floatatom 212 159 5 0 0 0 - - - 0;
#X obj 280 191 +;
#X floatatom 280 247 5 0 0 0 - - - 0;
#X obj 232 323 /;
#X obj 344 323 /;
#X obj 280 270 t b f;
#X obj 284 324 /;
#X floatatom 344 347 5 0 0 0 - - - 0;
#X floatatom 284 348 5 0 0 0 - - - 0;
#X floatatom 232 347 5 0 0 0 - - - 0;
#X obj 232 370 *;
#X obj 284 371 *;
#X obj 344 370 *;
#X obj 489 284 t b f;
#X floatatom 215 395 5 0 0 0 - - - 0;
#X floatatom 267 396 5 0 0 0 - - - 0;
#X floatatom 349 394 5 0 0 0 - - - 0;
#X text 305 31 A D S R;
#X floatatom 483 83 5 0 0 0 - \$0-release - 0;
#X obj 483 106 t b f;
#X obj 280 215 +;
#X floatatom 473 234 5 0 0 0 - \$0-vdur - 0;
#X obj 400 323 /;
#X floatatom 400 347 5 0 0 0 - - - 0;
#X obj 400 370 *;
#X floatatom 405 394 5 0 0 0 - - - 0;
#X floatatom 307 397 5 0 0 0 - \$0-decaya - 0;
#X obj 300 509 t b f;
#X text 65 412 Infinite Sustain;
#X obj 262 542 pack f f f f f f;
#X obj 118 432 tgl 19 0 empty \$0-sustain empty 0 -10 0 12 #fcfcfc #000000 #000000 0 1;
#X obj 234 437 t b f;
#X obj 382 563 loadbang;
#X obj 307 420 t b f;
#X msg 302 457 1;
#X obj 312 483 -;
#X msg 382 587 0 0 0 1 0 0;
#X connect 1 0 4 0;
#X connect 2 0 5 0;
#X connect 3 0 6 0;
#X connect 4 1 7 0;
#X connect 4 1 11 0;
#X connect 5 0 7 0;
#X connect 5 1 7 1;
#X connect 5 1 14 0;
#X connect 6 0 9 0;
#X connect 6 1 9 1;
#X connect 6 1 12 0;
#X connect 7 0 8 0;
#X connect 8 0 9 0;
#X connect 9 0 28 0;
#X connect 10 0 13 0;
#X connect 11 0 17 0;
#X connect 12 0 15 0;
#X connect 13 0 11 0;
#X connect 13 0 14 0;
#X connect 13 0 12 0;
#X connect 13 0 30 0;
#X connect 13 1 14 1;
#X connect 13 1 12 1;
#X connect 13 1 11 1;
#X connect 13 1 30 1;
#X connect 14 0 16 0;
#X connect 15 0 20 0;
#X connect 16 0 19 0;
#X connect 17 0 18 0;
#X connect 18 0 22 0;
#X connect 19 0 23 0;
#X connect 20 0 24 0;
#X connect 21 0 18 0;
#X connect 21 0 19 0;
#X connect 21 0 20 0;
#X connect 21 0 32 0;
#X connect 21 1 20 1;
#X connect 21 1 19 1;
#X connect 21 1 18 1;
#X connect 21 1 32 1;
#X connect 22 0 39 0;
#X connect 23 0 37 2;
#X connect 24 0 37 4;
#X connect 26 0 27 0;
#X connect 27 0 28 0;
#X connect 27 1 28 1;
#X connect 27 1 30 0;
#X connect 28 0 10 0;
#X connect 29 0 21 0;
#X connect 30 0 31 0;
#X connect 31 0 32 0;
#X connect 32 0 33 0;
#X connect 33 0 37 5;
#X connect 34 0 41 0;
#X connect 35 0 37 0;
#X connect 35 1 37 3;
#X connect 37 0 0 0;
#X connect 38 0 37 0;
#X connect 39 0 37 0;
#X connect 39 1 37 1;
#X connect 40 0 44 0;
#X connect 41 0 42 0;
#X connect 41 1 43 1;
#X connect 42 0 43 0;
#X connect 43 0 35 0;
#X connect 44 0 0 0;
#X restore 982 153 pd adsr_scaler;
#X floatatom 864 59 5 0 0 0 - bendin - 0;
#X text 847 40 Detune;
#X text 420 387 Time / Feedback / DryWet;
#X text 419 342 3 Intervals / 3 OnOff;
#X text 419 293 Filter / Low / Hi;
#X text 421 433 Freq / Amp;
#X obj 310 365 s \$0-uiharm;
#X obj 310 318 s \$0-uifilt;
#X obj 310 411 s \$0-uidel;
#X obj 310 457 s \$0-uimod;
#X obj 1088 103 r \$0-uifilt;
#X obj 1169 103 r \$0-uiharm;
#X obj 1250 103 r \$0-uidel;
#X obj 1324 103 r \$0-uimod;
#X floatatom 804 60 5 0 0 0 - \$0-instrum - 0;
#X text 801 34 Inst;
#X obj 639 508 spigot;
#N canvas -326 817 3440 1357 effect_packer 0;
#X obj 7 6 inlet;
#X obj 46 6 inlet;
#X obj 85 6 inlet;
#X obj 124 6 inlet;
#X obj 136 436 outlet;
#X obj 28 193 list append;
#X listbox 28 217 24 0 0 0 - - - 0;
#X obj 70 168 t b l;
#X obj 28 172 list;
#X obj 21 151 t b l;
#X obj 136 246 t b l;
#X obj 136 272 list;
#X obj 222 258 t b l;
#X obj 136 294 list append;
#X listbox 136 318 43 0 0 0 - - - 0;
#X obj 322 345 t b l;
#X obj 136 340 t b l;
#X obj 136 364 list;
#X obj 136 388 list append;
#X listbox 136 412 57 0 0 0 - - - 0;
#X connect 0 0 9 0;
#X connect 1 0 7 0;
#X connect 2 0 12 0;
#X connect 3 0 15 0;
#X connect 5 0 6 0;
#X connect 6 0 10 0;
#X connect 7 0 8 0;
#X connect 7 1 5 1;
#X connect 8 0 5 0;
#X connect 9 0 8 0;
#X connect 9 1 8 1;
#X connect 10 0 11 0;
#X connect 10 1 11 1;
#X connect 11 0 13 0;
#X connect 12 0 11 0;
#X connect 12 1 13 1;
#X connect 13 0 14 0;
#X connect 14 0 16 0;
#X connect 15 0 17 0;
#X connect 15 1 18 1;
#X connect 16 0 17 0;
#X connect 16 1 17 1;
#X connect 17 0 18 0;
#X connect 18 0 19 0;
#X connect 19 0 4 0;
#X restore 1088 130 pd effect_packer;
#X listbox 1088 154 47 0 0 0 - - - 0;
#X floatatom 663 37 5 0 0 0 - notein - 0;
#X floatatom 728 23 5 0 0 0 - velin - 0;
#X obj 728 44 scale 0 100 0 1, f 6;
#X obj 665 194 poly 10 1;
#X obj 665 218 pack f f f;
#X listbox 665 242 9 0 0 0 - - - 0;
#X obj 1022 226 list append;
#X obj 1088 177 t b l;
#X obj 982 201 list;
#X obj 982 177 t b l;
#X listbox 1022 250 91 0 0 0 - - - 0;
#X obj 899 103 t b f;
#X listbox 874 155 11 0 0 0 - - - 0;
#X obj 874 178 t b l;
#X obj 665 265 t b l;
#X obj 665 289 list;
#X obj 813 224 list append;
#X listbox 813 248 20 0 0 0 - - - 0;
#X obj 874 131 pack f f f;
#X obj 842 83 t b f;
#X obj 630 349 list append;
#X obj 813 271 t b l;
#X obj 1022 273 t b l;
#X obj 921 312 list;
#X listbox 630 371 110 0 0 0 - - - 0;
#X text 748 349 All Settings -- Voice Note Vel Inst Bendt Bendin Sus ADtDaSR Filt Harm Del Mod, f 80;
#X listbox 639 532 103 0 0 0 - - - 0;
#X floatatom 687 437 5 0 0 0 - - - 0;
#X obj 639 397 t l l;
#X obj 671 417 unpack f f;
#X obj 663 66 pack f f;
#X obj 663 91 t l l;
#X obj 717 102 unpack;
#X obj 633 142 spigot;
#X obj 633 166 unpack;
#N canvas -1130 170 3440 1357 bound_verify 0;
#X obj 7 11 inlet;
#X obj 7 130 outlet;
#X floatatom 52 40 3 0 0 0 - \$0-highr - 12;
#X floatatom 25 40 3 0 0 0 - \$0-lowr - 0;
#X obj 7 60 >=;
#X obj 33 60 <=;
#X obj 7 107 &&;
#X obj 33 81 t b f;
#X connect 0 0 4 0;
#X connect 0 0 5 0;
#X connect 2 0 5 1;
#X connect 3 0 4 1;
#X connect 4 0 6 0;
#X connect 5 0 7 0;
#X connect 6 0 1 0;
#X connect 7 0 6 0;
#X connect 7 1 6 1;
#X restore 678 475 pd bound_verify;
#N canvas -866 231 3440 1357 bound_verify 0;
#X obj 7 11 inlet;
#X obj 7 130 outlet;
#X floatatom 52 40 3 0 0 0 - \$0-highr - 12;
#X floatatom 25 40 3 0 0 0 - \$0-lowr - 0;
#X obj 7 60 >=;
#X obj 33 60 <=;
#X obj 7 107 &&;
#X obj 33 81 t b f;
#X connect 0 0 4 0;
#X connect 0 0 5 0;
#X connect 2 0 5 1;
#X connect 3 0 4 1;
#X connect 4 0 6 0;
#X connect 5 0 7 0;
#X connect 6 0 1 0;
#X connect 7 0 6 0;
#X connect 7 1 6 1;
#X restore 717 123 pd bound_verify;
#X obj 476 499 loadbang;
#X msg 475 523 0 0 0;
#X msg 518 462 0 0 0 0 0 0;
#X obj 640 572 clone -s 1 noisegen~ 10;
#X obj 630 700 outlet~;
#X obj 658 625 *~;
#X msg 13 691 1;
#X floatatom 676 605 5 0 0 0 - \$0-volume - 0;
#X msg 36 313 0.01;
#X obj 13 278 loadbang;
#X obj 103 713 hsl 133 20 0 2 0 0 empty empty Pan 54 10 0 12 #c6feff #0400ff #000000 0 1;
#X floatatom 127 853 5 0 0 0 - - \$0-lpan 0;
#X floatatom 188 815 5 0 0 0 - - \$0-rpan 0;
#X floatatom 157 749 5 0 0 0 - - - 0;
#X msg 127 784 2;
#X obj 157 772 t b f;
#X obj 127 808 -;
#X obj 127 832 / 2;
#X obj 188 794 / 2;
#X obj 684 700 outlet~;
#X floatatom 648 659 5 0 0 0 - \$0-lpan - 0;
#X floatatom 702 660 5 0 0 0 - \$0-rpan - 0;
#X obj 630 678 *~;
#X obj 684 679 *~;
#X msg 432 546 0 1;
#X connect 12 0 15 0;
#X connect 13 0 20 0;
#X connect 14 0 115 0;
#X connect 15 0 16 0;
#X connect 16 0 17 0;
#X connect 18 0 19 0;
#X connect 19 0 21 0;
#X connect 20 0 18 0;
#X connect 20 0 16 0;
#X connect 20 1 19 1;
#X connect 21 0 16 1;
#X connect 22 0 39 0;
#X connect 23 0 22 0;
#X connect 25 0 35 0;
#X connect 27 0 36 0;
#X connect 29 0 37 0;
#X connect 31 0 34 0;
#X connect 32 0 33 0;
#X connect 35 0 41 0;
#X connect 36 0 42 0;
#X connect 37 0 43 0;
#X connect 38 0 60 0;
#X connect 40 0 59 0;
#X connect 44 0 61 0;
#X connect 45 0 62 0;
#X connect 46 0 91 0;
#X connect 50 0 51 0;
#X connect 51 0 48 0;
#X connect 51 1 49 0;
#X connect 52 0 81 0;
#X connect 53 0 83 0;
#X connect 63 0 70 0;
#X connect 64 0 70 1;
#X connect 65 0 70 2;
#X connect 66 0 70 3;
#X connect 67 0 90 0;
#X connect 69 0 98 0;
#X connect 70 0 71 0;
#X connect 71 0 79 0;
#X connect 72 0 102 0;
#X connect 73 0 74 0;
#X connect 74 0 102 1;
#X connect 75 0 76 0;
#X connect 75 1 76 1;
#X connect 75 2 76 2;
#X connect 76 0 77 0;
#X connect 77 0 86 0;
#X connect 78 0 82 0;
#X connect 79 0 80 0;
#X connect 79 1 78 1;
#X connect 80 0 78 0;
#X connect 81 0 80 0;
#X connect 81 1 80 1;
#X connect 82 0 94 0;
#X connect 83 0 90 0;
#X connect 83 1 90 2;
#X connect 84 0 85 0;
#X connect 85 1 88 1;
#X connect 86 0 87 0;
#X connect 86 1 87 1;
#X connect 87 0 88 0;
#X connect 88 0 89 0;
#X connect 89 0 93 0;
#X connect 90 0 84 0;
#X connect 91 0 90 0;
#X connect 91 1 90 1;
#X connect 92 0 96 0;
#X connect 93 0 95 0;
#X connect 93 1 95 1;
#X connect 94 1 92 1;
#X connect 95 0 92 0;
#X connect 96 0 100 0;
#X connect 98 0 112 0;
#X connect 99 0 107 0;
#X connect 100 0 69 0;
#X connect 100 1 101 0;
#X connect 101 1 99 0;
#X connect 102 0 103 0;
#X connect 103 0 105 0;
#X connect 103 1 104 0;
#X connect 104 0 108 0;
#X connect 105 0 106 0;
#X connect 106 0 75 0;
#X connect 106 1 75 1;
#X connect 107 0 69 1;
#X connect 108 0 105 1;
#X connect 109 0 110 0;
#X connect 109 0 111 0;
#X connect 109 0 133 0;
#X connect 110 0 61 0;
#X connect 111 0 59 0;
#X connect 112 0 114 0;
#X connect 114 0 131 0;
#X connect 114 0 132 0;
#X connect 115 0 21 0;
#X connect 115 0 119 0;
#X connect 115 0 12 0;
#X connect 116 0 114 1;
#X connect 117 0 8 0;
#X connect 117 0 9 0;
#X connect 118 0 117 0;
#X connect 119 0 122 0;
#X connect 122 0 124 0;
#X connect 123 0 125 0;
#X connect 124 0 123 0;
#X connect 124 1 125 1;
#X connect 124 1 127 0;
#X connect 125 0 126 0;
#X connect 126 0 120 0;
#X connect 127 0 121 0;
#X connect 129 0 131 1;
#X connect 130 0 132 1;
#X connect 131 0 113 0;
#X connect 132 0 128 0;
#X connect 133 0 62 0;
#X coords 0 -1 1 1 138 633 2 100 100;
