#N canvas 1258 375 3440 1357 12;
#X obj 11 12 inlet~;
#X obj 104 12 inlet;
#X obj 69 405 outlet~;
#X obj 104 33 unpack f f f;
#X obj 104 77 select 0 1 2;
#X obj 11 281 lop~;
#X obj 123 282 hip~;
#X msg 94 117 1, f 1;
#X msg 111 117 0, f 1;
#X obj 11 217 *~;
#X floatatom 145 56 5 0 0 0 - - \$0-low 0;
#X floatatom 185 56 5 0 0 0 - - \$0-high 0;
#X floatatom 36 259 4 0 0 0 - \$0-low - 0;
#X floatatom 148 261 4 0 0 0 - \$0-high - 0;
#X obj 69 218 *~;
#X obj 123 218 *~;
#X msg 157 122 1, f 1;
#X msg 172 122 0, f 1;
#X msg 207 124 1, f 1;
#X msg 222 124 0, f 1;
#X obj 69 282 lop~;
#X floatatom 94 260 4 0 0 0 - \$0-low - 0;
#X floatatom 94 305 4 0 0 0 - \$0-high - 0;
#X obj 69 328 hip~;
#X obj 263 20 loadbang;
#X msg 247 62 2 10 10000;
#X floatatom 33 185 2 0 0 0 - - - 0;
#X floatatom 72 184 2 0 0 0 - - - 0;
#X floatatom 138 192 2 0 0 0 - - - 0;
#X connect 0 0 9 0;
#X connect 0 0 14 0;
#X connect 0 0 15 0;
#X connect 1 0 3 0;
#X connect 3 0 4 0;
#X connect 3 1 10 0;
#X connect 3 2 11 0;
#X connect 4 0 7 0;
#X connect 4 0 8 0;
#X connect 4 1 16 0;
#X connect 4 1 17 0;
#X connect 4 2 18 0;
#X connect 4 2 19 0;
#X connect 5 0 2 0;
#X connect 6 0 2 0;
#X connect 7 0 26 0;
#X connect 8 0 27 0;
#X connect 8 0 28 0;
#X connect 9 0 5 0;
#X connect 12 0 5 1;
#X connect 13 0 6 1;
#X connect 14 0 20 0;
#X connect 15 0 6 0;
#X connect 16 0 27 0;
#X connect 17 0 26 0;
#X connect 17 0 28 0;
#X connect 18 0 28 0;
#X connect 19 0 27 0;
#X connect 19 0 26 0;
#X connect 20 0 23 0;
#X connect 21 0 20 1;
#X connect 22 0 23 1;
#X connect 23 0 2 0;
#X connect 24 0 25 0;
#X connect 25 0 3 0;
#X connect 26 0 9 1;
#X connect 27 0 14 1;
#X connect 28 0 15 1;
#X coords 0 0 0.5 0.5 0 0 0;
