#N canvas 1667 215 3440 1357 12;
#X obj 12 12 inlet~;
#X obj 199 8 inlet;
#X obj 199 29 unpack f f f f f f;
#X obj 42 163 r \$0-har1;
#X obj 12 36 delwrite~ \$0-harmony 5000;
#X obj 199 60 s \$0-har1;
#X obj 224 81 s \$0-har2;
#X obj 247 101 s \$0-har3;
#X obj 272 60 s \$0-ht1;
#X obj 322 101 s \$0-ht3;
#X obj 297 81 s \$0-ht2;
#X obj 113 163 r \$0-ht1;
#N canvas 130 130 3440 1357 pitch_shift 0;
#X obj 6 7 inlet;
#X obj 667 147 inlet;
#X obj 320 639 outlet~;
#X floatatom 252 71 5 0 0 0 - - - 0;
#X obj 252 442 *~;
#X obj 375 369 line~;
#X floatatom 375 106 5 0 0 0 - - - 0;
#X obj 375 80 r window;
#X obj 252 127 exp;
#X floatatom 252 153 6 0 0 0 - - - 0;
#X obj 252 243 /;
#X obj 300 177 * 0.001;
#X obj 474 430 line~;
#X floatatom 474 354 0 0 0 0 - - - 0;
#X obj 474 328 r delay;
#X obj 252 468 +~;
#X obj 189 494 cos~;
#X obj 189 521 *~;
#X obj 330 565 +~;
#X obj 316 371 wrap~;
#X obj 411 425 *~;
#X obj 411 477 +~;
#X obj 348 504 cos~;
#X obj 348 531 *~;
#X obj 300 204 t b f;
#X floatatom 252 269 6 0 0 0 - - - 0;
#X obj 316 344 +~ 0.5;
#X obj 189 442 -~ 0.5;
#X obj 189 468 *~ 0.5;
#X obj 348 424 -~ 0.5;
#X obj 348 476 *~ 0.5;
#X obj 252 180 - 1;
#X obj 252 101 * 0.05776;
#X obj 252 206 * -1;
#X text 205 147 speed;
#X text 198 161 change;
#X text 180 260 tape head;
#X obj 252 300 phasor~;
#X obj 474 381 max 1.5;
#X obj 375 133 max 1;
#X text 180 273 rotation freq, f 9;
#X text 147 69 transposition;
#X obj 474 405 pack f 200;
#X obj 375 343 pack f 200;
#X obj 411 506 delread4~ \$0-harmony, f 10;
#X obj 252 494 delread4~ \$0-harmony, f 10;
#X text 146 82 (semitones);
#X text 416 105 window (ms);
#X text 466 306 delay (ms);
#X obj 330 603 *~;
#X connect 0 0 3 0;
#X connect 1 0 49 1;
#X connect 3 0 32 0;
#X connect 4 0 15 0;
#X connect 5 0 4 1;
#X connect 5 0 20 1;
#X connect 6 0 39 0;
#X connect 7 0 6 0;
#X connect 8 0 9 0;
#X connect 9 0 31 0;
#X connect 10 0 25 0;
#X connect 11 0 24 0;
#X connect 12 0 15 1;
#X connect 12 0 21 1;
#X connect 13 0 38 0;
#X connect 14 0 13 0;
#X connect 15 0 45 0;
#X connect 16 0 17 0;
#X connect 17 0 18 0;
#X connect 18 0 49 0;
#X connect 19 0 20 0;
#X connect 19 0 29 0;
#X connect 20 0 21 0;
#X connect 21 0 44 0;
#X connect 22 0 23 0;
#X connect 23 0 18 1;
#X connect 24 0 10 0;
#X connect 24 1 10 1;
#X connect 25 0 37 0;
#X connect 26 0 19 0;
#X connect 27 0 28 0;
#X connect 28 0 16 0;
#X connect 29 0 30 0;
#X connect 30 0 22 0;
#X connect 31 0 33 0;
#X connect 32 0 8 0;
#X connect 33 0 10 0;
#X connect 37 0 4 0;
#X connect 37 0 27 0;
#X connect 37 0 26 0;
#X connect 38 0 42 0;
#X connect 39 0 11 0;
#X connect 39 0 43 0;
#X connect 42 0 12 0;
#X connect 43 0 5 0;
#X connect 44 0 23 1;
#X connect 45 0 17 1;
#X connect 49 0 2 0;
#X restore 42 185 pd pitch_shift;
#N canvas 130 130 3440 1357 pitch_shift 0;
#X obj 6 7 inlet;
#X obj 667 147 inlet;
#X obj 320 639 outlet~;
#X floatatom 252 71 5 0 0 0 - - - 0;
#X obj 252 442 *~;
#X obj 375 369 line~;
#X floatatom 375 106 5 0 0 0 - - - 0;
#X obj 375 80 r window;
#X obj 252 127 exp;
#X floatatom 252 153 6 0 0 0 - - - 0;
#X obj 252 243 /;
#X obj 300 177 * 0.001;
#X obj 474 430 line~;
#X floatatom 474 354 0 0 0 0 - - - 0;
#X obj 474 328 r delay;
#X obj 252 468 +~;
#X obj 189 494 cos~;
#X obj 189 521 *~;
#X obj 330 565 +~;
#X obj 316 371 wrap~;
#X obj 411 425 *~;
#X obj 411 477 +~;
#X obj 348 504 cos~;
#X obj 348 531 *~;
#X obj 300 204 t b f;
#X floatatom 252 269 6 0 0 0 - - - 0;
#X obj 316 344 +~ 0.5;
#X obj 189 442 -~ 0.5;
#X obj 189 468 *~ 0.5;
#X obj 348 424 -~ 0.5;
#X obj 348 476 *~ 0.5;
#X obj 252 180 - 1;
#X obj 252 101 * 0.05776;
#X obj 252 206 * -1;
#X text 205 147 speed;
#X text 198 161 change;
#X text 180 260 tape head;
#X obj 252 300 phasor~;
#X obj 474 381 max 1.5;
#X obj 375 133 max 1;
#X text 180 273 rotation freq, f 9;
#X text 147 69 transposition;
#X obj 474 405 pack f 200;
#X obj 375 343 pack f 200;
#X obj 411 506 delread4~ \$0-harmony, f 10;
#X obj 252 494 delread4~ \$0-harmony, f 10;
#X text 146 82 (semitones);
#X text 416 105 window (ms);
#X text 466 306 delay (ms);
#X obj 330 603 *~;
#X connect 0 0 3 0;
#X connect 1 0 49 1;
#X connect 3 0 32 0;
#X connect 4 0 15 0;
#X connect 5 0 4 1;
#X connect 5 0 20 1;
#X connect 6 0 39 0;
#X connect 7 0 6 0;
#X connect 8 0 9 0;
#X connect 9 0 31 0;
#X connect 10 0 25 0;
#X connect 11 0 24 0;
#X connect 12 0 15 1;
#X connect 12 0 21 1;
#X connect 13 0 38 0;
#X connect 14 0 13 0;
#X connect 15 0 45 0;
#X connect 16 0 17 0;
#X connect 17 0 18 0;
#X connect 18 0 49 0;
#X connect 19 0 20 0;
#X connect 19 0 29 0;
#X connect 20 0 21 0;
#X connect 21 0 44 0;
#X connect 22 0 23 0;
#X connect 23 0 18 1;
#X connect 24 0 10 0;
#X connect 24 1 10 1;
#X connect 25 0 37 0;
#X connect 26 0 19 0;
#X connect 27 0 28 0;
#X connect 28 0 16 0;
#X connect 29 0 30 0;
#X connect 30 0 22 0;
#X connect 31 0 33 0;
#X connect 32 0 8 0;
#X connect 33 0 10 0;
#X connect 37 0 4 0;
#X connect 37 0 27 0;
#X connect 37 0 26 0;
#X connect 38 0 42 0;
#X connect 39 0 11 0;
#X connect 39 0 43 0;
#X connect 42 0 12 0;
#X connect 43 0 5 0;
#X connect 44 0 23 1;
#X connect 45 0 17 1;
#X connect 49 0 2 0;
#X restore 176 185 pd pitch_shift;
#X obj 176 163 r \$0-har2;
#X obj 247 163 r \$0-ht2;
#N canvas 130 130 3440 1357 pitch_shift 0;
#X obj 6 7 inlet;
#X obj 667 147 inlet;
#X obj 320 639 outlet~;
#X floatatom 252 71 5 0 0 0 - - - 0;
#X obj 252 442 *~;
#X obj 375 369 line~;
#X floatatom 375 106 5 0 0 0 - - - 0;
#X obj 375 80 r window;
#X obj 252 127 exp;
#X floatatom 252 153 6 0 0 0 - - - 0;
#X obj 252 243 /;
#X obj 300 177 * 0.001;
#X obj 474 430 line~;
#X floatatom 474 354 0 0 0 0 - - - 0;
#X obj 474 328 r delay;
#X obj 252 468 +~;
#X obj 189 494 cos~;
#X obj 189 521 *~;
#X obj 330 565 +~;
#X obj 316 371 wrap~;
#X obj 411 425 *~;
#X obj 411 477 +~;
#X obj 348 504 cos~;
#X obj 348 531 *~;
#X obj 300 204 t b f;
#X floatatom 252 269 6 0 0 0 - - - 0;
#X obj 316 344 +~ 0.5;
#X obj 189 442 -~ 0.5;
#X obj 189 468 *~ 0.5;
#X obj 348 424 -~ 0.5;
#X obj 348 476 *~ 0.5;
#X obj 252 180 - 1;
#X obj 252 101 * 0.05776;
#X obj 252 206 * -1;
#X text 205 147 speed;
#X text 198 161 change;
#X text 180 260 tape head;
#X obj 252 300 phasor~;
#X obj 474 381 max 1.5;
#X obj 375 133 max 1;
#X text 180 273 rotation freq, f 9;
#X text 147 69 transposition;
#X obj 474 405 pack f 200;
#X obj 375 343 pack f 200;
#X obj 411 506 delread4~ \$0-harmony, f 10;
#X obj 252 494 delread4~ \$0-harmony, f 10;
#X text 146 82 (semitones);
#X text 416 105 window (ms);
#X text 466 306 delay (ms);
#X obj 330 603 *~;
#X connect 0 0 3 0;
#X connect 1 0 49 1;
#X connect 3 0 32 0;
#X connect 4 0 15 0;
#X connect 5 0 4 1;
#X connect 5 0 20 1;
#X connect 6 0 39 0;
#X connect 7 0 6 0;
#X connect 8 0 9 0;
#X connect 9 0 31 0;
#X connect 10 0 25 0;
#X connect 11 0 24 0;
#X connect 12 0 15 1;
#X connect 12 0 21 1;
#X connect 13 0 38 0;
#X connect 14 0 13 0;
#X connect 15 0 45 0;
#X connect 16 0 17 0;
#X connect 17 0 18 0;
#X connect 18 0 49 0;
#X connect 19 0 20 0;
#X connect 19 0 29 0;
#X connect 20 0 21 0;
#X connect 21 0 44 0;
#X connect 22 0 23 0;
#X connect 23 0 18 1;
#X connect 24 0 10 0;
#X connect 24 1 10 1;
#X connect 25 0 37 0;
#X connect 26 0 19 0;
#X connect 27 0 28 0;
#X connect 28 0 16 0;
#X connect 29 0 30 0;
#X connect 30 0 22 0;
#X connect 31 0 33 0;
#X connect 32 0 8 0;
#X connect 33 0 10 0;
#X connect 37 0 4 0;
#X connect 37 0 27 0;
#X connect 37 0 26 0;
#X connect 38 0 42 0;
#X connect 39 0 11 0;
#X connect 39 0 43 0;
#X connect 42 0 12 0;
#X connect 43 0 5 0;
#X connect 44 0 23 1;
#X connect 45 0 17 1;
#X connect 49 0 2 0;
#X restore 310 185 pd pitch_shift;
#X obj 310 163 r \$0-har3;
#X obj 381 163 r \$0-ht3;
#X obj 42 219 *~ 0.5;
#X obj 176 223 *~ 0.3333;
#X obj 310 224 *~ 0.25;
#X obj 131 300 +~;
#X obj 131 324 +~;
#X obj 131 348 outlet~;
#X obj 25 79 s~ \$0-in;
#X obj 48 286 r~ \$0-in;
#X connect 0 0 4 0;
#X connect 0 0 25 0;
#X connect 1 0 2 0;
#X connect 2 0 5 0;
#X connect 2 1 6 0;
#X connect 2 2 7 0;
#X connect 2 3 8 0;
#X connect 2 4 10 0;
#X connect 2 5 9 0;
#X connect 3 0 12 0;
#X connect 11 0 12 1;
#X connect 12 0 19 0;
#X connect 13 0 20 0;
#X connect 14 0 13 0;
#X connect 15 0 13 1;
#X connect 16 0 21 0;
#X connect 17 0 16 0;
#X connect 18 0 16 1;
#X connect 19 0 22 0;
#X connect 20 0 22 1;
#X connect 21 0 23 1;
#X connect 22 0 23 0;
#X connect 23 0 24 0;
#X connect 26 0 23 0;
