#N canvas 156 156 3440 1357 12;
#X obj 100 100 bng 30 250 50 0 \$0-infobutton \$0-visualemptyinput info 1 15 0 12 #0400ff #000000 #ffffff;
#X obj 91 277 pdcontrol;
#X obj 97 195 pdcontrol;
#X msg 97 170 dir;
#X obj 167 195 symbol \$1;
#X obj 97 219 pack s s;
#X msg 91 246 browse \$1/\$2;
#X obj 342 141 bng 19 250 50 0 empty \$0-infobutton empty 0 -10 0 12 #fcfcfc #000000 #000000;
#X connect 2 0 5 0;
#X connect 3 0 2 0;
#X connect 4 0 5 1;
#X connect 5 0 6 0;
#X connect 6 0 1 0;
#X connect 7 0 4 0;
#X connect 7 0 3 0;
#X coords 0 -1 1 1 30 30 2 100 100;
