#N canvas 1182 1385 3440 1357 12;
#N canvas 82 256 3440 1357 main 1;
#X obj 100 100 fader_bus;
#X obj 1276 271 bendin;
#X obj 1384 256 notein 1;
#X floatatom 1384 280 5 0 0 0 - - notein 0;
#X floatatom 1441 280 5 0 0 0 - - velin 0;
#X floatatom 1276 295 5 0 0 0 - - - 0;
#X floatatom 1324 307 5 0 0 0 - - - 0;
#X floatatom 1273 368 20 0 0 0 - - bendin 0;
#X obj 1273 343 scale 0 16384 -1 1;
#X obj 1552 243 loadbang;
#X obj 238 100 fader_bus;
#X obj 376 100 fader_bus;
#X obj 514 100 fader_bus;
#X obj 652 100 fader_bus;
#X obj 790 100 fader_bus;
#X obj 928 100 fader_bus;
#X obj 1066 100 fader_bus;
#X obj 480 875 dac~;
#X obj 384 803 +~;
#X obj 519 795 +~;
#X obj 384 825 /~ 2;
#X obj 519 817 /~ 2;
#X msg 1551 267 \; pd dsp 1 \; pd-main vis 0 \;;
#X connect 0 0 18 0;
#X connect 0 1 19 0;
#X connect 1 0 5 0;
#X connect 1 1 6 0;
#X connect 2 0 3 0;
#X connect 2 1 4 0;
#X connect 5 0 8 0;
#X connect 8 0 7 0;
#X connect 9 0 22 0;
#X connect 10 0 18 0;
#X connect 10 1 19 0;
#X connect 11 0 18 0;
#X connect 11 1 19 0;
#X connect 12 0 18 0;
#X connect 12 1 19 0;
#X connect 13 0 18 1;
#X connect 13 1 19 1;
#X connect 14 0 18 1;
#X connect 14 1 19 1;
#X connect 15 0 18 1;
#X connect 15 1 19 1;
#X connect 16 0 18 1;
#X connect 16 1 19 1;
#X connect 18 0 20 0;
#X connect 19 0 21 0;
#X connect 20 0 17 0;
#X connect 21 0 17 1;
#X coords 0 -1 1 1 1104 633 2 100 100;
#X restore 12 14 pd main;
#X obj 1121 14 info README.pdf;
