#N canvas 156 156 3440 1357 12;
#X obj 31 37 inlet~;
#X obj 109 37 inlet;
#X obj 31 191 outlet~;
#X obj 109 61 unpack f f;
#X obj 31 161 *~;
#X obj 109 89 osc~;
#X obj 109 116 *~;
#X obj 209 125 loadbang;
#X msg 209 149 0;
#X msg 186 181 1;
#X connect 0 0 4 0;
#X connect 1 0 3 0;
#X connect 3 0 5 0;
#X connect 3 1 6 1;
#X connect 4 0 2 0;
#X connect 5 0 6 0;
#X connect 6 0 4 1;
#X connect 7 0 8 0;
#X connect 7 0 9 0;
#X connect 8 0 5 0;
#X connect 9 0 6 1;
