#N canvas 948 0 3440 1357 12;
#X obj 13 13 inlet;
#X obj 12 124 unpack f f f f f f f f f f f f f f f f f f f f f f f f f;
#X floatatom 12 183 3 0 0 0 - - \$0-note 0;
#X floatatom 44 182 2 0 0 0 - - \$0-inst 0;
#X obj 60 159 tgl 19 0 \$0-bendt empty empty 0 -10 0 12 #fcfcfc #000000 #000000 0 1;
#X obj 190 158 pack f f f, f 5;
#X obj 190 205 s \$0-filt;
#X obj 239 149 pack f f f f f f, f 12;
#X obj 239 184 s \$0-harm;
#X obj 336 149 pack f f f, f 5;
#X obj 336 187 s \$0-del;
#X obj 400 152 pack f f;
#X obj 400 176 s \$0-mod;
#X obj 547 45 select 0 1 2;
#X floatatom 547 25 5 0 0 0 - \$0-inst - 0;
#X obj 647 431 r \$0-del;
#X obj 608 453 delay~;
#X obj 608 389 filter~;
#X obj 608 410 harmonizer~;
#X obj 682 389 r \$0-harm;
#X obj 654 368 r \$0-filt;
#X obj 608 515 modulator~;
#X obj 675 452 r \$0-mod;
#X obj 93 187 s \$0-sadsr;
#X obj 93 152 pack f f f f f f, f 12;
#X obj 724 549 adsr;
#X obj 754 579 adr;
#X floatatom 796 518 5 0 0 0 - \$0-vel - 0;
#X obj 777 539 select 0 1;
#X obj 777 559 bng 19 250 50 0 empty empty empty 0 -10 0 12 #fcfcfc #000000 #000000;
#X obj 724 517 route 0 1;
#X obj 608 559 *~;
#X obj 608 623 outlet~;
#X obj 547 74 t b b;
#X obj 724 493 r \$0-sadsr;
#X msg 579 117 open bass.wav, f 8;
#X msg 546 95 start;
#X obj 546 154 readsf~ 1;
#X obj 705 73 t b b;
#X msg 704 94 start;
#X obj 704 152 readsf~ 1;
#X msg 737 116 open guitar.wav, f 10;
#X obj 546 178 *~ 6;
#X obj 858 44 t b b;
#X msg 857 65 start;
#X obj 857 123 readsf~ 1;
#X msg 890 87 open voice.wav;
#X obj 608 486 +~;
#X obj 650 565 *~;
#X obj 608 588 +~;
#X obj 546 265 pshift~;
#X floatatom 592 189 5 0 0 0 - \$0-note - 0;
#X text 480 115 midi:33;
#X text 763 80 midi:45;
#X obj 592 210 - 33;
#X floatatom 592 234 5 0 0 0 - - - 0;
#X floatatom 750 193 5 0 0 0 - \$0-note - 0;
#X floatatom 750 238 5 0 0 0 - - - 0;
#X obj 750 214 - 45;
#X obj 704 261 pshift~;
#X floatatom 904 183 5 0 0 0 - \$0-note - 0;
#X floatatom 904 246 5 0 0 0 - - - 0;
#X obj 858 267 pshift~;
#X obj 44 58 unpack f f;
#X obj 13 37 t l l;
#X obj 111 80 tgl 19 0 empty empty empty 0 -10 0 12 #fcfcfc #000000 #000000 0 1;
#X obj 13 100 spigot;
#X floatatom 171 84 2 0 0 0 - - \$0-vel 0;
#X floatatom 1042 278 5 0 0 0 - bendin - 0;
#X obj 1084 277 tgl 19 0 empty \$0-bendt empty 0 -10 0 12 #fcfcfc #000000 #000000 0 1;
#X obj 1066 300 *;
#X floatatom 1066 324 5 0 0 0 - - \$0-benc 0;
#X floatatom 953 191 5 0 0 0 - \$0-benc - 0;
#X obj 953 236 +;
#X obj 953 214 t b f;
#X floatatom 797 215 5 0 0 0 - \$0-benc - 0;
#X obj 797 260 +;
#X obj 797 238 t b f;
#X floatatom 638 189 5 0 0 0 - \$0-benc - 0;
#X obj 636 233 +;
#X obj 638 212 t b f;
#X obj 904 204 - 67;
#X text 1006 88 midi:67;
#X floatatom 1058 125 5 0 0 0 - \$0-vel - 0;
#X obj 1019 188 spigot;
#X obj 1058 145 tgl 19 0 empty empty empty 0 -10 0 12 #fcfcfc #000000 #000000 0 1;
#X obj 1058 168 &&;
#X obj 81 249 tgl 19 0 \$0-sustt empty empty 0 -10 0 12 #fcfcfc #000000 #000000 0 1;
#X obj 1077 145 tgl 19 0 empty \$0-sustt empty 0 -10 0 12 #fcfcfc #000000 #000000 0 1;
#X floatatom 820 106 5 0 0 0 - \$0-vel - 0;
#X obj 781 169 spigot;
#X obj 820 126 tgl 19 0 empty empty empty 0 -10 0 12 #fcfcfc #000000 #000000 0 1;
#X obj 820 149 &&;
#X obj 839 126 tgl 19 0 empty \$0-sustt empty 0 -10 0 12 #fcfcfc #000000 #000000 0 1;
#X floatatom 661 95 5 0 0 0 - \$0-vel - 0;
#X obj 622 158 spigot;
#X obj 661 115 tgl 19 0 empty empty empty 0 -10 0 12 #fcfcfc #000000 #000000 0 1;
#X obj 661 138 &&;
#X obj 680 115 tgl 19 0 empty \$0-sustt empty 0 -10 0 12 #fcfcfc #000000 #000000 0 1;
#X connect 0 0 64 0;
#X connect 1 0 2 0;
#X connect 1 2 3 0;
#X connect 1 3 4 0;
#X connect 1 5 24 0;
#X connect 1 5 87 0;
#X connect 1 6 24 1;
#X connect 1 7 24 2;
#X connect 1 8 24 3;
#X connect 1 9 24 4;
#X connect 1 10 24 5;
#X connect 1 11 5 0;
#X connect 1 12 5 1;
#X connect 1 13 5 2;
#X connect 1 14 7 0;
#X connect 1 15 7 1;
#X connect 1 16 7 2;
#X connect 1 17 7 3;
#X connect 1 18 7 4;
#X connect 1 19 7 5;
#X connect 1 20 9 0;
#X connect 1 21 9 1;
#X connect 1 22 9 2;
#X connect 1 23 11 0;
#X connect 1 24 11 1;
#X connect 5 0 6 0;
#X connect 7 0 8 0;
#X connect 9 0 10 0;
#X connect 11 0 12 0;
#X connect 13 0 33 0;
#X connect 13 1 38 0;
#X connect 13 2 43 0;
#X connect 14 0 13 0;
#X connect 15 0 16 1;
#X connect 16 0 47 0;
#X connect 16 1 47 1;
#X connect 17 0 18 0;
#X connect 18 0 16 0;
#X connect 19 0 18 1;
#X connect 20 0 17 1;
#X connect 21 0 31 0;
#X connect 21 0 48 0;
#X connect 22 0 21 1;
#X connect 24 0 23 0;
#X connect 25 0 31 1;
#X connect 26 0 48 1;
#X connect 27 0 28 0;
#X connect 28 0 29 0;
#X connect 29 0 26 1;
#X connect 30 0 25 0;
#X connect 30 1 26 0;
#X connect 31 0 49 0;
#X connect 33 0 36 0;
#X connect 33 1 35 0;
#X connect 34 0 30 0;
#X connect 35 0 37 0;
#X connect 36 0 37 0;
#X connect 37 0 42 0;
#X connect 37 1 95 0;
#X connect 38 0 39 0;
#X connect 38 1 41 0;
#X connect 39 0 40 0;
#X connect 40 0 59 0;
#X connect 40 1 90 0;
#X connect 41 0 40 0;
#X connect 42 0 50 0;
#X connect 43 0 44 0;
#X connect 43 1 46 0;
#X connect 44 0 45 0;
#X connect 45 0 62 0;
#X connect 45 1 84 0;
#X connect 46 0 45 0;
#X connect 47 0 21 0;
#X connect 48 0 49 1;
#X connect 49 0 32 0;
#X connect 50 0 17 0;
#X connect 51 0 54 0;
#X connect 54 0 79 0;
#X connect 55 0 50 1;
#X connect 56 0 58 0;
#X connect 57 0 59 1;
#X connect 58 0 76 0;
#X connect 59 0 17 0;
#X connect 60 0 81 0;
#X connect 61 0 62 1;
#X connect 62 0 17 0;
#X connect 63 1 65 0;
#X connect 63 1 67 0;
#X connect 64 0 66 0;
#X connect 64 1 63 0;
#X connect 65 0 66 1;
#X connect 66 0 1 0;
#X connect 68 0 70 0;
#X connect 69 0 70 1;
#X connect 70 0 71 0;
#X connect 72 0 74 0;
#X connect 73 0 61 0;
#X connect 74 0 73 0;
#X connect 74 1 73 1;
#X connect 75 0 77 0;
#X connect 76 0 57 0;
#X connect 77 0 76 0;
#X connect 77 1 76 1;
#X connect 78 0 80 0;
#X connect 79 0 55 0;
#X connect 80 0 79 0;
#X connect 80 1 79 1;
#X connect 81 0 73 0;
#X connect 83 0 85 0;
#X connect 84 0 43 0;
#X connect 85 0 86 0;
#X connect 86 0 84 1;
#X connect 88 0 86 1;
#X connect 89 0 91 0;
#X connect 90 0 38 0;
#X connect 91 0 92 0;
#X connect 92 0 90 1;
#X connect 93 0 92 1;
#X connect 94 0 96 0;
#X connect 95 0 33 0;
#X connect 96 0 97 0;
#X connect 97 0 95 1;
#X connect 98 0 97 1;
