#N canvas 840 85 3440 1357 12;
#X obj 123 62 inlet;
#X obj 201 602 outlet~;
#X floatatom 123 85 5 0 0 0 - - - 0;
#X obj 123 456 *~;
#X obj 246 383 line~;
#X floatatom 246 120 5 0 0 0 - - - 0;
#X obj 246 94 r window;
#X obj 123 141 exp;
#X floatatom 123 167 6 0 0 0 - - - 0;
#X obj 123 257 /;
#X obj 171 191 * 0.001;
#X obj 345 444 line~;
#X floatatom 345 368 0 0 0 0 - - - 0;
#X obj 345 342 r delay;
#X obj 123 482 +~;
#X obj 60 508 cos~;
#X obj 60 535 *~;
#X obj 201 579 +~;
#X obj 187 385 wrap~;
#X obj 282 439 *~;
#X obj 282 491 +~;
#X obj 219 518 cos~;
#X obj 219 545 *~;
#X obj 171 218 t b f;
#X floatatom 123 283 6 0 0 0 - - - 0;
#X obj 187 358 +~ 0.5;
#X obj 60 456 -~ 0.5;
#X obj 60 482 *~ 0.5;
#X obj 219 438 -~ 0.5;
#X obj 219 490 *~ 0.5;
#X obj 123 194 - 1;
#X obj 123 115 * 0.05776;
#X obj 123 220 * -1;
#X text 76 160 speed;
#X text 69 174 change;
#X text 51 273 tape head;
#X obj 123 314 phasor~;
#X obj 345 395 max 1.5;
#X obj 246 147 max 1;
#X text 51 286 rotation freq, f 9;
#X text 18 82 transposition;
#X obj 345 419 pack f 200;
#X obj 246 357 pack f 200;
#X obj 282 520 delread4~ \$0-harmony, f 10;
#X obj 123 508 delread4~ \$0-harmony, f 10;
#X text 17 95 (semitones);
#X text 287 118 window (ms);
#X text 337 319 delay (ms);
#X obj 20 31 delwrite~ \$0-harmony 5000;
#X obj 20 9 inlet~;
#X obj 405 153 s window;
#X obj 405 106 loadbang;
#X obj 520 343 s delay;
#X floatatom 503 412 5 0 0 0 - - - 0;
#X msg 520 316 0;
#X msg 405 126 30;
#X connect 0 0 2 0;
#X connect 2 0 31 0;
#X connect 3 0 14 0;
#X connect 4 0 3 1;
#X connect 4 0 19 1;
#X connect 5 0 38 0;
#X connect 6 0 5 0;
#X connect 7 0 8 0;
#X connect 8 0 30 0;
#X connect 9 0 24 0;
#X connect 10 0 23 0;
#X connect 11 0 14 1;
#X connect 11 0 20 1;
#X connect 12 0 37 0;
#X connect 13 0 12 0;
#X connect 14 0 44 0;
#X connect 15 0 16 0;
#X connect 16 0 17 0;
#X connect 17 0 1 0;
#X connect 18 0 19 0;
#X connect 18 0 28 0;
#X connect 19 0 20 0;
#X connect 20 0 43 0;
#X connect 21 0 22 0;
#X connect 22 0 17 1;
#X connect 23 0 9 0;
#X connect 23 1 9 1;
#X connect 24 0 36 0;
#X connect 25 0 18 0;
#X connect 26 0 27 0;
#X connect 27 0 15 0;
#X connect 28 0 29 0;
#X connect 29 0 21 0;
#X connect 30 0 32 0;
#X connect 31 0 7 0;
#X connect 32 0 9 0;
#X connect 36 0 3 0;
#X connect 36 0 26 0;
#X connect 36 0 25 0;
#X connect 37 0 41 0;
#X connect 37 0 53 0;
#X connect 38 0 10 0;
#X connect 38 0 42 0;
#X connect 41 0 11 0;
#X connect 42 0 4 0;
#X connect 43 0 22 1;
#X connect 44 0 16 1;
#X connect 49 0 48 0;
#X connect 51 0 55 0;
#X connect 54 0 52 0;
#X connect 55 0 50 0;
