#N canvas -9 -9 1920 976 12;
#X obj 218 26 inlet~;
#X obj 104 123 vu 15 120 empty empty -1 -8 0 10 #404040 #000000 1 0
;
#X obj 216 126 env~ 1024;
#X obj 216 150 t f b;
#X obj 216 174 - 100;
#X obj 299 129 abs~;
#X obj 299 153 slop~ 0 0 0 0 1e+09;
#X floatatom 377 78 5 0 50 0 - - - 0;
#X obj 377 102 expr 1000 / $f1;
#X text 357 78 ms;
#X floatatom 377 128 5 0 0 0 - - - 0;
#X text 357 129 hz;
#X msg 376 53 500;
#X obj 376 28 loadbang;
#X obj 299 177 snapshot~;
#X obj 299 201 rmstodb;
#X obj 299 225 - 100;
#X obj 515 31 inlet;
#X msg 515 60 range \$1 \$2;
#X obj 664 101 pack 0 1;
#X obj 664 77 loadbang;
#X obj 155 105 vsl 15 140 0 1 0 0 empty empty empty 0 -9 0 10 #00ff04
#000000 #000000 0 1;
#X obj 218 66 *~;
#X obj 230 103 outlet~;
#X connect 0 0 22 0;
#X connect 2 0 3 0;
#X connect 3 0 4 0;
#X connect 3 1 14 0;
#X connect 4 0 1 0;
#X connect 5 0 6 0;
#X connect 6 0 14 0;
#X connect 7 0 8 0;
#X connect 8 0 10 0;
#X connect 10 0 6 3;
#X connect 12 0 7 0;
#X connect 13 0 12 0;
#X connect 14 0 15 0;
#X connect 15 0 16 0;
#X connect 16 0 1 1;
#X connect 17 0 18 0;
#X connect 18 0 21 0;
#X connect 19 0 18 0;
#X connect 20 0 19 0;
#X connect 21 0 22 1;
#X connect 22 0 2 0;
#X connect 22 0 5 0;
#X connect 22 0 23 0;
#X coords 1 -1 2 1 75 150 1 100 100;
